<?xml version="1.0"?>
<svg xmlns="http://www.w3.org/2000/svg" version="1.2" baseProfile="tiny" width="800" height="582" viewBox="0 0 800 582" stroke-linecap="round" stroke-linejoin="round">
<g id="haiti">
<path d="M 761.24 109.47 760.14 112.33 762.03 112.55 761.84 113.23 760.79 113.79 762.22 114.49 761.81 115.43 762.2 115.81 761.62 116.73 762.7 117.27 764.32 119.21 765.35 120.2 766.38 120.2 767.64 121.21 768.33 125.42 764.66 128.9 764.75 134.39 765.47 142.54 770.67 147.76 770.53 148.03 770.67 149.02 771.3 149.2 770.91 149.87 771.72 149.96 773.73 151.67 774.02 152.8 773.83 156.58 774.11 157.03 775.21 157.3 776.07 156.53 776.55 156.85 776.31 159.73 776.6 160.36 777.41 160.36 777.22 162.21 777.74 162.93 778.75 162.93 779.32 163.11 780.18 162.16 780.75 163.02 780.32 164.1 780.71 165.36 779.65 167.61 779.94 168.38 779.22 168.96 779.22 173.06 782.85 180.63 780.18 190 777.89 195.04 779.8 202.43 779.22 204.23 777.31 204.95 776.36 203.33 773.87 202.25 771.77 204.41 770.44 203.51 764.89 206.4 763.17 210 757.06 210.9 753.62 213.07 758.4 216.31 760.12 220.82 761.45 221.9 760.5 224.07 762.03 224.79 762.6 227.13 764.51 228.58 766.61 228.21 766.61 230.56 768.33 231.64 769.86 228.4 770.63 230.56 774.64 233.08 775.59 235.61 782.66 239.94 786.49 240.66 793.75 241.56 796.8 246.61 796.09 247.54 797.97 247.36 799 247.54 798.33 248.78 797.23 247.99 795.82 248.19 794.68 249.3 794.53 251.49 795.58 252.7 796.61 252.79 797.45 253.47 797.42 254.55 795.35 254.44 794.82 255.46 793.1 255.3 792.24 256 795.66 258.16 792.55 258.52 792.19 259.52 793.44 261.59 792.81 261.84 792.98 262.36 792.19 262.56 793.87 264.1 793.79 264.62 789.69 265.43 790.59 266.62 792.24 267.48 790.21 272.69 787.73 273.78 785.72 272.78 785.05 273.78 783.52 272.87 782.47 273.06 782.95 274.68 781.61 276.21 777.98 275.04 775.59 277.3 777.5 278.74 778.36 280.37 776.45 281.9 774.54 281.81 774.16 282.9 776.07 284.16 776.74 285.15 774.73 286.51 774.26 285.6 772.73 285.78 771.96 287.05 772.82 287.86 772.73 288.76 771.77 288.76 771.01 290.48 767 291.38 766.9 292.56 765.66 293.01 764.23 292.2 762.79 292.38 762.12 293.82 759.83 295.72 760.6 296.98 759.83 297.89 758.59 296.44 757.82 296.53 754.29 300.5 755.82 300.69 756.11 301.59 755.15 302.13 753.81 301.86 752.57 303.12 752.09 304.93 753.62 305.92 752.67 307.19 750.56 306.47 749.9 303.94 748.08 304.03 748.08 305.2 741.97 306.74 740.72 303.67 739.86 304.84 738.05 305.65 737.28 307.46 735.09 307.55 734.32 310.26 733.94 311.25 732.41 311.25 731.84 309.99 730.6 310.98 731.07 311.8 728.11 313.51 728.78 314.87 728.59 316.86 727.06 317.13 725.92 316.67 726.39 318.93 726.39 321.19 727.35 321.46 728.69 319.66 730.79 320.11 732.7 319.66 732.22 317.49 732.99 315.23 734.23 316.86 734.51 317.76 735.85 315.5 737.38 317.4 738.14 316.86 737.48 315.59 739.2 314.05 739.67 313.78 740.15 315.5 742.06 314.1 743.45 314.01 742.49 314.96 744.69 315.68 745.41 315 746.07 315.41 746.03 316.22 747.79 316.67 748.75 316.95 748.61 317.85 749.94 317.17 750.52 317.35 750.95 318.21 751.85 317.04 753 317.58 754.72 317.89 754.39 319.3 758.4 331.13 760.4 331.4 766.52 335.56 767.38 337.46 767 339.27 769.77 339.45 770.15 338.95 771.2 339.18 770.58 339.99 769.91 344.92 770.34 347.31 770.15 349.39 771.63 351.97 771.1 353.82 771.15 359.84 769.19 369.38 766.8 382.59 754.1 386.84 753.53 391.18 751.61 391.64 750.66 390.91 748.46 392.63 748.94 394.44 748.56 397.34 746.93 399.6 747.32 402.86 747.6 406.75 746.07 407.11 745.31 408.11 741.87 407.39 737.38 408.47 734.71 406.57 730.6 406.12 729.36 408.29 727.44 408.92 725.92 406.3 720.09 402.95 717.6 403.22 714.45 406.84 708.43 402.95 707.1 402.59 703.08 400.87 700.5 403.67 699.55 406.12 694.58 408.02 692 409.47 694.01 411.37 696.11 411.64 697.83 411.37 699.45 413.9 700.6 414.99 703.08 415.44 706.24 422.33 727.06 443.43 727.06 447.23 717.8 448.5 720.38 456.3 728.4 459.74 731.36 461.82 737.28 464 741.2 472.43 748.65 474.06 748.37 475.42 750.76 478.41 778.75 488.84 761.26 517.32 761.26 520.13 758.68 522.13 756.96 526.85 757.16 528.3 754.19 530.21 752.95 532.66 753.24 534.93 756.11 537.29 758.97 536.83 758.59 538.74 760.31 540.37 761.17 543.01 762.12 542.92 762.7 544.01 764.13 542.1 764.42 543.91 763.56 544.73 764.99 545.55 765.56 547.27 764.42 547.27 764.89 548.64 764.03 548.64 764.51 549.73 763.65 552.18 764.99 556.08 766.71 555.72 767.28 557.08 766.42 558.53 767.57 561.53 766.61 562.26 766.52 564.89 765.18 565.34 764.99 568.61 761.84 571.61 761.26 574.61 760.4 575.34 740.82 561.44 711.39 532.39 687.32 526.94 678.53 522.95 598.28 521.86 544.78 525.85 546.31 534.56 534.46 537.83 512.68 533.84 490.14 537.11 488.99 541.83 477.14 544.73 446.57 544.73 409.12 537.11 366.32 528.39 334.22 524.76 334.22 521.5 310.91 525.85 297.16 524.76 256.65 527.3 242.13 527.3 228.75 527.3 221.88 528.03 201.62 538.2 187.1 546.55 185.95 551.63 195.51 558.17 199.33 566.89 200.09 573.43 193.98 580.7 164.17 579.24 156.15 572.7 145.07 548.36 117.17 524.04 87.36 507.7 66.73 500.81 49.15 507.7 26.22 501.9 6.73 485.58 1 463.46 7.5 439.17 15.52 407.66 26.99 401.14 49.91 395.35 69.78 391 83.92 390.64 101.5 396.8 115.26 400.05 126.72 408.38 139.33 410.19 172.96 417.07 183.28 420.7 195.13 426.85 206.02 429.57 211.18 424.68 219.01 422.69 226.84 421.6 232.77 422.33 245.19 419.07 253.21 418.16 260.47 419.07 260.47 424.14 257.03 428.85 252.06 431.93 237.93 430.66 236.4 435.37 238.88 439.35 246.91 439.9 253.59 438.63 259.33 433.92 264.87 433.92 281.3 435.91 291.04 435.37 305.76 437.9 316.46 439.9 326.58 442.8 344.16 448.59 357.73 446.24 376.26 448.59 388.87 453.85 393.07 456.57 398.42 451.13 412.56 451.49 421.54 452.22 438.55 454.94 452.11 457.66 466.64 458.74 479.63 461.28 489.95 460.19 498.54 457.11 503.51 451.31 508.67 438.63 515.74 428.12 524.53 424.5 538.67 424.14 546.12 429.57 565.99 429.39 578.79 425.77 590.26 430.48 593.31 419.97 591.79 410.92 598.28 398.97 582.23 389.92 562.74 387.38 558.54 375.8 540.58 371.1 526.82 352.65 516.12 341.08 504.66 327.7 485.17 320.83 481.35 305.65 459.95 296.62 460.71 283.26 469.88 277.12 487.84 276.03 491.28 271.7 477.91 265.92 466.44 244.99 472.18 232.72 475.23 223.35 482.49 222.62 471.41 205.32 477.14 195.58 487.08 196.3 481.73 186.93 469.12 176.84 458.42 162.79 421.73 146.95 401.1 137.23 386.58 132.91 379.7 137.59 356.39 127.87 350.66 133.27 329.64 134.71 307.47 133.27 287.99 118.87 281.87 105.56 286.08 83.98 293.34 78.95 296.39 72.12 305.95 66.36 324.29 66.72 363.27 45.16 380.46 43.01 406.07 43.37 440.08 40.49 468.74 34.75 520.33 48.04 528.73 52.71 538.29 52.71 555.86 63.13 568.09 69.96 585.29 73.91 596.37 78.59 601.72 88.29 618.54 83.26 633.44 82.18 645.28 83.98 653.31 90.09 668.21 91.53 682.73 96.21 694.2 98.36 703.37 96.21 720.95 99.08 738.91 99.8 754.58 102.32 763.75 103.76 761.24 109.47 Z"/>
<path d="M 422.21 8.36 434.34 4.05 452.78 1.27 458.23 1.63 470.17 1 477.81 4.41 486.51 7.82 497.02 10.6 505.52 13.83 511.82 16.52 518.51 22.09 521.66 26.4 522.62 28.19 517.94 29.99 511.25 29.36 507.91 28.91 497.11 28.19 493.77 26.85 482.21 24.42 479.15 23.17 476.19 22.54 464.53 19.67 454.22 19.58 447.24 18.32 433.29 13.83 426.7 13.38 422.69 10.24 422.21 8.36 Z"/>
<path d="M 365.37 312.7 381.61 321.73 396.32 323.9 404.92 326.98 420.01 334.93 425.94 340.35 443.52 343.25 455.36 348.13 459.57 349.03 471.22 364.95 472.37 372 475.04 378.7 468.93 382.5 472.56 388.65 465.49 392.63 458.99 390.1 458.23 385.03 436.45 378.88 413.71 377.61 401.1 372.91 392.31 363.14 383.14 360.43 377.79 356.99 361.36 353.01 355.43 352.83 347.6 348.31 339.38 338 330.4 332.04 330.21 323.18 335.94 315.95 342.82 313.42 352.38 312.16 366.13 312.34 365.37 312.7 Z"/>
<path d="M 220.35 551.36 228.66 554.36 234.39 558.44 238.79 558.53 245.76 554.08 251.49 555.99 256.75 561.8 258.85 567.52 248.53 570.07 234.2 568.52 229.81 568.16 225.7 567.16 222.74 561.89 220.73 559.53 216.91 556.99 217.77 553.45 218.91 551.72 220.35 551.36 Z"/>
<path d="M 241.3 543.83 241.62 543.98 241.77 543.99 242.17 544.2 241.86 544.32 241.45 544.35 241.31 544.32 240.9 544.42 240.78 544.33 240.77 544.13 240.73 544.03 240.92 543.88 241.13 543.82 241.3 543.83 Z"/>
<path d="M 194.46 408.47 202.77 403.22 209.36 404.22 214.71 406.39 221.21 407.84 222.35 413 220.83 416.8 211.75 421.87 208.12 422.42 204.78 420.24 202.29 419.25 199.52 419.97 194.36 417.71 192.26 415.99 188.34 415.62 187.48 414.18 189.2 411.55 192.55 411.91 193.6 409.56 194.46 408.47 Z"/>
</g>
</svg>