<?xml version="1.0"?>
<svg xmlns="http://www.w3.org/2000/svg" version="1.2" baseProfile="tiny" width="800" height="936" viewBox="0 0 800 936" stroke-linecap="round" stroke-linejoin="round">
<g id="kenya">
<path d="M 799 64.86 795.02 70.88 794.61 71.83 739.9 148.2 707.54 179.84 708.09 545.16 764.58 621.79 764.99 628.65 760.16 633.86 758.86 636.15 758.82 637.11 760.98 636.08 761.05 637.28 758.62 639.34 757.69 641.29 756.66 643.14 754.26 644.41 752.41 646.98 748.68 650.92 744.7 654.45 742.57 656.64 738.32 661.13 736.23 664.11 734.62 665.72 732.39 666.78 731.26 666.23 733.45 663.36 735.58 661.3 735.75 658.56 735.07 657.94 733.59 659.21 731.91 658.15 730.64 655.44 728.86 655.2 728.65 656.91 728.72 659.04 728.79 660.61 729.79 661.44 730.64 663.05 730.88 664.11 729.75 664.25 728.31 663.29 728.35 661.95 728.24 661.68 726.43 662.09 725.09 661.81 724.61 660.48 725.4 659.96 723.41 659.9 721.73 661.06 719.12 661.71 717.5 663.06 716.3 664.06 714.7 664.5 713.62 665.99 712.3 667.36 710.37 667.57 708.7 667.12 706.97 665.43 706.83 666.52 707.28 668 707.28 669.68 705.38 670.29 703.7 670.5 702.72 670.04 701.83 669.18 701.95 667.71 700.9 667.31 700.29 667.81 700.39 669.93 700.99 671.61 701.33 673.91 700.94 675.12 701.56 676.39 701.5 678.29 701.13 680.16 701.38 682.03 701.66 683.21 702.41 683.9 703.32 683.98 704.03 684.53 704.22 684.97 705.04 684.05 705.82 683.78 706.59 683.58 707.33 683.78 707.63 684.34 708.28 684.49 708.44 685.25 707.87 685.73 707.07 685.06 707.13 685.82 707.56 686.51 708.1 687.13 708.24 687.85 708.34 688.71 706.63 690.3 706.1 691.69 704.97 693.14 702.77 694.39 701.01 694.51 699.6 693.6 699 692.08 695.71 692.99 693.52 694.05 691.91 695.97 690.67 695.97 690.12 697.06 691.67 697.99 691.97 700.32 691.43 702 687.41 704.94 686.49 707.68 683.3 708.02 678.09 711.45 673.02 716.55 669.97 718.2 661.67 716.07 652.62 717.79 637.4 726.28 629.17 736.69 628.69 743.6 627.32 754.97 629.92 759.08 633.9 758.4 634.72 761.82 628.96 766.75 626.91 773.05 624.71 779.89 623.62 784.82 623.34 791.39 607.44 802.07 600.17 820.14 597.84 826.71 597.84 832.86 587.83 858.18 574.66 877.6 563.97 907.68 560.81 907.54 556.84 915.88 555.47 921.62 551.9 921.76 551.21 925.86 552.17 932.42 544.91 935.15 544.22 931.6 547.51 931.05 546.55 928.73 542.03 929.55 540.52 926.82 537.78 925.45 537.64 922.58 536.75 921.83 534.07 923.33 533.56 924.43 533.49 925.76 533.18 927.43 531.78 928.97 531.06 929.96 530.53 929.58 529.79 929.48 529.57 929.09 529 928.68 528.59 928.46 528.31 927.45 390.09 830.26 384.47 816.17 378.3 812.34 369.25 813.57 372.27 807.55 368.02 806.72 371.58 800.98 380.36 792.63 379.26 782.22 376.79 767.71 347.04 749.08 313.71 731.28 275.59 709.77 237.2 688.12 18.21 564.22 14.37 566.62 12.79 565.31 12.31 562.5 6.69 561.54 3.4 561.27 3.19 549.82 2.78 541.59 2.78 515.68 3.67 507.11 8.2 479.89 8.75 475.09 1 451.64 10.67 437.72 12.52 436.56 12.52 435.53 14.3 434.64 14.16 432.92 14.71 432.65 15.12 431.42 15.88 431.14 15.81 429.77 16.98 429.77 19.85 427.23 20.33 425.66 21.09 424.29 18.96 418.94 18.96 416.13 21.71 414.21 21.84 411.05 22.46 410.44 21.64 409.96 22.87 408.52 23.69 403.92 27.33 401.87 28.91 401.66 29.8 399.88 30.76 400.08 32.13 399.47 33.5 399.67 34.25 399.26 35.62 399.4 35.66 399 36.53 398.61 37 398.42 37.18 398.58 37.2 398.23 37.42 398.35 37.68 398.15 37.94 397.62 37.9 396.91 37.66 396.66 38.02 396.62 37.77 396.3 38.06 395.97 38.08 395.76 37.72 394.87 37.85 394.29 38.23 394.12 38.73 394.26 39.05 393.96 39.36 393.71 39.55 393.86 39.45 393.48 39.77 393.43 39.89 393.21 40.32 393.23 40.85 392.83 41.14 392.87 41.31 392.25 40.94 391.81 40.95 391.05 40.59 390.4 40.89 389.77 40.77 389.32 41.02 387.37 41.38 386.24 42.09 385.77 47.28 384.32 49.06 382.4 51.39 381.71 50.43 379.38 54.41 375.81 55.37 372.11 57.84 368.55 59.07 357.72 62.23 351.55 67.44 352.64 68.26 347.71 74.84 344.97 77.04 341.81 88.28 340.03 91.57 337.97 92.67 334.96 92.67 331.81 88.55 325.91 90.34 324.13 89.65 320.43 93.77 317 96.64 309.05 99.8 307.13 104.05 304.8 109.26 296.16 110.08 282.6 109.95 266.42 108.3 264.23 106.93 251.49 100.9 221.75 105.56 216.27 103.23 211.2 100.76 210.38 99.25 203.12 97.33 205.04 94.59 203.67 87.46 193.12 88.42 187.23 85.26 179.7 80.33 175.18 78.13 176 74.57 175.59 73.61 171.62 69.91 170.52 67.57 159.16 67.57 153.54 63.73 148.48 59.9 148.07 57.02 145.6 55.64 144.64 53.86 131.36 50.16 125.48 49.89 121.1 51.67 118.77 48.93 114.12 52.49 113.43 54.82 111.11 56.06 95.5 50.02 93.73 48.24 89.76 44.95 89.21 40.56 91.26 34.39 84.42 26.85 86.06 29.59 83.46 26.16 82.51 28.49 80.04 33.57 79.5 31.78 74.98 26.57 75.39 19.03 75.8 19.31 73.75 22.19 72.38 23.28 67.18 16.02 61.71 15.33 59.8 18.89 58.43 18.35 54.6 15.6 52.14 15.47 48.17 12.18 42.7 9.16 39.69 15.88 34.36 48.65 2.09 204.29 1 204.29 5.65 206.07 6.74 205.25 9.34 214.44 18.22 232.81 17.81 234.59 17.4 238.57 18.36 265.86 18.63 273.95 17.68 275.59 18.91 294.11 18.36 305.21 22.74 311.93 25.88 313.03 24.65 316.87 28.2 319.47 29.71 323.31 33.95 360.34 57.47 407.1 89.89 409.43 89.76 411.07 91.81 413.95 94.96 421.91 101.8 428.08 100.7 454.13 102.48 461.4 100.02 461.53 97.28 466.61 101.53 470.86 102.07 476.07 103.03 477.03 100.43 481.14 105.36 500.75 111.38 505.42 111.52 505.69 109.46 511.45 111.93 512.82 110.97 516.25 110.01 517.48 108.92 520.91 111.11 523.93 111.79 525.3 113.71 528.18 113.43 529.55 115.08 539.42 114.8 542.3 113.02 542.99 115.9 551.35 116.58 553.68 117.27 558.76 116.44 560.81 121.92 564.52 123.01 568.22 113.57 585.63 96.6 595.78 75.53 628.28 58.56 647.07 52.41 649.94 50.36 678.6 37.91 681.48 37.91 685.19 34.63 687.11 34.9 693.28 38.6 695.74 40.24 696.98 42.02 699.58 47.62 706.44 49.81 718.92 64.04 729.34 68.69 733.45 67.32 743.46 68.96 744.01 66.91 746.76 67.87 748.26 66.77 752.38 68.14 759.1 67.18 759.92 67.32 762.94 64.86 766.5 66.22 771.99 65.27 775.41 66.5 780.21 64.04 788.03 65.13 790.22 66.91 793.1 67.46 799 64.86 Z"/>
<path d="M 718.3 666.16 720.32 666.4 721.04 666.99 721.76 665.99 723.24 665.82 724.71 666.85 723.92 667.33 721.8 666.92 721.73 667.64 722.86 667.74 723.72 668.49 724.85 668.97 725.84 669.73 725.57 671.13 724.44 672.19 723.55 672.37 724.88 672.78 724.51 673.7 723.17 674.01 721.56 673.46 720.87 672.78 721.42 671.71 720.56 671.48 719.95 672.06 719.54 672.09 719.91 672.78 720.29 673.53 719.98 674.25 720.46 674.87 720.74 675.79 719.16 676.55 717.65 676.48 716.28 675.72 715.46 675.93 714.22 676.07 713.16 676 712.68 675.24 712.71 674.83 711.89 675.04 711.62 674.73 711.41 675.52 711.89 676.1 711.79 676.82 710.86 676.72 710.42 676.44 708.91 676.75 707.85 677.4 706.89 677.74 706.23 677.47 706.13 676.68 706.78 676.24 707.23 675.93 707.02 674.56 705.93 673.94 705.79 672.88 706.75 672.26 707.85 671.99 708.57 671.17 709.11 671.03 709.46 671.34 709.77 671.06 710.25 671.03 711.34 670.65 712.61 670.31 714.12 670.17 715.05 669.9 715.66 669.49 716.31 669.39 716.35 668.84 716.28 668.22 716.69 667.64 716.9 666.88 717.68 666.37 718.3 666.16 Z"/>
<path d="M 713.69 676.96 714.67 677.2 715.18 677.68 715.16 678.25 714.57 678.61 714.06 678.66 713.25 678.2 713.07 677.85 713.11 677.57 713.37 677.29 713.69 676.96 Z"/>
<path d="M 536.18 926.58 538.58 928.17 536.94 928.82 535.93 927.98 536.1 927.36 535.93 926.87 536.18 926.58 Z"/>
</g>
</svg>