<?xml version="1.0"?>
<svg xmlns="http://www.w3.org/2000/svg" version="1.2" baseProfile="tiny" width="800" height="642" viewBox="0 0 800 642" stroke-linecap="round" stroke-linejoin="round">
<g id="nigeria">
<path d="M 2.92 500.78 2.64 494.34 4.1 492.62 2.83 491.08 5.47 487.72 4.38 482.46 7.66 479.01 8.03 477.02 8.49 474.93 5.02 473.03 5.47 463.33 3.28 462.06 4.29 457.44 6.93 455.99 5.38 451.64 7.48 450.01 6.02 441.32 5.47 430.36 8.94 430.09 8.67 425.29 5.2 422.39 4.38 418.32 3.65 417.51 4.74 407.73 3.56 404.39 1 399.96 3.47 392.27 4.74 385.85 4.65 382.6 5.75 381.51 5.93 378.53 5.57 376.63 3.74 375.73 2.19 369.86 3.74 366.24 3.28 363.62 5.11 362.63 6.48 359.92 6.11 359.02 6.93 357.48 5.84 356.31 6.48 353.96 5.93 351.62 6.2 348.82 4.93 348.19 6.02 347.28 5.2 346.83 6.48 345.21 5.84 344.76 5.93 342.68 4.65 340.43 5.66 338.71 6.84 338.53 6.48 334.29 7.3 333.93 6.2 331.49 8.12 329.6 7.57 328.16 8.4 327.35 8.03 326.71 8.53 326.35 7.76 325.81 8.17 325.59 7.66 324.78 8.4 324.19 7.57 323.69 8.49 322.43 7.85 321.39 8.94 321.08 12.64 321.85 28.75 319.05 28.94 315.81 30.67 313.01 30.67 310.31 32.95 307.24 31.95 298.32 31.4 296.16 32.68 292.74 35.05 291.66 39.44 285.36 39.44 282.39 41.45 281.58 43.18 281.85 46.47 278.88 44.09 276 44.18 272.76 46.38 270.24 53.41 267.99 56.78 268.53 59.98 265.74 59.61 264.03 62.35 262.24 62.9 256.93 63.27 253.69 66.64 251.81 67.65 247.4 65 246.33 61.9 243.27 61.07 241.02 64.36 232.85 63.45 230.96 68.38 228.99 74.86 232.13 76.05 228.54 76.41 225.85 78.42 219.92 77.97 212.48 74.77 210.86 72.03 204.31 73.67 197.95 72.3 191.49 70.02 190.51 70.66 183.79 57.97 175.91 55.41 173.04 58.06 159.17 59.16 152.64 61.62 146.38 62.99 146.56 67.83 142.36 67.19 138.69 64.45 137.44 63.72 131.64 67.74 127.71 67.1 123.69 64.45 118.33 65.91 110.83 66.92 109.41 65.82 99.86 66.1 91.57 74.13 84.18 85.45 76.43 87.83 71.89 92.39 66.55 95.49 60.23 98.05 51.16 98.51 46 98.51 37.83 98.42 28.06 104.72 28.06 119.69 14.48 146.9 8 150.09 10.31 155.02 11.11 160.41 9.78 169.72 10.84 173.92 9.6 178.76 4.46 185.97 1.71 190.72 1 207.06 7.83 224.5 13.59 232.53 16.78 237.65 14.92 240.57 15.1 250.61 19.89 268.42 37.29 276.45 50.36 284.3 59.69 292.15 59.78 296.63 58.54 303.02 51.25 305.94 51.69 314.06 53.2 318.17 51.96 335.34 41.56 342.37 36.94 350.4 37.91 359.53 39.16 365.1 41.65 367.66 44.49 371.49 45.56 382.63 55.96 387.2 54.62 391.49 56.58 395.69 59.16 397.69 63.52 414.13 68.59 419.52 70.73 425.08 70.64 439.97 71.62 443.8 72.33 447.54 71.62 465.26 72.42 474.75 62.1 476.94 58.09 480.69 56.4 487.99 47.96 501.14 41.91 518.3 40.76 531.54 35.87 584.58 34.45 594.26 36.85 598.74 39.96 613.07 42.89 622.2 48.49 623.48 50.71 630.42 52.67 632.15 53.2 632.79 51.51 634.16 51.42 636.44 52.49 638.27 52.13 639.18 54.18 640.55 53.2 642.92 54.27 646.85 54.71 650.78 55.16 652.51 55.78 653.42 53.47 653.88 50.8 655.34 49.82 656.53 50.27 657.44 48.67 657.62 47.42 657.97 46.36 656.98 46.78 656.32 46 656.44 45.25 657.3 46.09 657.69 45.07 657.51 44.73 658.88 44.42 658.42 43.76 658.58 43.02 659.54 42.76 659.13 42.42 659.3 41.5 659.87 41.71 659.93 42.3 660.09 41.38 659.24 41.06 659.99 40.96 660.04 40.59 660.47 41.19 661.4 40.98 661.58 41.38 662.47 41.28 663.33 40.11 663.69 39.47 663.67 40.31 663.95 40.46 663.72 40.64 664.21 40.74 664.47 40.45 665.06 40.86 665.3 41.65 665.81 41.48 666.83 39.65 666.23 38.54 667.45 38.55 668.05 39.48 668.77 39.29 667.93 38.29 669.96 38.14 669.93 37.37 669.56 37.36 669.89 36.48 671.41 35.26 671.47 34.26 672.05 33.87 672.46 34.76 673.78 34.63 672.96 33.43 674.47 32.98 675.03 32.83 675.38 32.42 675.62 32.53 675.24 32.95 675.77 33.04 676.1 32.74 675.84 31.71 674.83 31.44 674.79 31.15 675.44 31.21 675.88 30.73 675.89 30.85 676.37 30.62 676.37 30.09 676.34 29.55 676.57 29.68 676.53 30.45 676.99 30.43 677.45 30.31 677.89 30.54 677.48 29.62 677.82 28.72 677.65 28.34 676.81 28.23 677.02 27.98 677.34 28.1 677.53 27.5 677.73 27.38 677.66 27.7 678.07 27.81 678.82 28.41 678.99 27.97 678.44 27.26 678.76 26.55 679.87 26.57 680.15 26.9 679.98 27.1 680 27.28 680.61 27.11 680.61 27.53 680.86 27.48 680.94 27.36 681.78 27.41 682.19 27.31 682.27 26.91 682.9 26.47 682.83 26.29 683.67 25.96 683.58 26.16 684.04 26.76 684.49 26.5 684.13 25.76 684.34 25.15 684.93 25.6 685.13 25.29 685.49 25.6 685.71 25.13 686.2 25.41 686.2 25.57 686.92 25.3 687.25 25.51 687.15 25.88 687.56 25.94 688.2 24.76 688.82 24.14 690.05 24.74 690.19 25.22 690.1 24.31 690.15 23.65 690.53 24.01 691.48 23.3 691.72 23.41 692.17 24.25 691.93 24.39 691.77 24.06 691.37 24.34 691.4 24.77 692.32 24.95 692.71 25.24 693.17 25.16 693.2 25.49 693.45 25.17 694.05 24.46 693.98 23.96 694.35 23.92 694.7 24.51 695.47 25.19 695.79 25.07 695.57 24.75 695.64 24.57 695.77 24.6 695.43 23.99 695.68 23.65 696.51 23.83 696.85 23.24 697.14 23.27 696.79 23.74 697 24.17 696.68 24.27 696.55 25.2 696.98 25.44 697.64 25.46 697.72 24.95 698.02 24.74 698.05 24.36 698.53 24.47 699.4 24.06 699.71 24.44 699.61 24.96 700.23 25.64 700.49 25.66 700.64 25.4 700.26 25.08 700.29 24.72 700.8 24.75 700.99 24.57 701.44 24.36 700.94 24.22 701.09 23.66 701.36 23.57 701.07 23.35 701.33 23.27 701.7 22.84 701.72 23.24 702.06 23.03 701.98 22.67 702.42 22.86 703.15 22.29 703.03 21.62 702.62 21.73 702.37 21.43 702.53 21.2 702.35 20.62 702.73 20.8 703.48 20.61 703.62 21.07 704.08 21.18 704.19 20.63 704.79 20.24 704.31 19.63 704.14 20.16 703.68 19.58 704.12 19.51 703.5 19.07 703.68 18.68 704.3 18.66 704.39 18.47 704.84 18.63 704.46 17.9 704.87 17.48 705.73 17.32 705.2 17.08 705.32 16.83 706.43 15.88 706.79 16.14 707.07 15.7 706.78 15.56 706.91 15.3 707.24 15.63 707.24 15.28 706.98 14.97 707.36 14.94 707.44 15.17 707.5 14.9 707.69 14.78 707.5 14.76 707.6 14.59 707.51 14.47 707.93 14.4 708.1 14.04 707.94 14.05 707.8 13.85 707.89 13.72 707.76 13.67 707.9 13.57 708.09 13.47 708.35 13.68 708.36 13.96 708.63 13.96 708.53 13.78 708.73 13.69 708.92 14.05 709.04 13.92 708.97 13.81 709.17 13.64 709.61 13.77 709.69 13.59 709.54 13.41 709.66 12.89 709.6 12.54 709.5 12.58 709.38 12.42 709.41 12.14 709.7 12.18 709.78 11.89 710.27 11.96 710.4 12.18 711.18 12.44 711.11 12.64 711.39 12.62 711.65 12.79 712.17 12.74 729.38 12.75 759.28 54.22 767.27 90.46 767.23 92.91 766.59 93.09 766.36 94.25 765.58 94.42 765.9 96.43 767.09 96.39 766.41 96.88 766.73 97.41 765.63 97.68 765.4 98.93 766.45 99.46 767.36 101.07 768.73 101.47 768.69 102.23 772.39 101.65 773.34 102.54 773.57 101.69 774.35 102.45 775.86 101.33 777.5 102.14 781.52 102.05 782.7 101.69 783.39 102.98 784.76 102.4 786.04 103.03 786.49 103.83 788.09 104.46 788.59 105.48 787.95 105.39 787.95 106.69 790.33 107.62 790.01 108.25 790.37 109.14 791.01 109.05 790.28 110.48 792.06 111.06 793.43 111.19 793.39 111.77 794.25 112.8 793.75 113.15 795.53 114.18 796.08 113.42 797.58 113.38 799 115.47 797.27 117.08 797.27 118.42 796.22 120.16 797.4 122.04 795.58 122.57 795.07 123.87 797.27 128.87 795.9 130.7 796.58 132.22 794.02 134.85 794.66 136.24 794.07 137.09 794.3 139.72 794.57 140.57 794.21 141.78 790.24 144.59 791.7 145.62 793.75 146.25 796.31 149.2 797.08 152.46 796.67 153.36 796.72 154.56 795.35 156.49 794.8 158.37 788.09 161.32 784.99 164.45 782.57 164.85 777.04 169.64 769.6 173.04 768.28 175.46 765.81 176.8 763.8 176.45 761.75 175.68 760.2 174.34 759.56 174.92 753.49 172.24 752.21 172.33 751.34 173.27 749.65 178.15 747.87 180.3 747.64 181.64 745.68 182.71 745.73 184.1 743.4 187.19 741.71 188.58 740.39 191.58 740.07 192.48 735.96 192.53 735.78 194.45 734.86 195.3 734.82 196.6 735.78 197.81 734.91 202.03 734.04 202.48 733.49 203.06 732.63 203.06 731.85 205.26 730.57 205.26 730.02 207 730.98 207.45 730.07 209.52 729.38 209.87 728.84 211.98 726.42 213.06 726.01 214.05 726.51 215.03 725.37 217.1 723.91 218.35 724.96 220.6 724.55 222.17 725.78 223.6 722.67 228.23 723.04 229.62 722.86 231.68 722.13 232.72 720.25 233.43 720.57 237.21 719.2 237.3 720.12 239.68 718.29 242.73 719.57 246.19 718.66 246.37 718.61 248.48 716.65 249.61 716.19 250.68 712.08 251.45 711.12 252.08 710.17 251.63 707.02 253.74 707.02 255.45 705.78 256.35 703.82 257.07 703.91 259.13 705.87 259.99 706.51 261.34 705.78 263.49 703.73 264.3 703.04 265.56 703.87 268.44 707.47 270.74 704.55 273.97 703.96 277.93 704.14 279.51 702.73 280.27 702.82 281.4 702.59 283.29 702.91 284.77 702.27 286.12 702.5 286.93 701.31 288.73 699.89 288.96 693.46 291.21 692.96 291.75 691.22 291.84 688.98 292.65 685.79 294.9 684.88 296.52 682.91 298.28 679.44 299.41 678.67 301.16 677.16 300.94 679.31 302.78 681.45 302.15 682.37 303.37 681.54 305.04 681.41 306.66 681.86 309.14 680.77 311.39 679.95 314.09 680.22 316.44 680.77 318.06 679.99 319.55 679.63 320.58 675.52 327.66 675.02 330.95 674.56 331.13 675.29 332.62 674.56 333.34 674.74 334.29 674.24 335.1 675.2 336.91 674.7 338.21 674.7 339.21 673.56 340.24 672.82 342.68 671.09 341.64 668.81 341.51 668.17 343.27 667.71 344.8 667.35 347.78 665.61 348.95 663.79 349 662.74 349.9 661.55 349.81 660.96 350.98 659.08 351.57 656.85 350.67 653.93 349.49 651.69 350.71 649.45 351.03 650.68 352.25 650.64 354.41 651.6 356.45 650.41 357.89 648.95 358.57 648.04 358.66 647.99 359.56 647.26 359.79 647.03 360.42 645.8 360.24 643.06 362.23 643.38 363.58 641.37 363.85 640.69 362.63 638.22 362.41 637.95 364.21 637.04 366.52 637.45 378.17 637.86 380.47 636.26 381.65 635.44 383.73 634.21 384.09 633.61 385.44 634.16 388.83 634.11 390.37 634.57 392.36 634.84 393.67 633.61 395.12 633.79 395.98 631.47 398.15 629.96 401.27 627.49 402.26 626.08 405.38 624.94 407.37 625.08 408.37 624.44 408.73 624.44 409.63 623.52 410.09 623.43 410.99 622.15 412.8 621.97 413.48 620.78 413.71 620.83 414.79 621.29 416.47 621.24 418.46 621.65 419.32 621.15 420.22 621.74 421.17 621.42 422.39 622.38 423.57 622.15 424.34 619.64 424.97 618.18 425.92 618.14 426.51 616.45 426.24 615.26 427.78 616.36 429.82 616.08 432.53 613.07 434.34 613.07 437.15 610.42 440.77 612.98 442.22 611.61 445.3 611.97 449.47 612.8 452.09 611.88 453.63 609.97 453 609.42 454.45 608.05 453.45 606.13 455.54 602.75 455.63 599.19 457.98 596 459.89 595.36 462.7 594.17 464.87 592.71 465.42 591.34 468.13 594.17 471.58 592.44 473.21 593.26 476.29 591.25 477.65 590.88 481.1 588.51 484.55 584.49 485 582.12 485.63 583.31 489.26 578.19 490.35 577.83 491.44 574.82 491.08 573.26 489.44 570.52 490.26 567.79 489.53 567.6 491.53 564.13 491.89 562.76 490.26 561.3 490.62 560.48 487.99 560.39 479.74 558.47 477.93 556.46 477.74 553.27 479.38 549.53 478.83 548.43 477.02 548.25 474.39 546.24 473.03 544.96 471.31 542.68 470.31 542.31 468.32 543.59 463.33 540.12 461.16 538.75 461.34 533.18 457.17 532 455.45 529.99 455.18 528.25 453.82 527.52 449.29 525.79 447.93 523.69 462.52 520.58 465.14 519.12 464.42 502.32 465.96 499.58 462.7 498.22 456.17 478.95 473.39 473.38 472.49 468 491.08 461.24 490.17 460.14 493.8 456.22 495.88 452.47 495.25 450.01 504.05 444.35 501.87 442.98 507.05 438.69 513.22 435.04 514.22 432.75 516.21 431.48 518.94 416.41 531.38 415.5 534.28 411.21 536.55 411.48 538.82 413.22 538.64 413.12 541.82 410.29 545.64 415.68 551.72 416.14 554.27 410.29 562.72 410.93 566.81 408.74 573.26 409.38 579.36 406.92 584.45 404.54 585.17 402.72 588.9 400.71 591.45 401.07 592.54 399.61 594.18 398.24 595.72 398.33 597.29 397.69 597.7 396.49 597.77 395.75 598.52 395.02 599.8 395.64 601.18 396.71 602.68 396.69 603.41 395.46 604.16 394.16 604.78 392.88 604.87 391.81 605 391.3 604.96 390.19 606.62 389.75 608.42 390.44 610.08 390.44 611.12 387.93 612.58 386.01 612.6 384.55 611.76 381.99 610.64 378.61 611.37 377.34 613.74 378.07 616.29 377.79 619.38 377.06 621.66 374.32 623.29 362.36 622.66 347.39 623.39 331.23 626.84 328.58 628.39 320.18 629.21 313.06 630.58 308.04 632.12 301.01 633.85 295.99 632.94 292.06 631.4 288.59 633.67 282.75 635.04 267.87 636.31 264.22 637.95 253.72 638.13 249.61 639.68 226.23 640.77 217.29 636.68 207.88 630.39 195.92 617.83 184.42 598 179.03 583.36 175.38 567.17 171.82 563.36 165.06 556.72 159.04 542.27 152.37 531.92 130.83 511.22 119.6 504.05 100.52 499.7 75.77 496.97 53.04 498.79 44.28 499.88 20.17 499.97 4.38 500.6 2.92 500.78 Z"/>
</g>
</svg>