<?xml version="1.0"?>
<svg xmlns="http://www.w3.org/2000/svg" version="1.2" baseProfile="tiny" width="800" height="1152" viewBox="0 0 800 1152" stroke-linecap="round" stroke-linejoin="round">
<g id="peru">
<path d="M 742.25 1076.36 741.94 1076.45 741.08 1077.93 739.66 1079.41 738.49 1082.17 736.55 1083.94 740.87 1084.31 747.59 1089.54 747.51 1097.4 742.2 1102.29 735.17 1107.47 727.07 1106.61 725.25 1110.27 725.43 1112.98 726.89 1113.88 726.63 1117.33 726.94 1120.37 728.06 1123.49 729.91 1125.46 729.65 1128.08 725.86 1136 723.18 1139.52 720.04 1141.49 716.54 1145.26 715.38 1145.87 711.02 1145.75 704.9 1148.78 702.05 1149.06 698.3 1148.49 694.03 1148.37 690.97 1150.13 690.15 1150.82 672.04 1139.89 667.47 1136.28 659.53 1130.71 657.81 1128.82 654.44 1124.88 650.22 1122.01 645.04 1120.86 641.16 1117.82 633.4 1112.57 630.21 1110.68 627.62 1111.01 626.67 1109.77 628.74 1105.66 627.7 1100.57 627.1 1094.73 625.63 1090.78 622.01 1087.57 619.08 1084.19 611.49 1081.8 600.19 1078.51 595.96 1076.03 589.15 1069.6 580.78 1067.38 578.37 1064.24 571.3 1059.54 568.28 1056.65 566.21 1052.69 558.7 1047.73 548.09 1045.5 541.19 1044.18 532.91 1038.48 524.55 1035.83 519.63 1033.76 512.64 1029.38 508.16 1028.88 507.12 1029.38 504.62 1025.08 499.36 1022.68 492.38 1020.85 485.22 1017.87 481.77 1018.7 479.18 1016.63 472.37 1012.82 466.93 1010.09 462.53 1006.27 460.2 1004.12 459.6 1001.71 452.7 999.06 447.18 996.16 444.07 994.41 438.73 993.92 434.59 990.6 432.17 986.53 426.05 983.38 418.72 981.47 408.11 975.57 397.24 969.67 392.06 966.84 387.92 964.43 386.54 961.68 388.44 960.77 382.84 957.94 382.49 954.69 384.56 955.03 380.08 951.61 375.33 950.7 371.28 941.21 367.66 938.21 367.05 935.29 359.63 931.62 348.34 925.2 342.56 920.11 340.57 915.69 339.54 912.02 336.86 909.26 337.9 907.01 330.57 902.08 327.89 899.4 324.79 896.48 322.8 893.72 324.36 893.39 328.93 896.9 327.81 893.8 322.29 889.12 320.65 890.79 319.18 889.21 317.97 883.69 319.1 880.17 317.97 876.07 316.51 873.73 312.45 872.97 311.59 870.46 312.97 865.77 317.11 863.93 319.79 863.43 320.22 865.61 323.67 854.46 324.53 844.15 322.98 838.69 313.49 826.44 307.8 819.89 305.38 815.27 304.26 808.79 300.12 802.99 298.14 802.4 296.84 799.63 292.44 789.53 287.44 785.32 286.32 783.38 287.79 777.99 285.46 774.37 282.27 772.18 279.94 771.59 277.44 768.05 271.74 766.11 270.71 763.16 270.45 760.04 266.31 757.76 264.15 758.27 264.15 760.12 261.57 760.29 259.5 759.11 257.94 755.65 259.58 754.9 262.08 756.33 264.15 754.73 264.58 749.67 263.29 743.84 261.13 739.96 257.34 738.44 257.86 737 260.96 737.68 261.82 735.57 260.01 731.09 256.22 726.87 253.54 721.38 246.56 715.88 237.93 711.31 233.02 708.1 233.36 702.43 236.47 701.16 234.4 694.73 231.21 690.33 231.46 685.93 226.2 677.46 214.04 659.74 207.66 648.55 198.34 631.74 194.72 613.9 184.54 596.04 181.44 587.53 174.02 575.79 168.16 566.08 168.16 557.9 162.29 548.18 163.15 541.88 154.7 534.88 150.39 526.86 153.32 524.47 142.63 510.65 127.62 497.84 118.13 484.68 118.99 479.72 110.54 465.36 107.95 455.09 100.71 444.48 89.67 432.15 85.01 422.73 58.96 407.31 41.19 398.23 26.01 388.45 13.42 377.82 11.35 369.24 16.01 359.46 21.53 360.49 25.32 362.89 31.53 357.91 29.64 349.5 25.84 340.57 17.04 334.05 11.01 328.21 7.56 324.43 11.87 316.87 16.53 315.15 12.56 306.73 3.93 295.73 1 290.91 1.86 284.72 1.86 276.81 5.66 270.62 6.18 264.94 14.8 257.55 22.39 246.88 29.98 242.06 36.71 230.7 51.03 222.44 55.34 215.89 61.38 215.38 66.38 211.59 66.94 211.29 67.72 212.1 69.05 212.45 70.3 212.53 71.81 213.4 72.33 214.34 71.9 215.16 71.08 215.85 71.06 216.73 70.82 217.25 71.47 217.38 71.9 218.3 72.68 218.15 73.02 221.32 72.59 222.95 73.19 224.07 74.23 224.33 74.14 225.79 74.57 227.69 73.8 230.35 74.83 232.25 74.23 235.09 75.95 237.58 76.38 241.37 78.28 243.01 76.13 244.38 72.76 246.53 70.95 246.62 68.62 250.32 66.38 250.41 64.57 249.03 61.98 248.51 59.48 249.2 57.75 250.32 56.37 253.25 56.2 256 56.98 257.46 58.27 257.29 57.84 262.36 59.48 262.11 60.51 262.97 62.93 261.93 63.79 263.05 66.72 262.19 58.87 271.4 57.49 274.49 58.27 277.42 61.03 279.31 62.58 279.99 66.55 277.76 67.59 276.47 68.54 275.18 69.83 275.01 72.42 272.77 73.19 271.57 73.45 270.71 74.75 270.19 75.44 267.95 75.87 268.47 77.42 267.52 78.89 268.21 81.47 268.73 82.68 269.59 86.99 273.55 89.58 274.41 91.48 274.15 95.1 276.21 96.39 279.05 98.9 280.68 104.16 279.31 108.21 276.9 110.63 277.85 113.04 280.6 114.68 282.4 116.92 282.14 118.65 283.78 118.47 285.84 118.3 288.76 119.77 290.57 120.2 294.09 122.1 296.33 122.18 298.65 124.51 302 126.06 302.26 127.27 305.35 129.86 306.21 132.45 310.17 136.59 310.42 139.43 310.25 142.8 311.03 144.09 310.51 145.04 311.8 147.02 312.92 148.32 313 150.65 305.7 154.53 305.96 155.91 305.87 155.91 304.24 154.18 302.95 155.82 300.2 154.27 298.56 155.65 297.79 155.99 294.01 157.63 292.63 158.75 290.48 162.2 289.62 164.27 289.37 167.81 288.42 169.97 286.79 170.57 285.76 170.31 283.35 171.17 281.37 172.12 278.45 173.33 276.56 174.02 276.13 171.95 275.44 171.52 272.94 170.92 270.71 172.9 267.87 174.11 265.55 173.76 263.05 175.57 261.76 175.49 257.03 177.13 254.71 178.25 253.25 175.57 252.21 176.18 249.03 178.59 246.1 180.83 245.33 181.96 243.61 181.52 242.49 182.3 239.56 182.9 238.62 185.66 236.98 186.35 235.09 185.06 234.57 186.44 233.02 185.58 231.82 185.75 230.01 186.79 229.92 187.39 227.6 186.79 225.36 187.73 222.01 189.29 219.16 189.72 215.98 190.41 213.65 189.89 212.1 190.06 209.69 191.62 211.33 196.45 212.02 197.48 218.91 200.5 217.79 202.4 217.01 201.79 212.97 200.24 212.45 199.55 209.61 202.74 207.11 205.24 203.67 206.11 200.39 208 201.08 209.82 198.84 211.89 198.59 211.71 196.78 213.7 193.33 215.42 190.75 221.72 187.04 225 185.49 245.01 178.86 274.59 168.52 297.79 161.2 318.49 144.22 334.88 131.38 363.43 95.56 364.03 95.65 364.94 96.51 365.24 95.52 376.19 56.72 380.33 60.08 384.73 60.17 388.01 59.13 385.68 57.15 386.46 52.75 384.65 50.85 385.34 48.52 382.92 47.4 384.39 46.11 382.75 43.61 384.91 42.05 382.92 40.16 385.42 38.43 386.29 37.31 385.16 35.24 386.46 33.69 385.08 32.31 384.65 30.84 383.53 31.53 383.35 29.98 381.71 29.72 380.77 29.03 379.56 26.79 378.35 27.74 377.57 26.19 375.85 25.5 375.33 24.03 371.36 18.34 369.64 13.68 366.1 9.8 362.65 10.32 361.7 5.49 365.33 6.52 367.74 5.57 372.05 7.64 375.94 8.94 376.97 8.33 377.49 7.47 378.01 8.5 380.94 7.73 382.66 6.95 384.22 5.83 386.11 3.24 387.75 1 393.53 2.98 396.81 4.8 400.26 7.64 402.5 8.25 404.83 12.47 405.87 11.01 406.99 13.42 409.57 12.82 412.16 9.71 415.35 12.3 417.16 17.04 417.34 20.06 420.18 19.37 421.3 21.7 424.93 20.67 424.5 22.48 428.72 24.2 429.67 27.74 431.83 27.48 431.91 28.86 433.47 28 437.09 29.98 436.74 33.6 438.73 32.57 439.42 36.62 440.19 38.6 440.02 39.47 442.18 41.02 440.97 42.83 439.85 43.35 439.93 44.81 442 45.94 443.64 45.94 443.04 47.66 445.54 47.14 444.59 50.16 447.87 49.9 445.54 52.06 446.14 53.96 443.64 52.75 442.61 54.73 445.54 54.9 446.23 57.84 445.63 59.56 450.72 61.98 452.79 61.63 459.08 64.48 461.07 61.2 461.84 62.49 461.15 65.51 463.57 68.19 465.47 66.37 465.38 68.88 468.83 68.7 470.21 72.5 472.02 75.86 476.76 76.38 477.28 77.33 478.83 73.1 480.04 76.64 483.66 75.95 485.13 77.93 486.86 77.93 487.98 81.72 490.56 81.47 489.62 83.62 491.43 87.07 489.79 87.5 492.72 88.36 493.15 91.21 495.31 91.64 495.14 93.97 495.39 96.64 496.95 96.73 495.39 99.23 493.24 100.95 492.81 103.37 492.2 104.57 494.62 107.07 497.55 107.68 498.93 111.04 501.69 109.66 504.45 111.47 506.61 113.19 506.69 109.75 509.97 110.35 509.97 111.81 511.44 111.38 511.52 107.68 514.28 110.78 516.7 111.56 516.35 115.52 519.03 116.64 519.03 120.52 518.16 123.88 519.63 125.87 519.11 128.88 521.7 129.57 518.6 132.42 517.82 135.35 515.23 135.86 515.75 139.83 518.94 142.59 518.34 144.4 522.74 146.55 523.6 143.62 526.62 146.29 528.86 145.09 528.86 149.57 530.5 152.67 533.86 150.69 536.54 150.95 539.56 148.53 540.94 148.53 542.14 150.77 543.7 148.36 545.16 149.48 545.51 152.24 547.06 151.55 547.49 149.05 548.7 148.1 548.78 146.81 550.94 147.07 554.3 149.83 561.46 151.12 563.45 150.17 565.34 154.74 571.3 152.93 572.5 151.29 575.61 151.81 578.71 151.03 578.71 153.88 580.27 151.81 580.7 149.65 585.96 144.91 587.86 147.15 592.34 146.38 593.38 148.02 593.81 147.07 592.51 143.36 595.1 143.36 596.74 142.67 599.24 135.35 601.4 136.81 602.17 135.17 604.16 134.92 604.42 133.36 606.14 132.85 605.62 138.54 608.73 137.67 610.71 136.38 613.99 139.14 619.17 140 619.25 143.28 620.46 146.21 621.84 145.17 619.86 141.21 622.44 141.38 624.51 144.31 626.67 146.12 625.81 149.22 627.88 148.88 631.33 147.5 632.45 145.17 633.66 145.43 633.66 148.02 636.59 145.17 639.18 147.76 640.9 148.02 641.42 144.91 643.32 145.26 642.71 142.24 648.84 140.86 651.68 143.19 652.2 141.98 650.13 138.62 651.34 137.5 653.49 138.1 655.65 140.17 659.1 138.02 660.74 139.83 662.03 142.41 665.66 142.67 667.55 144.74 672.12 146.29 672.04 149.74 674.97 148.62 674.11 152.93 677.47 154.65 680.32 153.1 677.04 150.77 680.23 150.26 681.61 153.44 684.37 152.58 686.44 156.12 688.86 156.81 691.44 154.48 695.58 155.86 693.69 157.75 691.96 158.7 694.12 160.25 698 158.1 700.33 161.54 700.85 164.73 702.4 165.42 703.43 163.61 704.47 166.97 707.14 168.44 708.09 164.9 709.56 166.54 710.07 169.47 710.16 172.57 669.8 236.21 675.14 238.96 677.9 238.44 681.53 242.23 686.53 240.68 690.84 238.19 694.03 237.24 697.83 240.25 699.64 244.3 703 244.99 704.99 249.63 708.35 253.59 711.02 255.83 713.78 259.61 716.63 262.54 717.92 264.86 718.01 267.78 714.56 272.94 711.89 272.26 709.64 269.07 711.71 268.04 708.44 267.35 707.06 265.63 706.71 267.27 704.47 266.92 703.61 269.07 704.81 270.19 702.05 272.26 700.85 268.3 699.98 269.42 697.83 268.82 699.03 267.01 696.45 267.61 695.07 264.86 696.88 264 696.19 259.96 693.95 258.49 693.43 260.9 690.32 257.89 686.27 258.06 687.13 259.96 685.49 260.13 683.94 259.53 682.82 262.19 682.56 259.18 680.58 258.06 679.8 259.61 679.37 262.62 678.42 262.88 678.68 260.82 675.66 261.59 674.45 260.13 675.57 257.98 673.42 257.72 673.42 259.87 672.56 258.49 671.52 262.54 670.57 261.42 668.42 260.9 666.6 259.44 660.74 263.4 662.81 263.65 662.03 265.8 659.96 265.55 660.91 267.27 659.01 268.21 659.36 269.93 657.37 270.45 656.86 271.91 655.65 271.83 655.48 273.46 653.84 273.29 651.85 271.31 652.03 273.8 649.09 274.92 647.89 272.51 647.37 274.15 646.59 273.03 644.35 273.46 644.52 275.18 642.45 273.55 642.11 274.92 639.95 274.49 639.35 275.87 638.57 273.29 637.54 275.09 636.5 273.72 634.26 273.98 635.21 276.13 633.74 277.24 631.76 275.61 632.45 278.1 630.46 277.33 629.34 276.3 627.1 276.73 624.6 279.13 625.03 277.07 624.08 276.38 623.74 277.76 622.79 276.81 621.32 278.19 619.68 277.33 620.37 280.25 618.04 278.7 616.15 280.42 613.77 282.92 611.62 281.93 613.08 279.18 610.76 281.07 610.63 279.09 609.72 281.54 607.78 280.94 606.14 281.2 604.42 278.96 603.47 281.2 602.78 279.82 602.09 280.68 601.48 280.08 600.54 281.03 599.59 280.85 599.24 281.8 598.38 281.54 597 282.14 594.67 281.8 596.39 283.43 594.07 282.92 593.38 284.47 592.77 285.5 591.74 286.44 592 287.65 589.15 287.65 589.49 288.94 588.2 289.8 586.04 288.76 585.7 290.57 584.75 290.66 584.84 291.6 583.37 291.6 583.03 292.55 581.13 294.35 580.7 295.73 580.01 294.44 576.82 296.42 576.56 297.19 575.18 296.67 574.66 298.05 573.37 298.39 572.68 298.05 572.5 299.17 571.55 299.51 571.3 298.13 569.31 298.91 568.97 298.22 568.1 298.74 568.28 300.37 566.98 299.94 565.78 300.2 565.86 301.4 564.57 301.74 564.48 304.06 563.53 305.1 562.15 304.49 562.24 305.44 561.89 306.21 561.38 306.56 559.48 305.61 560 307.07 558.88 308.02 558.19 309.13 557.58 308.45 557.24 309.05 556.29 308.28 555.94 309.31 554.13 309.74 552.58 311.28 551.8 311.8 551.11 311.11 550.68 312.14 550.68 313.26 549.82 315.32 549.3 314.89 548.35 316.27 548.09 315.58 547.23 316.18 546.02 315.41 545.08 316.09 544.13 315.41 542.14 316.44 542.32 317.47 541.02 317.3 540.42 318.24 538.95 318.33 539.38 319.19 537.66 319.1 537.05 321.29 536.02 321.29 535.16 321.08 532.83 322.49 533.26 323.35 533.32 324 533.95 323.61 533.82 324.23 533.71 324.49 534.14 324.77 533.69 325.11 534.36 325.39 534.19 326.12 534.34 327.05 533.73 328.04 534.49 327.88 534.08 328.7 534.64 329.32 534.08 329.67 534.25 330.59 533.56 330.48 533.82 330.93 533.69 331.36 532.76 331.69 533.28 331.94 533.02 332.33 532.68 332.24 532.83 332.76 531.86 332.97 531.79 333.55 532.5 333.23 532.59 334.33 531.75 334.8 531.51 335.18 531.94 335.31 531.66 335.7 530.8 336.04 530.97 336.49 530.69 337.16 530.37 337.48 530.61 337.95 529.92 338.36 529.66 338.64 530.15 339.16 529.72 339.18 529.72 339.74 528.84 340.25 529.18 340.55 528.43 341.6 528.51 342.2 529.01 342.46 528.32 343.43 528.26 344.37 528.43 345.23 528.75 345.49 528.86 346.58 529.77 346.33 528.56 347.4 528.92 347.68 528.32 348.26 528.82 348.49 528.39 348.75 528.97 348.92 528.19 349.54 527.54 351.03 527.46 351.52 528 351.3 528.06 352.81 528.45 353.62 528.13 353.97 527.63 353.64 527.22 353.94 526.68 353.94 526.42 354.67 527.09 354.95 526.73 355.3 526.98 355.81 526.38 356.05 526.53 356.67 526.1 356.35 525.63 356.84 526.01 357.21 526.1 357.59 525.67 357.59 525.73 358.02 525.35 357.87 525.47 358.26 524.2 358.45 524.63 358.84 524.12 359.35 523.19 359.76 522.91 360.29 523.15 361.11 522.3 361.09 522.78 361.47 522.41 361.95 522.59 362.42 522.13 362.25 521.7 362.7 521.33 362.44 521.21 362.89 520.88 362.59 520.67 363.3 521.08 363.3 521.08 363.73 520.36 363.62 519.85 364.03 520.3 363.9 520.15 364.48 519.61 364.24 518.83 364.54 518.68 364.91 518.7 365.64 518.83 366.3 518.47 366.56 518.4 366.26 517.84 366.54 517.76 367.01 517.26 366.58 517.26 367.03 516.78 366.82 516.68 367.07 516.31 366.82 515.66 367.93 516.05 367.72 516.25 368.23 515.43 368.72 515.43 369.09 515.68 369.43 515.43 369.41 515.08 370.25 514.95 370.83 514.78 370.55 514.52 370.78 514.39 371.56 514.24 371.47 514.15 371.96 514.52 372.22 514.35 372.61 514.63 372.76 514.52 373.1 514.71 373.14 514.3 373.81 514.09 374.45 513.92 374.15 513.61 374.73 513.96 374.73 514.09 375.46 513.83 375.44 513.7 375.8 513.33 375.61 513.01 375.87 512.58 375.72 512.3 376.4 512.73 376.49 512.3 376.75 511.91 376.53 512.13 376.9 511.52 377.07 511.57 377.39 511.07 377.43 510.94 378.01 511.5 377.93 511.18 378.31 511.52 378.59 511.26 379.15 511.63 380.01 510.77 380.07 511.35 380.95 510.92 380.82 511.01 381.42 510.68 381.51 510.51 381.87 510.36 382.04 510.32 382.39 510.27 382.75 510.19 383.41 510.38 383.71 510.42 384.53 511.35 385.54 511.83 386.37 512.43 386.91 511.89 387.34 512.08 387.68 512.6 387.74 512.17 388.52 512.13 388.9 512.41 389.4 512.71 388.95 512.88 389.63 513.61 390.49 513.74 391.15 514.09 391.17 514.18 391.6 514.52 391.3 514.87 391.67 515.08 392.16 515.73 392.46 515.66 393 515.86 393.1 515.94 393.51 515.62 393.36 515.99 393.98 515.86 394.45 515.99 395.63 516.33 395.83 516.5 395.42 516.46 396.47 516.85 396.17 516.87 396.6 516.78 396.77 517 397.73 517.15 397.5 517.52 398.05 517.28 398.38 517.5 398.5 517.35 399.13 517.69 398.76 517.78 399.58 517.91 399.83 518.29 399.6 518.68 400.09 519.42 400.88 519.11 401.59 518.64 401.72 518.29 402.21 518.73 402.98 518.79 403.35 518.9 403.65 518.51 403.75 518.55 404.44 518.25 404.61 518.36 404.2 518.06 404.44 517.6 404.31 517.6 404.98 517.8 405.21 517.04 405.75 516.91 406.09 517.24 405.98 517.22 406.24 517.54 406.33 517.41 406.54 517.37 406.99 517.04 407.5 517.04 406.93 516.44 407.55 516.33 408.23 515.88 408.15 515.64 408.51 515.49 408.02 515.12 407.7 515 408.19 514.09 408.1 514.8 408.66 514.11 409.09 514.39 409.47 513.9 409.62 513.51 409.28 513.55 409.95 512.97 409.92 513.57 410.7 512.71 411.45 511.91 410.52 511.39 411.47 511.65 411.94 509.97 411.94 506.69 412.62 504.36 412.71 501.43 414.42 499.62 415.79 492.2 418.19 490.39 420.33 486.25 422.22 482.63 427.01 480.47 428.9 478.58 433.52 479.27 435.92 478.23 437.63 478.06 442.08 475.82 444.82 476.59 446.28 476.59 447.13 478.92 449.53 479.27 451.67 480.82 452.35 481.34 455.43 482.11 457.23 480.13 459.45 478.4 460.14 477.89 459.11 474.44 459.45 471.93 460.74 471.59 462.11 468.31 461.76 467.54 460.74 467.02 461.25 466.41 460.39 465.98 461.25 468.48 465.7 468.66 467.58 467.71 469.38 466.59 471.09 464.26 471.86 464.26 473.65 470.55 475.7 469.52 478.01 472.11 480.23 473.14 480.15 474.95 482.88 480.9 484.59 482.89 486.73 483.32 489.29 483.15 492.11 481.34 492.8 478.92 492.8 478.06 492.45 477.54 495.02 479.78 496.47 479.52 497.84 481.68 498.61 483.32 500.14 484.61 501.42 485.82 501.17 487.29 502.88 486.68 504.07 488.75 507.83 489.36 509.28 488.32 511.16 490.05 514.66 489.36 515.85 492.81 517.73 492.2 520.21 492.12 522.43 495.91 525.33 499.36 527.89 500.57 528.06 501.69 530.19 504.88 530.7 505.23 533.35 504.54 539.49 505.92 539.23 510.06 544.01 515.06 544.01 517.65 547.76 518.68 551.51 520.58 553.72 522.3 557.56 524.55 558.33 526.1 559.18 528 562.25 529.38 562.67 528.51 564.29 529.46 568.63 529.12 571.53 526.62 573.57 524.63 574.6 525.5 576.38 523.94 578 521.79 578.09 519.11 581.15 519.37 582.68 517.47 583.87 516.27 585.58 514.46 586.51 513.25 589.15 543.35 589.41 546.28 591.19 551.46 592.13 556.37 594.26 561.81 593.66 566.55 594.68 569.23 597.83 570.78 597.4 570.95 601.74 572.76 602.51 572.59 604.21 573.11 605.91 572.33 610.75 578.63 613.05 579.23 614.58 578.63 616.02 579.58 618.4 579.14 620.87 577.85 622.06 579.06 624.1 577.33 626.39 620.2 626.3 629.34 625.54 631.15 623.76 633.31 624.94 636.67 624.01 637.11 622.99 639.61 623.5 640.99 620.78 643.75 617.3 645.39 616.36 648.4 615.17 651.85 614.92 652.63 612.11 654.61 610.07 655.99 609.82 659.53 606.5 661.77 604.55 664.28 603.44 665.4 601.91 666.6 601.32 667.38 598.85 668.67 598.85 671.35 597.15 673.94 594.77 675.75 592.64 678.08 591.28 680.49 590.6 682.69 590.3 683.29 590.53 683.32 591.17 682.34 591.6 682.54 592.72 681.4 592.32 681.85 593.68 682.73 594.72 682.47 595.38 681.96 594.53 681.65 595.3 680.99 594.94 681.05 596 680.17 595.89 680.47 596.89 679.99 597.53 678.59 596.89 678.55 598.4 679.63 599.38 678.79 599.64 678.01 599 677.56 599.23 677.39 597.94 676.63 598.66 677.43 600.76 676.82 601.72 678.64 605.53 679.46 605.61 680.79 608.12 681.18 608.84 680.71 610.24 680.49 611.09 680.36 612.11 679.02 613.13 677.95 612.54 677.47 613.09 677.08 613.94 676.18 613.98 675.14 615.26 675.14 617.21 675.83 617.98 675.32 624.94 674.97 644.22 674.93 655.71 675.14 689.15 681.01 685.25 686.18 689.4 686.7 691.52 690.75 692.79 695.07 693.55 699.64 692.28 702.14 692.28 706.88 690.25 708.95 688.3 711.45 688.3 715.85 685.76 718.53 684.4 721.2 684.57 726.89 685 728.96 685.33 731.12 687.11 734.31 687.03 737.33 686.27 738.71 686.56 739.06 685.74 739.81 685.53 740.41 685.65 741 685.57 741.45 686.2 754.58 707.85 778.64 746.37 799 783.3 798.48 785.7 796.97 784.81 797.71 786.71 796.54 786.92 796.02 787.97 796.28 788.73 795.85 788.73 794.77 789.99 793.95 790.62 793.52 791.8 793.78 793.65 795.16 794.96 793.35 796.47 794 796.6 791.75 798.32 790.85 798.2 789.43 800.05 788.91 801.73 788.91 802.82 787.79 803.16 787.18 805.68 785.89 806.44 785.2 809.89 785.03 813.16 785.54 815.85 786.41 817.45 785.29 823.58 785.63 826.44 786.41 830.3 783.56 842.89 782.27 847.25 781.4 848.17 779.85 852.78 777.09 853.54 777.44 855.55 775.28 855.72 774.33 855.13 773.12 857.14 773.99 859.15 775.71 861.33 778.21 862.51 778.04 864.01 780.46 865.27 781.92 866.11 780.2 869.54 778.47 870.71 778.56 874.23 778.99 876.49 782.44 879.5 784.16 881.43 785.03 884.52 787.61 886.45 786.23 887.95 787.61 890.79 788.05 891.63 779.08 891.46 778.04 893.14 778.47 894.31 776.32 897.15 777.78 901.16 775.54 903.83 772 905.75 770.28 908.26 769.07 910.01 768.12 910.18 767.78 913.77 766.57 914.6 763.81 914.27 763.12 915.19 762.95 918.44 761.48 919.86 760.88 921.45 763.12 923.95 760.1 925.95 757.25 926.03 755.01 927.62 754.67 931.54 755.62 933.29 754.06 936.29 755.1 938.54 757.08 941.37 759.5 947.04 761.91 947.95 764.76 949.95 767.6 953.11 768.98 955.53 769.67 956.77 765.97 956.94 764.67 960.44 763.38 960.85 761.14 964.01 761.22 966.59 762.43 968.59 760.96 969.92 758.98 968.25 757.94 970.08 757.6 972.08 756.22 974.32 751.82 978.31 764.76 1013.73 771.05 1017.46 773.99 1015.8 776.57 1017.13 778.3 1015.47 781.23 1016.63 789.86 1024 789.77 1024.74 777.95 1029.79 774.59 1038.89 775.28 1041.45 777.35 1044.51 771.74 1047.4 766.66 1048.72 764.24 1054.67 760.53 1058.55 756.74 1062.59 755.96 1064.57 752.6 1066.22 753.8 1069.85 750.35 1072.82 749.15 1072.57 742.25 1076.36 Z"/>
<path d="M 34.98 398.57 34.29 401.65 34.98 405.6 30.84 405.6 29.98 401.48 31.19 398.74 33.6 397.88 34.98 398.57 Z"/>
<path d="M 42.4 432.84 42.92 435.58 41.02 435.75 39.3 434.04 40.5 432.84 42.4 432.84 Z"/>
<path d="M 151.06 533.62 151.77 534.11 151.88 534.95 151.64 535.76 151.29 536.57 150.86 536.44 150.82 536.03 151.44 535.8 151.49 535.1 150.99 534.24 150.58 533.84 150.71 533.58 151.06 533.62 Z"/>
<path d="M 313.06 853.62 313.66 853.96 312.71 856.31 311.59 855.55 312.28 853.96 313.06 853.62 Z"/>
<path d="M 309.52 865.77 310.21 866.95 310.38 868.79 308.06 869.04 307.8 867.36 308.83 865.94 309.52 865.77 Z"/>
</g>
</svg>