<?xml version="1.0"?>
<svg xmlns="http://www.w3.org/2000/svg" version="1.2" baseProfile="tiny" width="800" height="701" viewBox="0 0 800 701" stroke-linecap="round" stroke-linejoin="round">
<g id="rwanda">
<path d="M 632.57 4.49 622.62 14.98 627.46 28.15 632.3 29.49 630.15 38.37 631.5 44.28 640.64 45.62 648.17 54.76 657.58 72.5 665.37 90.51 664.03 102.07 670.75 113.9 687.69 120.08 694.14 133.25 713.5 136.75 736.08 160.13 738.5 187.28 775.88 237 768.35 255.81 771.84 303.38 762.97 350.14 785.29 387.22 789.86 388.83 790.67 393.67 799 404.15 795.77 411.4 794.16 411.13 789.32 421.07 789.86 426.98 786.09 430.48 782.87 445.25 776.42 455.73 778.3 462.18 776.42 466.75 780.72 483.94 779.91 494.15 781.79 496.84 778.3 501.14 774.26 504.09 774 508.66 765.66 516.99 760.55 517.52 752.75 523.7 751.41 527.19 746.84 526.93 746.3 524.24 738.24 522.63 732.59 515.91 726.94 513.76 718.34 517.52 715.65 523.7 708.93 532.03 703.28 536.06 694.95 532.03 685 531.49 678.55 532.57 671.29 537.67 663.22 535.52 658.11 535.52 652.47 532.03 645.75 530.42 645.75 525.58 641.71 522.9 636.87 519.94 636.07 517.25 632.03 517.25 630.42 511.61 626.92 508.66 627.73 498.99 623.7 498.45 618.05 501.94 611.87 501.14 607.03 495.23 600.04 496.84 594.39 504.63 592.78 511.08 577.72 516.18 557.29 520.21 546 520.21 537.12 510.27 532.82 512.15 530.67 522.9 523.95 526.93 522.87 535.79 517.23 541.97 511.04 540.63 499.48 545.73 489.26 541.7 479.32 535.52 472.33 528.81 466.14 515.37 454.85 508.66 445.71 508.39 429.84 502.48 425.54 516.99 434.15 561.04 426.08 567.49 416.4 593.27 419.09 621.74 421.24 627.65 404.57 666.33 376.07 678.14 365.85 671.16 354.56 676 349.72 688.35 330.9 693.18 313.16 682.44 295.41 691.03 282.5 688.89 265.3 697.48 248.63 690.5 226.04 687.27 201.31 699.63 189.48 671.7 186.25 665.25 192.17 660.42 191.09 647.53 184.64 641.08 186.25 635.17 176.03 626.04 158.29 616.37 140 620.13 123.33 614.22 112.58 607.24 106.67 612.08 94.83 606.7 81.39 608.85 74.94 620.13 76.01 634.1 75.48 651.83 70.64 662.57 49.67 646.99 38.91 645.92 20.09 637.32 15.25 631.41 16.86 627.12 13.64 593.81 1 581.46 4.76 573.4 11.75 571.25 13.1 559.43 2.61 548.68 4.76 533.64 14.17 522.36 23.32 518.6 37.83 520.75 41.33 517.25 40.25 512.69 47.78 508.12 54.5 492.54 56.39 489.32 71.44 485.02 91.61 481.26 98.33 477.49 121.72 427.25 122.26 414.89 119.57 391.25 106.4 353.9 104.51 338.85 110.97 313.59 120.92 295.85 150.76 255.01 151.03 244.52 156.14 239.69 161.51 227.59 171.46 221.14 178.72 212.81 183.02 206.09 186.79 196.15 194.05 192.12 197.27 180.83 231.69 180.29 250.51 155.83 254.27 150.99 256.42 150.99 261.53 143.47 269.6 138.36 278.74 134.06 283.58 135.13 286 136.21 288.42 132.72 317.73 130.83 325.52 124.65 335.2 115.24 349.18 115.51 355.91 120.08 358.59 125.73 366.93 127.07 367.47 117.93 373.38 110.67 376.88 109.33 377.15 102.61 385.21 107.45 385.48 111.21 393.55 122.77 399.46 120.62 401.88 146.15 404.84 157.98 414.25 169.54 429.31 162.82 445.44 155.56 451.62 145.35 455.39 143.2 464.53 150.46 467.75 150.46 467.49 138.36 473.94 133.52 476.09 128.15 483.89 128.41 488.46 128.41 493.83 132.18 497.33 123.31 503.51 119.54 512.39 116.32 509.97 112.56 509.7 103.95 514.27 100.46 513.19 88.36 519.92 87.83 522.6 91.32 525.56 88.1 529.33 88.9 547.34 68.74 556.21 63.1 557.02 58.8 561.86 56.65 564.82 39.71 582.29 33.26 580.14 20.36 582.83 15.79 583.91 7.45 592.78 9.6 594.66 7.45 600.84 7.99 607.57 6.11 614.02 7.18 620.47 1 632.57 4.49 Z"/>
</g>
</svg>