<?xml version="1.0"?>
<svg xmlns="http://www.w3.org/2000/svg" version="1.2" baseProfile="tiny" width="800" height="670" viewBox="0 0 800 670" stroke-linecap="round" stroke-linejoin="round">
<g id="zambia">
<path d="M 575.05 502.07 574.95 502.14 572 503.76 570.36 504.32 567.65 503.65 565.64 503.78 564.23 502.43 561 505.27 559.13 503.96 558.24 501.98 555.86 501.89 551.46 502.52 545.79 503.38 543.97 503.47 541.67 502.16 539.43 502.07 534.19 501.21 530.21 502.43 525.85 503.11 521.78 505 518.32 504.5 516.49 505.49 513.36 506.49 512.23 506.26 511.63 506.71 509.05 506.17 506.57 506.49 503.62 508.24 501.56 508.74 496.18 511.4 493.09 512.07 487.05 516.62 486.35 516.98 485.65 518.2 484.81 519.05 483.03 519.46 481.39 521.17 480.36 522.88 479.71 524.09 477.74 523.73 475.63 523.87 473.11 523.73 472.03 525.04 470.39 526.07 470.35 528.5 469.6 529.67 467.87 530.66 467.72 531.61 468.47 532.64 469.04 533.27 469.5 535.38 468.75 536.82 467.91 538.08 467.3 539.52 467.58 541.18 467.21 542.53 467.58 543.92 468.66 544.33 467.96 545.86 466.41 547.74 465.99 548.82 466.32 549.9 467.58 550.3 467.35 551.74 468.29 553.31 467.63 554.08 467.58 554.97 467.44 555.92 466.32 556.95 465.81 558.25 466.32 559.37 465.81 560.72 464.73 561.93 462.9 562.83 461.78 563.77 460.24 565.66 457.01 566.28 454.85 567 454.1 566.73 428.41 576.55 419.05 583.9 398.64 593.4 384.6 612.54 384.55 617.15 385.35 617.32 384.27 617.91 384.04 619.11 381.79 621.66 378.61 625.19 363.12 636.61 352.07 650.57 351.75 651.46 337.38 662.33 334.62 663.53 333.54 663.04 333.12 663.66 330.5 663.53 330.12 664.24 330.36 664.87 328.86 665.09 328.39 665.67 326.28 665.35 324.23 665.93 321.46 668.38 321.28 669.36 317.91 667.8 316.46 668.07 314.72 667.54 314.91 666.82 313.09 665.27 312.48 663.44 310.98 663.08 308.78 663.49 306.81 663 305.32 661.57 304.57 661.57 304.19 660.9 302.93 661.04 301.53 659.75 299.75 659.79 297.45 659.34 294.88 659.79 293.29 658.59 290.39 658.5 289.36 657.16 289.31 656.49 288.61 656.27 283.93 658.68 281.68 658.81 279.9 659.83 280.14 660.55 281.07 660.68 280.56 661.7 280.04 662.82 277.33 662.86 276.95 662.24 276.2 662.77 274.15 662.51 272.98 663.13 273.07 663.98 271.76 664.29 270.17 663.84 268.34 663.75 267.64 663.04 266 662.82 264.22 662.46 264.5 662.06 264.22 661.7 264.36 660.95 263.47 660.15 264.27 659.52 263.66 659.34 264.27 659.12 263.85 658.86 264.36 658.19 263.57 657.88 263.05 657.16 261.6 657.03 259.82 655.6 258.7 654.4 256.08 653.47 255.05 653.2 253.51 653.02 253.36 651.59 252.33 650.97 250.88 651.5 249.85 652.8 247.65 653.15 243.02 653.29 241.66 654.76 240.4 654.85 238.34 654 236.28 653.6 234.97 654.04 233.75 653.82 231.69 654 230.43 653.06 228.84 653.11 226.78 652.13 225.61 650.75 223.74 650.08 221.02 648.39 218.92 648.34 217.14 646.69 216.2 646.51 216.62 645.44 215.88 643.97 215.17 644.46 214.61 643.17 213.63 643.53 212.04 644.33 212.88 642.86 212.88 641.92 212.55 641.21 211.8 641.12 211.15 639.65 210.21 639.02 210.12 637.86 209.46 637.77 209.32 638.71 208.57 638.67 208.57 637.95 209.09 636.61 208.06 635.94 206.28 636.57 205.3 635.77 204.36 633.67 201.88 634.74 201.97 633.31 199.35 633.89 197.48 631.7 195.75 632.06 193.97 631.48 192.01 632.55 191.02 632.02 190.6 630.77 189.34 631.21 186.95 630.01 184.61 630.05 182.69 630.68 181.66 630.99 181.47 631.44 180.12 630.95 179.37 632.33 177.22 632.42 175.25 632.82 174.73 630.81 173.14 630.99 170.94 630.01 168.65 628.85 163.78 627.82 159.62 629.52 156.57 628.98 156.01 629.43 154.52 628.62 154.42 628.31 101.72 638.84 83.09 628.67 73.64 618.35 51.03 598.95 34.42 580.45 21.13 569.69 19.63 569.29 18.69 568.21 18.5 566.73 16.77 566.28 15.88 566.15 15.32 564.85 14.2 564.76 12.14 562.07 10.22 560.81 9.89 558.88 10.36 554.75 9.66 551.56 8.21 548.91 6.62 547.43 6.2 544.51 5.4 542.89 3.11 541.36 1.23 539.61 1 323.81 140.29 322.35 131.68 312.68 132.42 300.45 135.05 295.88 135.23 290.58 142.91 281.99 141.6 276.87 142.35 273.21 136.54 265.16 136.54 247.95 138.98 242.64 135.98 231.82 139.91 222.47 139.54 216.6 143.47 213.66 140.1 205.03 139.73 196.22 137.85 194.38 138.79 192.18 138.98 183.54 136.92 179.31 144.97 180.41 145.9 182.8 147.59 189.05 150.21 188.5 158.82 190.52 163.31 193.65 163.5 198.42 165.19 203.56 162.75 209.62 157.89 212.74 159.2 215.31 163.31 215.13 168.37 218.8 177.36 217.88 178.48 215.5 186.15 209.62 193.27 207.05 202.44 205.03 211.99 204.11 222.76 202.19 226.31 200.26 229.12 200.53 228.56 202.37 227.34 204.48 229.03 205.95 225.66 207.69 227.06 210.08 225.75 211 225 211 225.47 214.58 226.31 216.05 226.5 220.08 228.09 220.72 227.25 222.1 225.75 222.28 227.15 223.66 226.69 225.13 228.28 226.69 228.65 229.71 235.77 233.56 237.45 233.38 239.51 236.22 238.95 239.61 240.73 240.8 243.07 239.79 246.06 238.6 245.97 237.5 250.09 237.05 251.02 239.61 254.58 242.73 258.98 242.91 262.63 243.55 264.6 241.81 265.81 241.99 266.75 245.11 269.37 247.77 271.43 246.85 273.49 248.68 272.55 251.7 286.31 250.7 288.28 249.87 291.09 250.97 294.36 251.34 295.39 252.53 300.17 250.51 302.51 249.41 306.35 249.6 308.22 251.8 311.03 252.44 312.71 254.45 314.12 252.8 317.49 253.9 320.86 255.09 322.54 255.73 325.63 252.71 326.57 251.89 329.47 254.27 334.52 253.72 336.21 251.06 338.17 250.7 339.86 248.32 339.76 246.76 342.2 244.38 341.54 243 342.29 242.54 342.2 237.69 344.54 236.68 345.1 234.39 343.98 232.46 343.6 230.17 343.32 228.7 345.38 227.51 347.72 228.24 350.44 227.14 352.59 227.97 354.93 226.5 356.05 225.4 358.02 233.84 357.64 235.12 357.36 237.5 357.55 239.98 359.33 241.72 360.92 241.63 368.03 246.3 371.4 248.32 374.49 251.43 373.93 255.18 374.12 258.48 375.71 258.75 377.02 261.68 377.58 265.44 379.64 267.81 382.64 269.64 384.32 270.47 384.32 273.21 386.66 274.86 391.81 274.4 394.15 275.22 394.43 273.85 397.15 272.85 397.15 270.38 400.7 271.38 405.57 271.47 405.66 273.85 407.44 276.14 406.6 278.61 407.63 279.71 409.59 278.33 413.43 279.07 415.59 279.16 418.67 284.83 420.17 284.09 420.08 282.72 422.04 281.26 423.45 282.17 425.88 282.81 425.98 283.55 428.41 283.18 429.44 284 430.84 283.64 433.46 284.28 434.31 285.74 435.9 286.56 437.58 289.49 440.67 290.4 439.83 293.05 445.82 297.07 446.48 298.71 445.26 302 442.64 302.09 441.23 303.65 441.42 305.11 444.6 308.39 446.94 311.95 446.94 313.69 449.56 316.52 451.91 312.14 454.43 310.68 457.62 313.69 459.77 315.42 461.92 319.25 463.51 319.16 464.82 321.62 466.13 322.81 466.79 327.37 467.44 328.19 466.32 328.83 467.91 330.84 467.44 332.93 469.88 334.48 470.72 334.12 472.87 336.76 472.97 338.77 475.4 346.69 475.96 348.88 478.02 348.42 477.37 350.42 478.77 351.97 486.73 348.51 488.97 350.24 490.47 353.79 493.56 350.79 498.33 348.88 499.55 346.14 502.36 346.96 503.2 345.6 506.29 344.96 509.1 344.05 513.69 339.86 515.56 338.86 517.99 337.31 519.21 338.67 521.92 339.59 524.83 338.95 524.26 340.13 525.01 340.68 522.48 343.87 522.95 347.15 519.96 347.97 520.14 350.33 522.3 352.79 524.08 352.15 527.45 354.61 531.19 352.97 534.19 353.88 533.81 265.53 531.19 265.34 528.66 267.54 528.01 269.19 525.76 270.56 522.2 270.83 520.33 269.64 517.9 267.91 516.49 268.64 514.62 271.02 512.19 271.11 510.69 274.31 509.66 276.96 511.53 281.81 513.97 282.27 513.97 284.37 510.78 286.47 506.85 284.73 503.76 283.27 500.11 283.82 498.62 282.72 499.18 281.9 496.74 279.89 494.22 281.08 489.25 280.8 486.82 281.99 484.85 280.89 482.42 281.81 480.74 280.99 480.64 279.25 479.14 277.24 477.18 272.85 473.72 267.54 469.22 264.98 466.32 261.32 463.14 257.66 462.01 254.08 460.89 253.72 459.02 254.54 453.78 251.15 452 248.96 449.66 248.96 445.17 246.94 443.11 247.03 443.39 244.19 440.86 243.83 440.02 241.44 441.33 239.61 439.08 236.13 440.67 234.3 439.08 233.29 440.02 231.27 436.65 226.96 436.83 221.73 437.58 219.07 438.89 217.33 439.55 213.48 441.42 212.01 441.05 207.69 442.45 205.77 443.57 203.01 442.92 200.44 444.42 199.16 444.23 196.31 442.73 193.37 443.95 191.99 445.26 187.03 445.17 184.46 446.94 183.45 447.41 177.75 447.97 175.08 449.85 174.25 450.03 172.42 451.44 171.31 451.44 168.09 453.59 167.73 456.02 168 455.56 165.33 457.62 164.97 456.96 162.48 455.09 161.29 456.3 157.24 455.28 155.4 453.68 154.57 453.5 150.61 454.25 149.05 452.56 144.9 453.22 141.31 453.5 138.83 452.09 138.09 449.38 134.5 451.62 131.18 451.81 129.94 452.93 130.17 452.7 127.91 453.26 122.89 453.96 122.24 454.2 120.12 452.61 118.6 453.03 117.54 452.98 116.2 453.73 113.07 455.23 110.95 455.04 109.52 456.07 107.72 456.21 105.83 457.1 106.29 457.66 105.32 455.98 103.66 456.49 102.83 455.74 101.95 454.76 102.05 453.64 101.63 452.33 99.46 452.98 98.63 453.12 97.8 452.28 94.57 451.34 92.91 451.86 91.11 450.92 90.28 449.94 90 450.88 89.22 452.05 89.03 452.23 87.65 450.88 88.67 449.56 88.94 449.1 87.51 449.24 84.33 448.68 83.17 447.69 83.03 446.8 83.4 446.57 82.71 446.8 81.65 445.21 81.23 445.17 80.13 445.96 76.48 445.4 74.49 441.47 73.11 436.41 71.31 435.34 68.81 436.51 66.59 448.21 60.26 458.74 51.11 469.97 37.93 475.82 27.8 475.59 25.26 473.34 18.04 471.38 15.12 519.68 10.17 521.31 9.43 600.65 1 602.71 5.63 614.69 21.09 621.15 25.63 626.29 25.07 627.32 22.76 629.38 22.3 631.82 23.69 633.5 25.54 636.03 24.06 638.56 24.24 639.87 22.67 642.02 25.54 645.77 26.09 648.11 29.24 651.85 29.05 654.19 32.66 653.72 38.12 655.03 40.43 659.62 42.65 661.49 44.87 664.58 45.24 667.48 43.3 673.75 43.67 679.18 46.72 678.06 49.68 678.43 52.36 682.46 55.97 685.36 54.58 691.35 54.95 694.16 54.95 700.24 59.94 707.73 59.57 711.66 59.11 716.16 61.23 716.25 62.53 719.71 67.89 723.37 67.33 727.11 69.18 734.41 70.47 735.53 72.51 737.31 72.51 738.81 74.45 741.62 76.02 744.24 75.55 744.15 76.94 745.64 76.66 746.49 77.86 747.8 78.14 747.7 79.43 750.23 84.51 751.92 85.16 750.51 89.31 750.51 93.37 752.38 93.93 754.44 92.54 757.34 96.14 758.09 95.96 758.94 90.51 760.81 91.43 765.02 91.71 766.71 94.11 767.55 98.54 770.64 103.43 772.32 105.74 775.32 106.2 777.84 113.11 775.6 113.85 772.04 121.5 773.73 123.35 778.78 125.47 781.68 128.69 787.21 131.64 788.98 133.57 788.7 137.26 787.86 141.96 789.83 145.36 793.76 149.6 794.32 151.99 797.03 153.83 797.97 156.23 799 157.33 797.03 160.27 793.85 161.47 793.48 163.4 791.98 163.13 788.14 167.27 787.86 169.93 785.61 171.77 783.27 172.14 782.06 173.89 779.72 173.61 778.41 172.97 777.47 173.98 774.48 174.07 772.98 176.09 772.23 177.38 769.98 176.55 768.58 179.49 771.11 181.7 772.04 185.84 773.26 191.9 776.53 194.75 777.19 196.86 778.22 197.69 777.38 202.09 775.6 204.21 774.19 207.33 772.7 210.08 772.32 211.92 771.11 212.65 770.82 217.24 769.51 216.05 767.74 214.76 766.52 215.86 767.17 218.16 768.3 219.72 768.76 223.75 766.99 225.04 768.02 227.6 771.67 227.69 773.54 229.35 773.45 233.75 773.91 238.42 773.45 240.53 774.29 243.28 773.35 247.58 774.66 249.69 773.45 254.45 769.98 259.39 768.39 264.25 769.79 266.72 772.23 267.91 772.23 272.02 774.19 274.86 776.63 278.79 779.72 278.43 783.37 277.51 787.39 278.7 788.33 279.89 786.36 281.99 784.96 283.55 783.55 283.73 782.71 286.84 778.41 290.31 776.82 293.05 773.35 291.41 769.23 292.68 766.14 295.88 764.55 297.16 763.34 298.44 763.15 296.61 760.81 295.88 758.28 296.8 756.13 295.88 754.44 295.97 747.24 307.39 747.61 312.32 749.2 315.06 752.1 316.06 750.32 326.09 749.58 331.11 750.51 335.12 751.54 336.94 749.01 341.5 746.39 345.42 746.3 348.42 743.4 355.16 741.43 355.43 740.59 359.44 733.57 362.44 730.95 361.89 729.17 361.62 728.51 362.8 729.45 366.53 733.48 368.17 736.38 367.54 738.72 369.99 740.5 372.45 736.56 375.27 735.44 376.45 737.69 378.81 743.02 379.45 745.46 380.99 745.46 383.26 747.89 384.9 748.45 387.17 750.89 387.72 751.07 390.8 750.32 392.98 752.85 395.35 755.19 393.26 755.47 390.26 758 389.26 760.34 388.99 761.37 386.44 762.21 386.44 764.83 391.26 767.55 391.62 764.55 393.17 707.73 412.68 691.54 416.13 686.02 418.94 677.31 420.75 672.26 423.74 662.15 425.83 650.91 431.53 648.2 433.44 620.59 439.96 615.06 440.86 608.6 442.85 604.77 443.22 580.33 452.08 569.38 457.69 561.33 459.14 562.08 461.22 562.08 463.93 561.14 464.29 562.83 468.81 564.51 472.69 564.23 475.13 565.36 475.49 565.54 476.85 568.73 480.28 571.07 481.73 572.38 484.07 572.85 486.33 572 488.59 572.56 490.39 573.41 491.56 573.69 492.55 571.07 497.43 573.69 499.59 574.72 501.48 575.05 502.07 Z"/>
</g>
</svg>