<?xml version="1.0" encoding="utf-8"?>
<!-- Generator: Adobe Illustrator 22.0.0, SVG Export Plug-In . SVG Version: 6.00 Build 0)  -->
<svg version="1.1" id="Layer_1" xmlns="http://www.w3.org/2000/svg" xmlns:xlink="http://www.w3.org/1999/xlink" x="0px" y="0px"
	 viewBox="0 0 460 460" style="enable-background:new 0 0 460 460;" xml:space="preserve">
<style type="text/css">
	.st0{fill:#E6E6E7;}
	.st1{fill:#BEBCB2;}
	.st2{fill:#A5AA61;}
	.st3{fill:#8A9249;}
	.st4{fill:#9FCBA5;}
	.st5{fill:#2B7B57;}
</style>
<path id="XMLID_10_" class="st0" d="M310.2,76.3l127.1-23.8c11.8-2.2,22.7,6.8,22.7,18.8v344.3c0,9.2-6.6,17.1-15.6,18.8
	l-134.2,25.2c-2.3,0.4-4.7,0.4-7.1,0l-146.3-27.4c-2.3-0.4-4.7-0.4-7.1,0L22.7,456.1C10.9,458.3,0,449.2,0,437.2V92.9
	c0-9.2,6.6-17.1,15.6-18.8l134.2-25.2c2.3-0.4,4.7-0.4,7.1,0l146.3,27.4C305.5,76.8,307.9,76.8,310.2,76.3z"/>
<path id="XMLID_1097_" class="st1" d="M306.7,76.7V460c-1.2,0-2.4-0.1-3.5-0.3l-146.3-27.4c-1.2-0.2-2.4-0.3-3.5-0.3V48.6
	c1.2,0,2.4,0.1,3.5,0.3l146.3,27.4C304.3,76.6,305.5,76.7,306.7,76.7z"/>
<path id="XMLID_1095_" class="st2" d="M317.3,114l104.4-19.6v305.3l-115,21.6l-142.7-26.8c-3.5-0.7-7.1-1-10.6-1s-7.1,0.3-10.6,1
	L38.3,414.1V108.8l115-21.6L296.1,114h0C303.1,115.3,310.2,115.3,317.3,114z"/>
<path id="XMLID_1094_" class="st3" d="M306.7,115v306.3l-142.7-26.8c-3.5-0.7-7.1-1-10.6-1l0,0V87.3L296.1,114h0
	C299.6,114.7,303.1,115,306.7,115z"/>
<g id="XMLID_1033_">
	<g id="XMLID_1034_">
		<rect id="XMLID_1035_" x="287.4" y="136.6" class="st4" width="7.2" height="44"/>
	</g>
	<path id="XMLID_1036_" class="st5" d="M291,65.9c-9.9,0-20.3,58.7-13.5,74.2c3.3,7.6,9.2,9.8,13.5,9.8c4.5,0,10.2-2.2,13.5-9.8
		C311.3,124.6,300.9,65.9,291,65.9z"/>
</g>
<g id="XMLID_1_">
	<g id="XMLID_3_">
		<rect id="XMLID_4_" x="179.7" y="173.6" class="st4" width="8" height="49.4"/>
	</g>
	<path id="XMLID_2_" class="st5" d="M183.6,94.3c-11,0-22.6,65.8-15.1,83.2c3.7,8.6,10.2,11,15.1,11c5.1,0,11.4-2.5,15.1-11
		C206.3,160.1,194.8,94.3,183.6,94.3z"/>
</g>
<g id="XMLID_9_">
	<g id="XMLID_12_">
		<rect id="XMLID_13_" x="218" y="253.6" class="st4" width="8.2" height="40.8"/>
	</g>
	<path id="XMLID_11_" class="st5" d="M222.1,188.1c-11.3,0-23.2,54.3-15.5,68.7c3.8,7.1,10.5,9.1,15.5,9.1c5.2,0,11.7-2,15.5-9.1
		C245.3,242.4,233.4,188.1,222.1,188.1z"/>
</g>
<g id="XMLID_14_">
	<g id="XMLID_16_">
		<rect id="XMLID_17_" x="268" y="342.7" class="st4" width="8" height="49.4"/>
	</g>
	<path id="XMLID_15_" class="st5" d="M272,263.4c-11,0-22.6,65.8-15.1,83.2c3.7,8.6,10.2,11,15.1,11c5.1,0,11.4-2.5,15.1-11
		C294.6,329.2,283.1,263.4,272,263.4z"/>
</g>
<g id="XMLID_18_">
	<g id="XMLID_20_">
		<rect id="XMLID_21_" x="179.7" y="324.7" class="st4" width="8" height="49.4"/>
	</g>
	<path id="XMLID_19_" class="st5" d="M183.6,245.4c-11,0-22.6,65.8-15.1,83.2c3.7,8.6,10.2,11,15.1,11c5.1,0,11.4-2.5,15.1-11
		C206.3,311.2,194.8,245.4,183.6,245.4z"/>
</g>
<g id="XMLID_5_">
	<g id="XMLID_7_">
		<rect id="XMLID_8_" x="258.4" y="212.8" class="st4" width="8" height="49.4"/>
	</g>
	<path id="XMLID_6_" class="st5" d="M262.4,133.5c-11,0-22.6,65.8-15.1,83.2c3.7,8.6,10.2,11,15.1,11c5.1,0,11.4-2.5,15.1-11
		C285,199.3,273.5,133.5,262.4,133.5z"/>
</g>
<g id="XMLID_22_">
	<g id="XMLID_24_">
		<rect id="XMLID_25_" x="225.2" y="114" class="st4" width="7" height="38.6"/>
	</g>
	<path id="XMLID_23_" class="st5" d="M228.7,52c-9.6,0-19.8,51.5-13.2,65.1c3.2,6.7,9,8.6,13.2,8.6c4.4,0,10-1.9,13.2-8.6
		C248.5,103.5,238.4,52,228.7,52z"/>
</g>
<g id="XMLID_26_">
	<g id="XMLID_28_">
		<rect id="XMLID_29_" x="225" y="353.9" class="st4" width="7.4" height="35.2"/>
	</g>
	<path id="XMLID_27_" class="st5" d="M228.7,297.4c-10.2,0-20.9,46.9-14,59.3c3.4,6.1,9.5,7.9,14,7.9c4.7,0,10.5-1.8,14-7.9
		C249.6,344.3,238.9,297.4,228.7,297.4z"/>
</g>
</svg>
