<?xml version="1.0" encoding="utf-8"?>
<!-- Generator: Adobe Illustrator 22.0.0, SVG Export Plug-In . SVG Version: 6.00 Build 0)  -->
<svg version="1.1" id="Layer_1" xmlns="http://www.w3.org/2000/svg" xmlns:xlink="http://www.w3.org/1999/xlink" x="0px" y="0px"
	 viewBox="0 0 460 460" style="enable-background:new 0 0 460 460;" xml:space="preserve">
<style type="text/css">
	.st0{fill:#E6E6E7;}
	.st1{fill:#BEBCB2;}
	.st2{fill:#A5AA61;}
	.st3{fill:#8A9249;}
	.st4{fill:#9FCBA5;}
	.st5{fill:#2B7B57;}
</style>
<path id="XMLID_10_" class="st0" d="M310.2,76.3l127.1-23.8c11.8-2.2,22.7,6.8,22.7,18.8v344.3c0,9.2-6.6,17.1-15.6,18.8
	l-134.2,25.2c-2.3,0.4-4.7,0.4-7.1,0l-146.3-27.4c-2.3-0.4-4.7-0.4-7.1,0L22.7,456.1C10.9,458.3,0,449.2,0,437.2V92.9
	c0-9.2,6.6-17.1,15.6-18.8l134.2-25.2c2.3-0.4,4.7-0.4,7.1,0l146.3,27.4C305.5,76.8,307.9,76.8,310.2,76.3z"/>
<path id="XMLID_1097_" class="st1" d="M306.7,76.7V460c-1.2,0-2.4-0.1-3.5-0.3l-146.3-27.4c-1.2-0.2-2.4-0.3-3.5-0.3V48.6
	c1.2,0,2.4,0.1,3.5,0.3l146.3,27.4C304.3,76.6,305.5,76.7,306.7,76.7z"/>
<path id="XMLID_1095_" class="st2" d="M317.3,114l104.4-19.6v305.3l-115,21.6l-142.7-26.8c-3.5-0.7-7.1-1-10.6-1s-7.1,0.3-10.6,1
	L38.3,414.1V108.8l115-21.6L296.1,114h0C303.1,115.3,310.2,115.3,317.3,114z"/>
<path id="XMLID_1094_" class="st3" d="M306.7,115v306.3l-142.7-26.8c-3.5-0.7-7.1-1-10.6-1l0,0V87.3L296.1,114h0
	C299.6,114.7,303.1,115,306.7,115z"/>
<g id="XMLID_1033_">
	<g id="XMLID_1034_">
		<rect id="XMLID_1035_" x="361.8" y="300.4" class="st4" width="13.5" height="63.7"/>
	</g>
	<path id="XMLID_1036_" class="st5" d="M368.5,198.1c-18.5,0-38.1,84.9-25.4,107.3c6.3,11,17.3,14.2,25.4,14.2
		c8.5,0,19.2-3.2,25.4-14.2C406.6,283.1,387.2,198.1,368.5,198.1z"/>
</g>
<g id="XMLID_1_">
	<g id="XMLID_3_">
		<rect id="XMLID_4_" x="115.5" y="132.4" class="st4" width="8" height="49.4"/>
	</g>
	<path id="XMLID_2_" class="st5" d="M119.5,53.1c-11,0-22.6,65.8-15.1,83.2c3.7,8.6,10.2,11,15.1,11c5.1,0,11.4-2.5,15.1-11
		C142.2,118.9,130.6,53.1,119.5,53.1z"/>
</g>
<g id="XMLID_9_">
	<g id="XMLID_12_">
		<rect id="XMLID_13_" x="243" y="246.7" class="st4" width="15.5" height="55.1"/>
	</g>
	<path id="XMLID_11_" class="st5" d="M250.8,158.2c-21.4,0-44,73.5-29.3,92.8c7.2,9.5,19.9,12.3,29.3,12.3c9.8,0,22.1-2.8,29.3-12.3
		C294.7,231.7,272.3,158.2,250.8,158.2z"/>
</g>
<g id="XMLID_14_">
	<g id="XMLID_16_">
		<rect id="XMLID_17_" x="83.5" y="245.4" class="st4" width="8" height="49.4"/>
	</g>
	<path id="XMLID_15_" class="st5" d="M87.5,166.1c-11,0-22.6,65.8-15.1,83.2c3.7,8.6,10.2,11,15.1,11c5.1,0,11.4-2.5,15.1-11
		C110.2,231.9,98.6,166.1,87.5,166.1z"/>
</g>
<g id="XMLID_18_">
	<g id="XMLID_20_">
		<rect id="XMLID_21_" x="129" y="324.7" class="st4" width="8" height="49.4"/>
	</g>
	<path id="XMLID_19_" class="st5" d="M133,245.4c-11,0-22.6,65.8-15.1,83.2c3.7,8.6,10.2,11,15.1,11c5.1,0,11.4-2.5,15.1-11
		C155.7,311.2,144.1,245.4,133,245.4z"/>
</g>
<g id="XMLID_5_">
	<g id="XMLID_7_">
		<rect id="XMLID_8_" x="328.5" y="132.4" class="st4" width="8" height="49.4"/>
	</g>
	<path id="XMLID_6_" class="st5" d="M332.5,53.1c-11,0-22.6,65.8-15.1,83.2c3.7,8.6,10.2,11,15.1,11c5.1,0,11.4-2.5,15.1-11
		C355.2,118.9,343.6,53.1,332.5,53.1z"/>
</g>
</svg>
