<?xml version="1.0" encoding="utf-8"?>
<!-- Generator: Adobe Illustrator 22.0.0, SVG Export Plug-In . SVG Version: 6.00 Build 0)  -->
<svg version="1.1" id="Layer_1" xmlns="http://www.w3.org/2000/svg" xmlns:xlink="http://www.w3.org/1999/xlink" x="0px" y="0px"
	 viewBox="0 0 749.3 460" style="enable-background:new 0 0 749.3 460;" xml:space="preserve">
<style type="text/css">
	.st0{fill:#8A9249;}
	.st1{fill:#9FCBA5;}
	.st2{fill:#2B7B57;}
</style>
<rect class="st0" width="749.3" height="460"/>
<g id="XMLID_10_">
	<g id="XMLID_31_">
		<rect id="XMLID_32_" x="292.7" y="143" class="st1" width="10.4" height="43.1"/>
	</g>
	<path id="XMLID_30_" class="st2" d="M297.9,73.8c-14.3,0-29.5,57.5-19.6,72.7c4.8,7.5,13.4,9.6,19.6,9.6c6.5,0,14.9-2.1,19.6-9.6
		C327.4,131.3,312.3,73.8,297.9,73.8z"/>
</g>
<g id="XMLID_1_">
	<g id="XMLID_3_">
		<rect id="XMLID_4_" x="347.4" y="135.8" class="st1" width="7" height="38.6"/>
	</g>
	<path id="XMLID_2_" class="st2" d="M350.9,73.8c-9.6,0-19.8,51.5-13.2,65.1c3.2,6.7,9,8.6,13.2,8.6c4.4,0,10-1.9,13.2-8.6
		C370.7,125.3,360.6,73.8,350.9,73.8z"/>
</g>
<g id="XMLID_5_">
	<g id="XMLID_7_">
		<rect id="XMLID_8_" x="406.3" y="146.8" class="st1" width="9.4" height="55.5"/>
	</g>
	<path id="XMLID_6_" class="st2" d="M411,57.6c-12.9,0-26.6,74.1-17.7,93.6c4.3,9.6,12.1,12.4,17.7,12.4c5.9,0,13.4-2.7,17.7-12.4
		C437.6,131.7,424,57.6,411,57.6z"/>
</g>
<g id="XMLID_14_">
	<g id="XMLID_16_">
		<rect id="XMLID_17_" x="474.9" y="141.6" class="st1" width="7" height="38.6"/>
	</g>
	<path id="XMLID_15_" class="st2" d="M478.4,79.6c-9.6,0-19.8,51.5-13.2,65.1c3.2,6.7,9,8.6,13.2,8.6c4.4,0,10-1.9,13.2-8.6
		C498.2,131.1,488.1,79.6,478.4,79.6z"/>
</g>
<g id="XMLID_37_">
	<g id="XMLID_39_">
		
			<rect id="XMLID_40_" x="254.4" y="252.1" transform="matrix(4.743383e-02 -0.9989 0.9989 4.743383e-02 5.4148 516.8343)" class="st1" width="38.6" height="7"/>
	</g>
	<path id="XMLID_38_" class="st2" d="M277.6,174.4c-9.6-0.5-22.2,50.5-16.3,64.4c2.9,6.8,8.6,9,12.8,9.2c4.4,0.2,10.1-1.4,13.6-8
		C294.9,226.8,287.2,174.8,277.6,174.4z"/>
</g>
<g id="XMLID_26_">
	<g id="XMLID_28_">
		<rect id="XMLID_29_" x="345.5" y="261.9" class="st1" width="10.9" height="43.5"/>
	</g>
	<path id="XMLID_27_" class="st2" d="M350.9,192c-14.9,0-30.7,58-20.5,73.4c5,7.5,14,9.7,20.5,9.7c6.8,0,15.5-2.1,20.5-9.7
		C381.6,250,366,192,350.9,192z"/>
</g>
<g id="XMLID_22_">
	<g id="XMLID_24_">
		<rect id="XMLID_25_" x="443.3" y="205.4" class="st1" width="7" height="38.6"/>
	</g>
	<path id="XMLID_23_" class="st2" d="M446.8,143.4c-9.6,0-19.8,51.5-13.2,65.1c3.2,6.7,9,8.6,13.2,8.6c4.4,0,10-1.9,13.2-8.6
		C466.6,194.9,456.5,143.4,446.8,143.4z"/>
</g>
<g id="XMLID_18_">
	<g id="XMLID_20_">
		<rect id="XMLID_21_" x="482.4" y="273.8" class="st1" width="7" height="38.6"/>
	</g>
	<path id="XMLID_19_" class="st2" d="M485.9,211.8c-9.6,0-19.8,51.5-13.2,65.1c3.2,6.7,9,8.6,13.2,8.6c4.4,0,10-1.9,13.2-8.6
		C505.7,263.3,495.6,211.8,485.9,211.8z"/>
</g>
<g id="XMLID_57_">
	<g id="XMLID_59_">
		<rect id="XMLID_60_" x="248.2" y="302.6" class="st1" width="7" height="38.6"/>
	</g>
	<path id="XMLID_58_" class="st2" d="M251.7,240.6c-9.6,0-19.8,51.5-13.2,65.1c3.2,6.7,9,8.6,13.2,8.6c4.4,0,10-1.9,13.2-8.6
		C271.5,292.1,261.4,240.6,251.7,240.6z"/>
</g>
<g id="XMLID_53_">
	<g id="XMLID_55_">
		<rect id="XMLID_56_" x="305.2" y="297.2" class="st1" width="7" height="38.6"/>
	</g>
	<path id="XMLID_54_" class="st2" d="M308.7,235.2c-9.6,0-19.8,51.5-13.2,65.1c3.2,6.7,9,8.6,13.2,8.6c4.4,0,10-1.9,13.2-8.6
		C328.5,286.7,318.4,235.2,308.7,235.2z"/>
</g>
<g id="XMLID_45_">
	<g id="XMLID_47_">
		<rect id="XMLID_48_" x="397.3" y="273.6" class="st1" width="7" height="38.6"/>
	</g>
	<path id="XMLID_46_" class="st2" d="M400.8,211.6c-9.6,0-19.8,51.5-13.2,65.1c3.2,6.7,9,8.6,13.2,8.6c4.4,0,10-1.9,13.2-8.6
		C420.6,263.1,410.5,211.6,400.8,211.6z"/>
</g>
<g id="XMLID_41_">
	<g id="XMLID_43_">
		<rect id="XMLID_44_" x="428" y="308.9" class="st1" width="7" height="38.6"/>
	</g>
	<path id="XMLID_42_" class="st2" d="M431.5,246.9c-9.6,0-19.8,51.5-13.2,65.1c3.2,6.7,9,8.6,13.2,8.6c4.4,0,10-1.9,13.2-8.6
		C451.3,298.4,441.2,246.9,431.5,246.9z"/>
</g>
</svg>
