<?xml version="1.0" encoding="utf-8"?>
<!-- Generator: Adobe Illustrator 22.0.0, SVG Export Plug-In . SVG Version: 6.00 Build 0)  -->
<svg version="1.1" id="Layer_1" xmlns="http://www.w3.org/2000/svg" xmlns:xlink="http://www.w3.org/1999/xlink" x="0px" y="0px"
	 viewBox="0 0 460 460" style="enable-background:new 0 0 460 460;" xml:space="preserve">
<style type="text/css">
	.st0{fill:#8A9249;}
	.st1{fill:#9FCBA5;}
	.st2{fill:#2B7B57;}
</style>
<rect x="0" class="st0" width="460" height="460"/>
<g id="XMLID_10_">
	<g id="XMLID_31_">
		<rect id="XMLID_32_" x="148.4" y="143" class="st1" width="10.4" height="43.1"/>
	</g>
	<path id="XMLID_30_" class="st2" d="M153.6,73.8c-14.3,0-29.5,57.5-19.6,72.7c4.8,7.5,13.4,9.6,19.6,9.6c6.5,0,14.9-2.1,19.6-9.6
		C183.1,131.3,168,73.8,153.6,73.8z"/>
</g>
<g id="XMLID_1_">
	<g id="XMLID_3_">
		<rect id="XMLID_4_" x="203.1" y="135.8" class="st1" width="7" height="38.6"/>
	</g>
	<path id="XMLID_2_" class="st2" d="M206.6,73.8c-9.6,0-19.8,51.5-13.2,65.1c3.2,6.7,9,8.6,13.2,8.6c4.4,0,10-1.9,13.2-8.6
		C226.4,125.3,216.3,73.8,206.6,73.8z"/>
</g>
<g id="XMLID_5_">
	<g id="XMLID_7_">
		<rect id="XMLID_8_" x="262" y="146.8" class="st1" width="9.4" height="55.5"/>
	</g>
	<path id="XMLID_6_" class="st2" d="M266.7,57.6c-12.9,0-26.6,74.1-17.7,93.6c4.3,9.6,12.1,12.4,17.7,12.4c5.9,0,13.4-2.7,17.7-12.4
		C293.3,131.7,279.7,57.6,266.7,57.6z"/>
</g>
<g id="XMLID_14_">
	<g id="XMLID_16_">
		<rect id="XMLID_17_" x="330.6" y="141.6" class="st1" width="7" height="38.6"/>
	</g>
	<path id="XMLID_15_" class="st2" d="M334.1,79.6c-9.6,0-19.8,51.5-13.2,65.1c3.2,6.7,9,8.6,13.2,8.6c4.4,0,10-1.9,13.2-8.6
		C353.9,131.1,343.8,79.6,334.1,79.6z"/>
</g>
<g id="XMLID_37_">
	<g id="XMLID_39_">
		
			<rect id="XMLID_40_" x="110.1" y="252.1" transform="matrix(4.743505e-02 -0.9989 0.9989 4.743505e-02 -132.0368 372.7114)" class="st1" width="38.6" height="7"/>
	</g>
	<path id="XMLID_38_" class="st2" d="M133.3,174.4c-9.6-0.5-22.2,50.5-16.3,64.4c2.9,6.8,8.6,9,12.8,9.2c4.4,0.2,10.1-1.4,13.6-8
		C150.6,226.8,142.9,174.8,133.3,174.4z"/>
</g>
<g id="XMLID_26_">
	<g id="XMLID_28_">
		<rect id="XMLID_29_" x="201.2" y="261.9" class="st1" width="10.9" height="43.5"/>
	</g>
	<path id="XMLID_27_" class="st2" d="M206.6,192c-14.9,0-30.7,58-20.5,73.4c5,7.5,14,9.7,20.5,9.7c6.8,0,15.5-2.1,20.5-9.7
		C237.3,250,221.7,192,206.6,192z"/>
</g>
<g id="XMLID_22_">
	<g id="XMLID_24_">
		<rect id="XMLID_25_" x="299" y="205.4" class="st1" width="7" height="38.6"/>
	</g>
	<path id="XMLID_23_" class="st2" d="M302.5,143.4c-9.6,0-19.8,51.5-13.2,65.1c3.2,6.7,9,8.6,13.2,8.6c4.4,0,10-1.9,13.2-8.6
		C322.3,194.9,312.2,143.4,302.5,143.4z"/>
</g>
<g id="XMLID_18_">
	<g id="XMLID_20_">
		<rect id="XMLID_21_" x="338.1" y="273.8" class="st1" width="7" height="38.6"/>
	</g>
	<path id="XMLID_19_" class="st2" d="M341.6,211.8c-9.6,0-19.8,51.5-13.2,65.1c3.2,6.7,9,8.6,13.2,8.6c4.4,0,10-1.9,13.2-8.6
		C361.4,263.3,351.3,211.8,341.6,211.8z"/>
</g>
<g id="XMLID_57_">
	<g id="XMLID_59_">
		<rect id="XMLID_60_" x="103.9" y="302.6" class="st1" width="7" height="38.6"/>
	</g>
	<path id="XMLID_58_" class="st2" d="M107.4,240.6c-9.6,0-19.8,51.5-13.2,65.1c3.2,6.7,9,8.6,13.2,8.6c4.4,0,10-1.9,13.2-8.6
		C127.2,292.1,117.1,240.6,107.4,240.6z"/>
</g>
<g id="XMLID_53_">
	<g id="XMLID_55_">
		<rect id="XMLID_56_" x="160.9" y="297.2" class="st1" width="7" height="38.6"/>
	</g>
	<path id="XMLID_54_" class="st2" d="M164.4,235.2c-9.6,0-19.8,51.5-13.2,65.1c3.2,6.7,9,8.6,13.2,8.6c4.4,0,10-1.9,13.2-8.6
		C184.2,286.7,174.1,235.2,164.4,235.2z"/>
</g>
<g id="XMLID_45_">
	<g id="XMLID_47_">
		<rect id="XMLID_48_" x="253" y="273.6" class="st1" width="7" height="38.6"/>
	</g>
	<path id="XMLID_46_" class="st2" d="M256.5,211.6c-9.6,0-19.8,51.5-13.2,65.1c3.2,6.7,9,8.6,13.2,8.6c4.4,0,10-1.9,13.2-8.6
		C276.3,263.1,266.2,211.6,256.5,211.6z"/>
</g>
<g id="XMLID_41_">
	<g id="XMLID_43_">
		<rect id="XMLID_44_" x="283.7" y="308.9" class="st1" width="7" height="38.6"/>
	</g>
	<path id="XMLID_42_" class="st2" d="M287.2,246.9c-9.6,0-19.8,51.5-13.2,65.1c3.2,6.7,9,8.6,13.2,8.6c4.4,0,10-1.9,13.2-8.6
		C307,298.4,296.9,246.9,287.2,246.9z"/>
</g>
</svg>
