<?xml version="1.0" encoding="utf-8"?>
<!-- Generator: Adobe Illustrator 22.0.0, SVG Export Plug-In . SVG Version: 6.00 Build 0)  -->
<svg version="1.1" id="Layer_1" xmlns="http://www.w3.org/2000/svg" xmlns:xlink="http://www.w3.org/1999/xlink" x="0px" y="0px"
	 viewBox="0 0 460 460" style="enable-background:new 0 0 460 460;" xml:space="preserve">
<style type="text/css">
	.st0{fill:#8A9249;}
	.st1{fill:#9FCBA5;}
	.st2{fill:#2B7B57;}
</style>
<rect x="0" class="st0" width="460" height="460"/>
<g id="XMLID_10_">
	<g id="XMLID_31_">
		<rect id="XMLID_32_" x="148.9" y="155.1" class="st1" width="7" height="38.6"/>
	</g>
	<path id="XMLID_30_" class="st2" d="M152.4,93.1c-9.6,0-19.8,51.5-13.2,65.1c3.2,6.7,9,8.6,13.2,8.6c4.4,0,10-1.9,13.2-8.6
		C172.2,144.6,162.1,93.1,152.4,93.1z"/>
</g>
<g id="XMLID_1_">
	<g id="XMLID_3_">
		<rect id="XMLID_4_" x="198.9" y="155.1" class="st1" width="7" height="38.6"/>
	</g>
	<path id="XMLID_2_" class="st2" d="M202.4,93.1c-9.6,0-19.8,51.5-13.2,65.1c3.2,6.7,9,8.6,13.2,8.6c4.4,0,10-1.9,13.2-8.6
		C222.2,144.6,212.1,93.1,202.4,93.1z"/>
</g>
<g id="XMLID_5_">
	<g id="XMLID_7_">
		<rect id="XMLID_8_" x="249.5" y="155.1" class="st1" width="7" height="38.6"/>
	</g>
	<path id="XMLID_6_" class="st2" d="M253,93.1c-9.6,0-19.8,51.5-13.2,65.1c3.2,6.7,9,8.6,13.2,8.6c4.4,0,10-1.9,13.2-8.6
		C272.8,144.6,262.7,93.1,253,93.1z"/>
</g>
<g id="XMLID_9_">
	<g id="XMLID_12_">
		<rect id="XMLID_13_" x="294.9" y="155.1" class="st1" width="7" height="38.6"/>
	</g>
	<path id="XMLID_11_" class="st2" d="M298.4,93.1c-9.6,0-19.8,51.5-13.2,65.1c3.2,6.7,9,8.6,13.2,8.6c4.4,0,10-1.9,13.2-8.6
		C318.2,144.6,308.1,93.1,298.4,93.1z"/>
</g>
<g id="XMLID_14_">
	<g id="XMLID_16_">
		<rect id="XMLID_17_" x="345.9" y="155.1" class="st1" width="7" height="38.6"/>
	</g>
	<path id="XMLID_15_" class="st2" d="M349.4,93.1c-9.6,0-19.8,51.5-13.2,65.1c3.2,6.7,9,8.6,13.2,8.6c4.4,0,10-1.9,13.2-8.6
		C369.2,144.6,359.1,93.1,349.4,93.1z"/>
</g>
<g id="XMLID_37_">
	<g id="XMLID_39_">
		<rect id="XMLID_40_" x="129.3" y="228.9" class="st1" width="7" height="38.6"/>
	</g>
	<path id="XMLID_38_" class="st2" d="M132.8,166.9c-9.6,0-19.8,51.5-13.2,65.1c3.2,6.7,9,8.6,13.2,8.6c4.4,0,10-1.9,13.2-8.6
		C152.6,218.4,142.5,166.9,132.8,166.9z"/>
</g>
<g id="XMLID_33_">
	<g id="XMLID_35_">
		<rect id="XMLID_36_" x="179.3" y="228.9" class="st1" width="7" height="38.6"/>
	</g>
	<path id="XMLID_34_" class="st2" d="M182.8,166.9c-9.6,0-19.8,51.5-13.2,65.1c3.2,6.7,9,8.6,13.2,8.6c4.4,0,10-1.9,13.2-8.6
		C202.6,218.4,192.5,166.9,182.8,166.9z"/>
</g>
<g id="XMLID_26_">
	<g id="XMLID_28_">
		<rect id="XMLID_29_" x="229.9" y="228.9" class="st1" width="7" height="38.6"/>
	</g>
	<path id="XMLID_27_" class="st2" d="M233.4,166.9c-9.6,0-19.8,51.5-13.2,65.1c3.2,6.7,9,8.6,13.2,8.6c4.4,0,10-1.9,13.2-8.6
		C253.2,218.4,243.1,166.9,233.4,166.9z"/>
</g>
<g id="XMLID_22_">
	<g id="XMLID_24_">
		<rect id="XMLID_25_" x="275.3" y="228.9" class="st1" width="7" height="38.6"/>
	</g>
	<path id="XMLID_23_" class="st2" d="M278.8,166.9c-9.6,0-19.8,51.5-13.2,65.1c3.2,6.7,9,8.6,13.2,8.6c4.4,0,10-1.9,13.2-8.6
		C298.6,218.4,288.5,166.9,278.8,166.9z"/>
</g>
<g id="XMLID_18_">
	<g id="XMLID_20_">
		<rect id="XMLID_21_" x="326.3" y="228.9" class="st1" width="7" height="38.6"/>
	</g>
	<path id="XMLID_19_" class="st2" d="M329.8,166.9c-9.6,0-19.8,51.5-13.2,65.1c3.2,6.7,9,8.6,13.2,8.6c4.4,0,10-1.9,13.2-8.6
		C349.6,218.4,339.5,166.9,329.8,166.9z"/>
</g>
<g id="XMLID_57_">
	<g id="XMLID_59_">
		<rect id="XMLID_60_" x="103.9" y="302.6" class="st1" width="7" height="38.6"/>
	</g>
	<path id="XMLID_58_" class="st2" d="M107.4,240.6c-9.6,0-19.8,51.5-13.2,65.1c3.2,6.7,9,8.6,13.2,8.6c4.4,0,10-1.9,13.2-8.6
		C127.2,292.1,117.1,240.6,107.4,240.6z"/>
</g>
<g id="XMLID_53_">
	<g id="XMLID_55_">
		<rect id="XMLID_56_" x="153.9" y="302.6" class="st1" width="7" height="38.6"/>
	</g>
	<path id="XMLID_54_" class="st2" d="M157.4,240.6c-9.6,0-19.8,51.5-13.2,65.1c3.2,6.7,9,8.6,13.2,8.6c4.4,0,10-1.9,13.2-8.6
		C177.2,292.1,167.1,240.6,157.4,240.6z"/>
</g>
<g id="XMLID_49_">
	<g id="XMLID_51_">
		<rect id="XMLID_52_" x="204.5" y="302.6" class="st1" width="7" height="38.6"/>
	</g>
	<path id="XMLID_50_" class="st2" d="M208,240.6c-9.6,0-19.8,51.5-13.2,65.1c3.2,6.7,9,8.6,13.2,8.6c4.4,0,10-1.9,13.2-8.6
		C227.8,292.1,217.7,240.6,208,240.6z"/>
</g>
<g id="XMLID_45_">
	<g id="XMLID_47_">
		<rect id="XMLID_48_" x="249.9" y="302.6" class="st1" width="7" height="38.6"/>
	</g>
	<path id="XMLID_46_" class="st2" d="M253.4,240.6c-9.6,0-19.8,51.5-13.2,65.1c3.2,6.7,9,8.6,13.2,8.6c4.4,0,10-1.9,13.2-8.6
		C273.2,292.1,263.1,240.6,253.4,240.6z"/>
</g>
<g id="XMLID_41_">
	<g id="XMLID_43_">
		<rect id="XMLID_44_" x="300.9" y="302.6" class="st1" width="7" height="38.6"/>
	</g>
	<path id="XMLID_42_" class="st2" d="M304.4,240.6c-9.6,0-19.8,51.5-13.2,65.1c3.2,6.7,9,8.6,13.2,8.6c4.4,0,10-1.9,13.2-8.6
		C324.2,292.1,314.1,240.6,304.4,240.6z"/>
</g>
</svg>
