<?xml version="1.0" encoding="utf-8"?>
<!-- Generator: Adobe Illustrator 22.0.0, SVG Export Plug-In . SVG Version: 6.00 Build 0)  -->
<svg version="1.1" id="Layer_1" xmlns="http://www.w3.org/2000/svg" xmlns:xlink="http://www.w3.org/1999/xlink" x="0px" y="0px"
	 viewBox="0 0 800 582" style="enable-background:new 0 0 800 582;" xml:space="preserve">
<style type="text/css">
	.st0{fill:#2E7D32;}
</style>
<g id="haiti">
	<path class="st0" d="M761.2,109.5l-1.1,2.9l1.9,0.2l-0.2,0.7l-1.1,0.6l1.4,0.7l-0.4,0.9l0.4,0.4l-0.6,0.9l1.1,0.5l1.6,1.9l1,1h1
		l1.3,1l0.7,4.2l-3.7,3.5l0.1,5.5l0.7,8.1l5.2,5.2l-0.1,0.3l0.1,1l0.6,0.2l-0.4,0.7l0.8,0.1l2,1.7l0.3,1.1l-0.2,3.8l0.3,0.4l1.1,0.3
		l0.9-0.8l0.5,0.3l-0.2,2.9l0.3,0.6h0.8l-0.2,1.9l0.5,0.7h1l0.6,0.2l0.9-0.9l0.6,0.9l-0.4,1.1l0.4,1.3l-1.1,2.3l0.3,0.8l-0.7,0.6
		v4.1l3.6,7.6l-2.7,9.4l-2.3,5l1.9,7.4l-0.6,1.8l-1.9,0.7l-1-1.6l-2.5-1.1l-2.1,2.2l-1.3-0.9l-5.5,2.9l-1.7,3.6l-6.1,0.9l-3.4,2.2
		l4.8,3.2l1.7,4.5l1.3,1.1l-1,2.2l1.5,0.7l0.6,2.3l1.9,1.4l2.1-0.4v2.3l1.7,1.1l1.5-3.2l0.8,2.2l4,2.5l1,2.5l7.1,4.3l3.8,0.7
		l7.3,0.9l3,5.1l-0.7,0.9l1.9-0.2l1,0.2l-0.7,1.2l-1.1-0.8l-1.4,0.2l-1.1,1.1l-0.1,2.2l1,1.2l1,0.1l0.8,0.7l0,1.1l-2.1-0.1l-0.5,1
		l-1.7-0.2l-0.9,0.7l3.4,2.2l-3.1,0.4l-0.4,1l1.3,2.1l-0.6,0.3l0.2,0.5l-0.8,0.2l1.7,1.5l-0.1,0.5l-4.1,0.8l0.9,1.2l1.6,0.9l-2,5.2
		l-2.5,1.1l-2-1l-0.7,1l-1.5-0.9l-1.1,0.2l0.5,1.6l-1.3,1.5L778,275l-2.4,2.3l1.9,1.4l0.9,1.6l-1.9,1.5l-1.9-0.1l-0.4,1.1l1.9,1.3
		l0.7,1l-2,1.4l-0.5-0.9l-1.5,0.2L772,287l0.9,0.8l-0.1,0.9h-1l-0.8,1.7l-4,0.9l-0.1,1.2l-1.2,0.5l-1.4-0.8l-1.4,0.2l-0.7,1.4
		l-2.3,1.9l0.8,1.3l-0.8,0.9l-1.2-1.5l-0.8,0.1l-3.5,4l1.5,0.2l0.3,0.9l-1,0.5l-1.3-0.3l-1.2,1.3l-0.5,1.8l1.5,1l-1,1.3l-2.1-0.7
		l-0.7-2.5l-1.8,0.1v1.2l-6.1,1.5l-1.3-3.1l-0.9,1.2l-1.8,0.8l-0.8,1.8l-2.2,0.1l-0.8,2.7l-0.4,1h-1.5l-0.6-1.3l-1.2,1l0.5,0.8
		l-3,1.7l0.7,1.4l-0.2,2l-1.5,0.3l-1.1-0.5l0.5,2.3v2.3l1,0.3l1.3-1.8l2.1,0.4l1.9-0.4l-0.5-2.2l0.8-2.3l1.2,1.6l0.3,0.9l1.3-2.3
		l1.5,1.9l0.8-0.5l-0.7-1.3l1.7-1.5l0.5-0.3l0.5,1.7l1.9-1.4l1.4-0.1l-1,0.9l2.2,0.7l0.7-0.7l0.7,0.4l0,0.8l1.8,0.5l1,0.3l-0.1,0.9
		l1.3-0.7l0.6,0.2l0.4,0.9l0.9-1.2l1.2,0.5l1.7,0.3l-0.3,1.4l4,11.8l2,0.3l6.1,4.2l0.9,1.9l-0.4,1.8l2.8,0.2l0.4-0.5l1,0.2l-0.6,0.8
		l-0.7,4.9l0.4,2.4l-0.2,2.1l1.5,2.6l-0.5,1.9l0.1,6l-2,9.5l-2.4,13.2l-12.7,4.3l-0.6,4.3l-1.9,0.5l-1-0.7l-2.2,1.7l0.5,1.8
		l-0.4,2.9l-1.6,2.3l0.4,3.3l0.3,3.9l-1.5,0.4l-0.8,1l-3.4-0.7l-4.5,1.1l-2.7-1.9l-4.1-0.5l-1.2,2.2l-1.9,0.6l-1.5-2.6l-5.8-3.3
		l-2.5,0.3l-3.1,3.6l-6-3.9l-1.3-0.4l-4-1.7l-2.6,2.8l-1,2.4l-5,1.9l-2.6,1.5l2,1.9l2.1,0.3l1.7-0.3l1.6,2.5l1.1,1.1l2.5,0.5
		l3.2,6.9l20.8,21.1v3.8l-9.3,1.3l2.6,7.8l8,3.4l3,2.1l5.9,2.2l3.9,8.4l7.5,1.6l-0.3,1.4l2.4,3l28,10.4l-17.5,28.5v2.8l-2.6,2
		l-1.7,4.7l0.2,1.5l-3,1.9l-1.2,2.4l0.3,2.3l2.9,2.4l2.9-0.5l-0.4,1.9l1.7,1.6l0.9,2.6l1-0.1l0.6,1.1l1.4-1.9l0.3,1.8l-0.9,0.8
		l1.4,0.8l0.6,1.7h-1.1l0.5,1.4H764l0.5,1.1l-0.9,2.5l1.3,3.9l1.7-0.4l0.6,1.4l-0.9,1.5l1.2,3l-1,0.7l-0.1,2.6l-1.3,0.5l-0.2,3.3
		l-3.1,3l-0.6,3l-0.9,0.7l-19.6-13.9l-29.4-29l-24.1-5.5l-8.8-4l-80.3-1.1l-53.5,4l1.5,8.7l-11.8,3.3l-21.8-4l-22.5,3.3l-1.2,4.7
		l-11.8,2.9h-30.6l-37.5-7.6l-42.8-8.7l-32.1-3.6v-3.3l-23.3,4.3l-13.8-1.1l-40.5,2.5h-14.5h-13.4l-6.9,0.7l-20.3,10.2l-14.5,8.3
		l-1.2,5.1l9.6,6.5l3.8,8.7l0.8,6.5l-6.1,7.3l-29.8-1.5l-8-6.5l-11.1-24.3L117.2,524l-29.8-16.3l-20.6-6.9l-17.6,6.9l-22.9-5.8
		L6.7,485.6L1,463.5l6.5-24.3l8-31.5l11.5-6.5l22.9-5.8l19.9-4.4l14.1-0.4l17.6,6.2l13.8,3.3l11.5,8.3l12.6,1.8l33.6,6.9l10.3,3.6
		l11.9,6.1l10.9,2.7l5.2-4.9l7.8-2l7.8-1.1l5.9,0.7l12.4-3.3l8-0.9l7.3,0.9v5.1l-3.4,4.7l-5,3.1l-14.1-1.3l-1.5,4.7l2.5,4l8,0.5
		l6.7-1.3l5.7-4.7h5.5l16.4,2l9.7-0.5l14.7,2.5l10.7,2l10.1,2.9l17.6,5.8l13.6-2.4l18.5,2.4l12.6,5.3l4.2,2.7l5.4-5.4l14.1,0.4
		l9,0.7l17,2.7l13.6,2.7l14.5,1.1l13,2.5l10.3-1.1l8.6-3.1l5-5.8l5.2-12.7l7.1-10.5l8.8-3.6l14.1-0.4l7.5,5.4l19.9-0.2l12.8-3.6
		l11.5,4.7l3-10.5l-1.5-9l6.5-12l-16.1-9l-19.5-2.5l-4.2-11.6l-18-4.7l-13.8-18.5l-10.7-11.6l-11.5-13.4l-19.5-6.9l-3.8-15.2
		l-21.4-9l0.8-13.4l9.2-6.1l18-1.1l3.4-4.3l-13.4-5.8L466.4,245l5.7-12.3l3.1-9.4l7.3-0.7l-11.1-17.3l5.7-9.7l9.9,0.7l-5.3-9.4
		l-12.6-10.1l-10.7-14.1l-36.7-15.8l-20.6-9.7l-14.5-4.3l-6.9,4.7l-23.3-9.7l-5.7,5.4l-21,1.4l-22.2-1.4L288,118.9l-6.1-13.3
		l4.2-21.6l7.3-5l3.1-6.8l9.6-5.8l18.3,0.4l39-21.6l17.2-2.2l25.6,0.4l34-2.9l28.7-5.7L520.3,48l8.4,4.7h9.6l17.6,10.4l12.2,6.8
		l17.2,4l11.1,4.7l5.3,9.7l16.8-5l14.9-1.1l11.8,1.8l8,6.1l14.9,1.4l14.5,4.7l11.5,2.2l9.2-2.2l17.6,2.9l18,0.7l15.7,2.5l9.2,1.4
		L761.2,109.5z"/>
	<path class="st0" d="M422.2,8.4l12.1-4.3l18.4-2.8l5.5,0.4L470.2,1l7.6,3.4l8.7,3.4l10.5,2.8l8.5,3.2l6.3,2.7l6.7,5.6l3.1,4.3
		l1,1.8l-4.7,1.8l-6.7-0.6l-3.3-0.5l-10.8-0.7l-3.3-1.3l-11.6-2.4l-3.1-1.3l-3-0.6l-11.7-2.9l-10.3-0.1l-7-1.3l-13.9-4.5l-6.6-0.4
		l-4-3.1L422.2,8.4z"/>
	<path class="st0" d="M365.4,312.7l16.2,9l14.7,2.2l8.6,3.1l15.1,7.9l5.9,5.4l17.6,2.9l11.8,4.9l4.2,0.9l11.6,15.9l1.1,7l2.7,6.7
		l-6.1,3.8l3.6,6.1l-7.1,4l-6.5-2.5l-0.8-5.1l-21.8-6.1l-22.7-1.3l-12.6-4.7l-8.8-9.8l-9.2-2.7l-5.4-3.4l-16.4-4l-5.9-0.2l-7.8-4.5
		l-8.2-10.3l-9-6l-0.2-8.9l5.7-7.2l6.9-2.5l9.6-1.3l13.8,0.2L365.4,312.7z"/>
	<path class="st0" d="M220.4,551.4l8.3,3l5.7,4.1l4.4,0.1l7-4.5l5.7,1.9l5.3,5.8l2.1,5.7l-10.3,2.5l-14.3-1.5l-4.4-0.4l-4.1-1
		l-3-5.3l-2-2.4l-3.8-2.5l0.9-3.5l1.1-1.7L220.4,551.4z"/>
	<path class="st0" d="M241.3,543.8l0.3,0.1l0.2,0l0.4,0.2l-0.3,0.1l-0.4,0l-0.1,0l-0.4,0.1l-0.1-0.1l0-0.2l0-0.1l0.2-0.2l0.2-0.1
		L241.3,543.8z"/>
	<path class="st0" d="M194.5,408.5l8.3-5.3l6.6,1l5.4,2.2l6.5,1.4l1.1,5.2l-1.5,3.8l-9.1,5.1l-3.6,0.6l-3.3-2.2l-2.5-1l-2.8,0.7
		l-5.2-2.3l-2.1-1.7l-3.9-0.4l-0.9-1.4l1.7-2.6l3.4,0.4l1.1-2.4L194.5,408.5z"/>
</g>
</svg>
