<?xml version="1.0" encoding="utf-8"?>
<!-- Generator: Adobe Illustrator 22.0.0, SVG Export Plug-In . SVG Version: 6.00 Build 0)  -->
<svg version="1.1" id="Layer_1" xmlns="http://www.w3.org/2000/svg" xmlns:xlink="http://www.w3.org/1999/xlink" x="0px" y="0px"
	 viewBox="0 0 800 936" style="enable-background:new 0 0 800 936;" xml:space="preserve">
<style type="text/css">
	.st0{fill:#2E7D32;}
</style>
<g id="kenya">
	<path class="st0" d="M799,64.9l-4,6l-0.4,1l-54.7,76.4l-32.4,31.6l0.6,365.3l56.5,76.6l0.4,6.9l-4.8,5.2l-1.3,2.3l0,1l2.2-1
		l0.1,1.2l-2.4,2.1l-0.9,1.9l-1,1.9l-2.4,1.3l-1.9,2.6l-3.7,3.9l-4,3.5l-2.1,2.2l-4.3,4.5l-2.1,3l-1.6,1.6l-2.2,1.1l-1.1-0.6
		l2.2-2.9l2.1-2.1l0.2-2.7l-0.7-0.6l-1.5,1.3l-1.7-1.1l-1.3-2.7l-1.8-0.2l-0.2,1.7l0.1,2.1l0.1,1.6l1,0.8l0.9,1.6l0.2,1.1l-1.1,0.1
		l-1.4-1l0-1.3l-0.1-0.3l-1.8,0.4l-1.3-0.3l-0.5-1.3l0.8-0.5l-2-0.1l-1.7,1.2l-2.6,0.7l-1.6,1.3l-1.2,1l-1.6,0.4l-1.1,1.5l-1.3,1.4
		l-1.9,0.2l-1.7-0.5l-1.7-1.7l-0.1,1.1l0.5,1.5v1.7l-1.9,0.6l-1.7,0.2l-1-0.5l-0.9-0.9l0.1-1.5l-1-0.4l-0.6,0.5l0.1,2.1l0.6,1.7
		l0.3,2.3l-0.4,1.2l0.6,1.3l-0.1,1.9l-0.4,1.9l0.3,1.9l0.3,1.2l0.8,0.7l0.9,0.1l0.7,0.6l0.2,0.4l0.8-0.9l0.8-0.3l0.8-0.2l0.7,0.2
		l0.3,0.6l0.7,0.1l0.2,0.8l-0.6,0.5l-0.8-0.7l0.1,0.8l0.4,0.7l0.5,0.6l0.1,0.7l0.1,0.9l-1.7,1.6l-0.5,1.4l-1.1,1.5l-2.2,1.3
		l-1.8,0.1l-1.4-0.9l-0.6-1.5l-3.3,0.9l-2.2,1.1l-1.6,1.9h-1.2l-0.5,1.1l1.5,0.9l0.3,2.3l-0.5,1.7l-4,2.9l-0.9,2.7l-3.2,0.3
		l-5.2,3.4l-5.1,5.1l-3.1,1.7l-8.3-2.1l-9,1.7l-15.2,8.5l-8.2,10.4l-0.5,6.9l-1.4,11.4l2.6,4.1l4-0.7l0.8,3.4l-5.8,4.9l-2.1,6.3
		l-2.2,6.8l-1.1,4.9l-0.3,6.6l-15.9,10.7l-7.3,18.1l-2.3,6.6v6.1l-10,25.3l-13.2,19.4L564,907.7l-3.2-0.1l-4,8.3l-1.4,5.7l-3.6,0.1
		l-0.7,4.1l1,6.6l-7.3,2.7l-0.7-3.6l3.3-0.5l-1-2.3l-4.5,0.8l-1.5-2.7l-2.7-1.4l-0.1-2.9l-0.9-0.8l-2.7,1.5l-0.5,1.1l-0.1,1.3
		l-0.3,1.7l-1.4,1.5l-0.7,1l-0.5-0.4l-0.7-0.1l-0.2-0.4l-0.6-0.4l-0.4-0.2l-0.3-1l-138.2-97.2l-5.6-14.1l-6.2-3.8l-9,1.2l3-6
		l-4.3-0.8l3.6-5.7l8.8-8.3l-1.1-10.4l-2.5-14.5L347,749.1l-33.3-17.8l-38.1-21.5l-38.4-21.7l-219-123.9l-3.8,2.4l-1.6-1.3l-0.5-2.8
		l-5.6-1l-3.3-0.3l-0.2-11.5l-0.4-8.2v-25.9l0.9-8.6l4.5-27.2l0.6-4.8L1,451.6l9.7-13.9l1.9-1.2v-1l1.8-0.9l-0.1-1.7l0.6-0.3
		l0.4-1.2l0.8-0.3l-0.1-1.4H17l2.9-2.5l0.5-1.6l0.8-1.4l-2.1-5.4v-2.8l2.8-1.9l0.1-3.2l0.6-0.6l-0.8-0.5l1.2-1.4l0.8-4.6l3.6-2.1
		l1.6-0.2l0.9-1.8l1,0.2l1.4-0.6l1.4,0.2l0.8-0.4l1.4,0.1l0-0.4l0.9-0.4l0.5-0.2l0.2,0.2l0-0.3l0.2,0.1l0.3-0.2l0.3-0.5l0-0.7
		l-0.2-0.3l0.4,0l-0.3-0.3l0.3-0.3l0-0.2l-0.4-0.9l0.1-0.6l0.4-0.2l0.5,0.1L39,394l0.3-0.3l0.2,0.1l-0.1-0.4l0.3-0.1l0.1-0.2l0.4,0
		l0.5-0.4l0.3,0l0.2-0.6l-0.4-0.4l0-0.8l-0.4-0.6l0.3-0.6l-0.1-0.4l0.3-2l0.4-1.1l0.7-0.5l5.2-1.4l1.8-1.9l2.3-0.7l-1-2.3l4-3.6
		l1-3.7l2.5-3.6l1.2-10.8l3.2-6.2l5.2,1.1l0.8-4.9l6.6-2.7l2.2-3.2l11.2-1.8l3.3-2.1l1.1-3v-3.1l-4.1-5.9l1.8-1.8l-0.7-3.7l4.1-3.4
		l2.9-8l3.2-1.9l4.3-2.3l5.2-8.6l0.8-13.6l-0.1-16.2l-1.6-2.2l-1.4-12.7l-6-29.7l4.7-5.5l-2.3-5.1l-2.5-0.8l-1.5-7.3l-1.9,1.9
		l-2.7-1.4l-7.1-10.6l1-5.9l-3.2-7.5l-4.9-4.5l-2.2,0.8l-3.6-0.4l-1-4l-3.7-1.1l-2.3-11.4v-5.6l-3.8-5.1l-3.8-0.4l-2.9-2.5l-1.4-1
		l-1.8-13.3l-3.7-5.9l-0.3-4.4l1.8-2.3l-2.7-4.6l3.6-0.7l2.3-2.3l1.2-15.6l-6-1.8l-1.8-4L45,89.2l-4.4,2.1l-6.2-6.8l-7.5,1.6
		l2.7-2.6l-3.4-0.9l2.3-2.5l5.1-0.5L31.8,75l-5.2,0.4L19,75.8l0.3-2.1l2.9-1.4l1.1-5.2L16,61.7l-0.7-1.9l3.6-1.4l-0.5-3.8l-2.8-2.5
		l-0.1-4l-3.3-5.5l-3-3l6.7-5.3L48.7,2.1L204.3,1v4.7l1.8,1.1l-0.8,2.6l9.2,8.9l18.4-0.4l1.8-0.4l4,1l27.3,0.3l8.1-0.9l1.6,1.2
		l18.5-0.5l11.1,4.4l6.7,3.1l1.1-1.2l3.8,3.6l2.6,1.5l3.8,4.2l37,23.5l46.8,32.4l2.3-0.1l1.6,2L414,95l8,6.8l6.2-1.1l26.1,1.8
		l7.3-2.5l0.1-2.7l5.1,4.3l4.3,0.5l5.2,1l1-2.6l4.1,4.9l19.6,6l4.7,0.1l0.3-2.1l5.8,2.5l1.4-1l3.4-1l1.2-1.1l3.4,2.2l3,0.7l1.4,1.9
		l2.9-0.3l1.4,1.7l9.9-0.3l2.9-1.8l0.7,2.9l8.4,0.7l2.3,0.7l5.1-0.8l2,5.5l3.7,1.1l3.7-9.4l17.4-17l10.2-21.1l32.5-17l18.8-6.2
		l2.9-2l28.7-12.5h2.9l3.7-3.3l1.9,0.3l6.2,3.7l2.5,1.6L697,42l2.6,5.6l6.9,2.2L718.9,64l10.4,4.7l4.1-1.4l10,1.6l0.5-2l2.8,1
		l1.5-1.1l4.1,1.4l6.7-1l0.8,0.1l3-2.5l3.6,1.4l5.5-1l3.4,1.2l4.8-2.5l7.8,1.1l2.2,1.8l2.9,0.5L799,64.9z"/>
	<path class="st0" d="M718.3,666.2l2,0.2l0.7,0.6l0.7-1l1.5-0.2l1.5,1l-0.8,0.5l-2.1-0.4l-0.1,0.7l1.1,0.1l0.9,0.8l1.1,0.5l1,0.8
		l-0.3,1.4l-1.1,1.1l-0.9,0.2l1.3,0.4l-0.4,0.9l-1.3,0.3l-1.6-0.5l-0.7-0.7l0.5-1.1l-0.9-0.2l-0.6,0.6l-0.4,0l0.4,0.7l0.4,0.8
		l-0.3,0.7l0.5,0.6l0.3,0.9l-1.6,0.8l-1.5-0.1l-1.4-0.8l-0.8,0.2l-1.2,0.1l-1.1-0.1l-0.5-0.8l0-0.4l-0.8,0.2l-0.3-0.3l-0.2,0.8
		l0.5,0.6l-0.1,0.7l-0.9-0.1l-0.4-0.3l-1.5,0.3l-1.1,0.7l-1,0.3l-0.7-0.3l-0.1-0.8l0.7-0.4l0.4-0.3l-0.2-1.4l-1.1-0.6l-0.1-1.1
		l1-0.6l1.1-0.3l0.7-0.8l0.5-0.1l0.4,0.3l0.3-0.3l0.5,0l1.1-0.4l1.3-0.3l1.5-0.1l0.9-0.3l0.6-0.4l0.7-0.1l0-0.5l-0.1-0.6l0.4-0.6
		l0.2-0.8l0.8-0.5L718.3,666.2z"/>
	<path class="st0" d="M713.7,677l1,0.2l0.5,0.5l0,0.6l-0.6,0.4l-0.5,0l-0.8-0.5l-0.2-0.4l0-0.3l0.3-0.3L713.7,677z"/>
	<path class="st0" d="M536.2,926.6l2.4,1.6l-1.6,0.7l-1-0.8l0.2-0.6l-0.2-0.5L536.2,926.6z"/>
</g>
</svg>
