<?xml version="1.0" encoding="utf-8"?>
<!-- Generator: Adobe Illustrator 22.0.0, SVG Export Plug-In . SVG Version: 6.00 Build 0)  -->
<svg version="1.1" id="Layer_1" xmlns="http://www.w3.org/2000/svg" xmlns:xlink="http://www.w3.org/1999/xlink" x="0px" y="0px"
	 viewBox="0 0 800 642" style="enable-background:new 0 0 800 642;" xml:space="preserve">
<style type="text/css">
	.st0{fill:#2E7D32;}
</style>
<g id="nigeria">
	<path class="st0" d="M2.9,500.8l-0.3-6.4l1.5-1.7l-1.3-1.5l2.6-3.4l-1.1-5.3l3.3-3.4l0.4-2l0.5-2.1L5,473l0.4-9.7l-2.2-1.3l1-4.6
		l2.6-1.5l-1.5-4.3l2.1-1.6L6,441.3l-0.6-11l3.5-0.3l-0.3-4.8l-3.5-2.9l-0.8-4.1l-0.7-0.8l1.1-9.8l-1.2-3.3L1,400l2.5-7.7l1.3-6.4
		l-0.1-3.3l1.1-1.1l0.2-3l-0.4-1.9l-1.8-0.9l-1.5-5.9l1.5-3.6l-0.5-2.6l1.8-1l1.4-2.7L6.1,359l0.8-1.5l-1.1-1.2l0.6-2.4l-0.6-2.3
		l0.3-2.8l-1.3-0.6l1.1-0.9l-0.8-0.5l1.3-1.6l-0.6-0.4l0.1-2.1l-1.3-2.3l1-1.7l1.2-0.2l-0.4-4.2l0.8-0.4l-1.1-2.4l1.9-1.9l-0.5-1.4
		l0.8-0.8L8,326.7l0.5-0.4l-0.8-0.5l0.4-0.2l-0.5-0.8l0.7-0.6l-0.8-0.5l0.9-1.3l-0.6-1l1.1-0.3l3.7,0.8l16.1-2.8l0.2-3.2l1.7-2.8
		v-2.7l2.3-3.1l-1-8.9l-0.6-2.2l1.3-3.4l2.4-1.1l4.4-6.3v-3l2-0.8l1.7,0.3l3.3-3l-2.4-2.9l0.1-3.2l2.2-2.5l7-2.3l3.4,0.5l3.2-2.8
		l-0.4-1.7l2.7-1.8l0.6-5.3l0.4-3.2l3.4-1.9l1-4.4l-2.7-1.1l-3.1-3.1l-0.8-2.3l3.3-8.2l-0.9-1.9l4.9-2l6.5,3.1l1.2-3.6l0.4-2.7
		l2-5.9l-0.4-7.4l-3.2-1.6l-2.7-6.6l1.6-6.4l-1.4-6.5l-2.3-1l0.6-6.7L58,175.9l-2.6-2.9l2.7-13.9l1.1-6.5l2.5-6.3l1.4,0.2l4.8-4.2
		l-0.6-3.7l-2.7-1.3l-0.7-5.8l4-3.9l-0.6-4l-2.7-5.4l1.5-7.5l1-1.4l-1.1-9.6l0.3-8.3l8-7.4l11.3-7.8l2.4-4.5l4.6-5.3l3.1-6.3
		l2.6-9.1l0.5-5.2v-8.2l-0.1-9.8h6.3l15-13.6L146.9,8l3.2,2.3l4.9,0.8l5.4-1.3l9.3,1.1l4.2-1.2l4.8-5.1l7.2-2.8l4.8-0.7l16.3,6.8
		l17.4,5.8l8,3.2l5.1-1.9l2.9,0.2l10,4.8l17.8,17.4l8,13.1l7.8,9.3l7.9,0.1l4.5-1.2l6.4-7.3l2.9,0.4l8.1,1.5l4.1-1.2l17.2-10.4
		l7-4.6l8,1l9.1,1.3l5.6,2.5l2.6,2.8l3.8,1.1L382.6,56l4.6-1.3l4.3,2l4.2,2.6l2,4.4l16.4,5.1l5.4,2.1l5.6-0.1l14.9,1l3.8,0.7
		l3.7-0.7l17.7,0.8l9.5-10.3l2.2-4l3.8-1.7L488,48l13.2-6l17.2-1.2l13.2-4.9l53-1.4l9.7,2.4l4.5,3.1l14.3,2.9l9.1,5.6l1.3,2.2l6.9,2
		l1.7,0.5l0.6-1.7l1.4-0.1l2.3,1.1l1.8-0.4l0.9,2l1.4-1l2.4,1.1l3.9,0.4l3.9,0.5l1.7,0.6l0.9-2.3l0.5-2.7l1.5-1l1.2,0.5l0.9-1.6
		l0.2-1.3l0.3-1.1l-1,0.4l-0.7-0.8l0.1-0.8l0.9,0.8l0.4-1l-0.2-0.3l1.4-0.3l-0.5-0.7l0.2-0.7l1-0.3l-0.4-0.3l0.2-0.9l0.6,0.2
		l0.1,0.6l0.2-0.9l-0.9-0.3L660,41l0-0.4l0.4,0.6l0.9-0.2l0.2,0.4l0.9-0.1l0.9-1.2l0.4-0.6l0,0.8l0.3,0.1l-0.2,0.2l0.5,0.1l0.3-0.3
		l0.6,0.4l0.2,0.8l0.5-0.2l1-1.8l-0.6-1.1l1.2,0l0.6,0.9l0.7-0.2l-0.8-1l2-0.2l0-0.8l-0.4,0l0.3-0.9l1.5-1.2l0.1-1l0.6-0.4l0.4,0.9
		l1.3-0.1l-0.8-1.2l1.5-0.5l0.6-0.1l0.3-0.4l0.2,0.1l-0.4,0.4l0.5,0.1l0.3-0.3l-0.3-1l-1-0.3l0-0.3l0.7,0.1l0.4-0.5l0,0.1l0.5-0.2
		v-0.5l0-0.5l0.2,0.1l0,0.8l0.5,0l0.5-0.1l0.4,0.2l-0.4-0.9l0.3-0.9l-0.2-0.4l-0.8-0.1L677,28l0.3,0.1l0.2-0.6l0.2-0.1l-0.1,0.3
		l0.4,0.1l0.8,0.6L679,28l-0.5-0.7l0.3-0.7l1.1,0l0.3,0.3l-0.2,0.2l0,0.2l0.6-0.2v0.4l0.3-0.1l0.1-0.1l0.8,0l0.4-0.1l0.1-0.4
		l0.6-0.4l-0.1-0.2l0.8-0.3l-0.1,0.2l0.5,0.6l0.5-0.3l-0.4-0.7l0.2-0.6l0.6,0.5l0.2-0.3l0.4,0.3l0.2-0.5l0.5,0.3v0.2l0.7-0.3
		l0.3,0.2l-0.1,0.4l0.4,0.1l0.6-1.2l0.6-0.6l1.2,0.6l0.1,0.5l-0.1-0.9l0.1-0.7l0.4,0.4l0.9-0.7l0.2,0.1l0.5,0.8l-0.2,0.1l-0.2-0.3
		l-0.4,0.3l0,0.4l0.9,0.2l0.4,0.3l0.5-0.1l0,0.3l0.3-0.3l0.6-0.7L694,24l0.4,0l0.4,0.6l0.8,0.7l0.3-0.1l-0.2-0.3l0.1-0.2l0.1,0
		l-0.3-0.6l0.3-0.3l0.8,0.2l0.3-0.6l0.3,0l-0.4,0.5l0.2,0.4l-0.3,0.1l-0.1,0.9l0.4,0.2l0.7,0l0.1-0.5l0.3-0.2l0-0.4l0.5,0.1l0.9-0.4
		l0.3,0.4l-0.1,0.5l0.6,0.7l0.3,0l0.2-0.3l-0.4-0.3l0-0.4l0.5,0l0.2-0.2l0.5-0.2l-0.5-0.1l0.2-0.6l0.3-0.1l-0.3-0.2l0.3-0.1l0.4-0.4
		l0,0.4l0.3-0.2l-0.1-0.4l0.4,0.2l0.7-0.6l-0.1-0.7l-0.4,0.1l-0.3-0.3l0.2-0.2l-0.2-0.6l0.4,0.2l0.8-0.2l0.1,0.5l0.5,0.1l0.1-0.6
		l0.6-0.4l-0.5-0.6l-0.2,0.5l-0.5-0.6l0.4-0.1l-0.6-0.4l0.2-0.4l0.6,0l0.1-0.2l0.5,0.2l-0.4-0.7l0.4-0.4l0.9-0.2l-0.5-0.2l0.1-0.3
		l1.1-0.9l0.4,0.3l0.3-0.4l-0.3-0.1l0.1-0.3l0.3,0.3v-0.4L707,15l0.4,0l0.1,0.2l0.1-0.3l0.2-0.1l-0.2,0l0.1-0.2l-0.1-0.1l0.4-0.1
		l0.2-0.4l-0.2,0l-0.1-0.2l0.1-0.1l-0.1-0.1l0.1-0.1l0.2-0.1l0.3,0.2l0,0.3h0.3l-0.1-0.2l0.2-0.1l0.2,0.4l0.1-0.1l-0.1-0.1l0.2-0.2
		l0.4,0.1l0.1-0.2l-0.2-0.2l0.1-0.5l-0.1-0.4l-0.1,0l-0.1-0.2l0-0.3l0.3,0l0.1-0.3l0.5,0.1l0.1,0.2l0.8,0.3l-0.1,0.2l0.3,0l0.3,0.2
		l0.5-0.1l17.2,0l29.9,41.5l8,36.2l0,2.5l-0.6,0.2l-0.2,1.2l-0.8,0.2l0.3,2l1.2,0l-0.7,0.5l0.3,0.5l-1.1,0.3l-0.2,1.3l1,0.5l0.9,1.6
		l1.4,0.4l0,0.8l3.7-0.6l1,0.9l0.2-0.8l0.8,0.8l1.5-1.1l1.6,0.8l4-0.1l1.2-0.4l0.7,1.3l1.4-0.6l1.3,0.6l0.5,0.8l1.6,0.6l0.5,1
		l-0.6-0.1v1.3l2.4,0.9l-0.3,0.6l0.4,0.9l0.6-0.1l-0.7,1.4l1.8,0.6l1.4,0.1l0,0.6l0.9,1l-0.5,0.3l1.8,1l0.5-0.8l1.5,0l1.4,2.1
		l-1.7,1.6v1.3l-1.1,1.7l1.2,1.9l-1.8,0.5l-0.5,1.3l2.2,5l-1.4,1.8l0.7,1.5l-2.6,2.6l0.6,1.4l-0.6,0.8l0.2,2.6l0.3,0.9l-0.4,1.2
		l-4,2.8l1.5,1l2,0.6l2.6,2.9l0.8,3.3l-0.4,0.9l0,1.2l-1.4,1.9l-0.5,1.9l-6.7,3l-3.1,3.1l-2.4,0.4l-5.5,4.8l-7.4,3.4l-1.3,2.4
		l-2.5,1.3l-2-0.4l-2-0.8l-1.5-1.3l-0.6,0.6l-6.1-2.7l-1.3,0.1l-0.9,0.9l-1.7,4.9l-1.8,2.2l-0.2,1.3l-2,1.1l0,1.4l-2.3,3.1l-1.7,1.4
		l-1.3,3l-0.3,0.9l-4.1,0.1l-0.2,1.9l-0.9,0.9l0,1.3l1,1.2l-0.9,4.2l-0.9,0.4l-0.5,0.6h-0.9l-0.8,2.2h-1.3L730,207l1,0.4l-0.9,2.1
		l-0.7,0.3l-0.5,2.1l-2.4,1.1l-0.4,1l0.5,1l-1.1,2.1l-1.5,1.3l1.1,2.3l-0.4,1.6l1.2,1.4l-3.1,4.6l0.4,1.4l-0.2,2.1l-0.7,1l-1.9,0.7
		l0.3,3.8l-1.4,0.1l0.9,2.4l-1.8,3.1l1.3,3.5l-0.9,0.2l0,2.1l-2,1.1l-0.5,1.1l-4.1,0.8l-1,0.6l-1-0.4l-3.1,2.1v1.7l-1.2,0.9l-2,0.7
		l0.1,2.1l2,0.9l0.6,1.4l-0.7,2.1l-2.1,0.8l-0.7,1.3l0.8,2.9l3.6,2.3l-2.9,3.2l-0.6,4l0.2,1.6l-1.4,0.8l0.1,1.1l-0.2,1.9l0.3,1.5
		l-0.6,1.4l0.2,0.8l-1.2,1.8l-1.4,0.2l-6.4,2.3l-0.5,0.5l-1.7,0.1l-2.2,0.8l-3.2,2.3l-0.9,1.6l-2,1.8l-3.5,1.1l-0.8,1.8l-1.5-0.2
		l2.2,1.8l2.1-0.6l0.9,1.2l-0.8,1.7l-0.1,1.6l0.5,2.5l-1.1,2.3l-0.8,2.7l0.3,2.4l0.6,1.6l-0.8,1.5l-0.4,1l-4.1,7.1L675,331l-0.5,0.2
		l0.7,1.5l-0.7,0.7l0.2,1l-0.5,0.8l1,1.8l-0.5,1.3v1l-1.1,1l-0.7,2.4l-1.7-1l-2.3-0.1l-0.6,1.8l-0.5,1.5l-0.4,3l-1.7,1.2l-1.8,0
		l-1,0.9l-1.2-0.1L661,351l-1.9,0.6l-2.2-0.9l-2.9-1.2l-2.2,1.2l-2.2,0.3l1.2,1.2l0,2.2l1,2l-1.2,1.4l-1.5,0.7l-0.9,0.1l0,0.9
		l-0.7,0.2l-0.2,0.6l-1.2-0.2l-2.7,2l0.3,1.3l-2,0.3l-0.7-1.2l-2.5-0.2l-0.3,1.8l-0.9,2.3l0.4,11.7l0.4,2.3l-1.6,1.2l-0.8,2.1
		l-1.2,0.4l-0.6,1.4l0.5,3.4l0,1.5l0.5,2l0.3,1.3l-1.2,1.4l0.2,0.9l-2.3,2.2l-1.5,3.1l-2.5,1l-1.4,3.1l-1.1,2l0.1,1l-0.6,0.4v0.9
		l-0.9,0.5l-0.1,0.9l-1.3,1.8l-0.2,0.7l-1.2,0.2l0,1.1l0.5,1.7l0,2l0.4,0.9l-0.5,0.9l0.6,1l-0.3,1.2l1,1.2l-0.2,0.8l-2.5,0.6l-1.5,1
		l0,0.6l-1.7-0.3l-1.2,1.5l1.1,2l-0.3,2.7l-3,1.8v2.8l-2.7,3.6l2.6,1.5l-1.4,3.1l0.4,4.2l0.8,2.6l-0.9,1.5L610,453l-0.5,1.5l-1.4-1
		l-1.9,2.1l-3.4,0.1l-3.6,2.4l-3.2,1.9l-0.6,2.8l-1.2,2.2l-1.5,0.6l-1.4,2.7l2.8,3.4l-1.7,1.6l0.8,3.1l-2,1.4l-0.4,3.5l-2.4,3.4
		l-4,0.5l-2.4,0.6l1.2,3.6l-5.1,1.1l-0.4,1.1l-3-0.4l-1.6-1.6l-2.7,0.8l-2.7-0.7l-0.2,2l-3.5,0.4l-1.4-1.6l-1.5,0.4l-0.8-2.6
		l-0.1-8.3l-1.9-1.8l-2-0.2l-3.2,1.6l-3.7-0.6l-1.1-1.8l-0.2-2.6l-2-1.4l-1.3-1.7l-2.3-1l-0.4-2l1.3-5l-3.5-2.2l-1.4,0.2l-5.6-4.2
		l-1.2-1.7l-2-0.3l-1.7-1.4l-0.7-4.5l-1.7-1.4l-2.1,14.6l-3.1,2.6l-1.5-0.7l-16.8,1.5l-2.7-3.3l-1.4-6.5L479,473.4l-5.6-0.9
		l-5.4,18.6l-6.8-0.9l-1.1,3.6l-3.9,2.1l-3.8-0.6L450,504l-5.7-2.2L443,507l-4.3,6.2l-3.6,1l-2.3,2l-1.3,2.7l-15.1,12.4l-0.9,2.9
		l-4.3,2.3l0.3,2.3l1.7-0.2l-0.1,3.2l-2.8,3.8l5.4,6.1l0.5,2.6l-5.9,8.4l0.6,4.1l-2.2,6.5l0.6,6.1l-2.5,5.1l-2.4,0.7l-1.8,3.7
		l-2,2.5l0.4,1.1l-1.5,1.6l-1.4,1.5l0.1,1.6l-0.6,0.4l-1.2,0.1l-0.7,0.8l-0.7,1.3l0.6,1.4l1.1,1.5l0,0.7l-1.2,0.8l-1.3,0.6l-1.3,0.1
		l-1.1,0.1l-0.5,0l-1.1,1.7l-0.4,1.8l0.7,1.7v1l-2.5,1.5l-1.9,0l-1.5-0.8l-2.6-1.1l-3.4,0.7l-1.3,2.4l0.7,2.5l-0.3,3.1l-0.7,2.3
		l-2.7,1.6l-12-0.6l-15,0.7l-16.2,3.5l-2.7,1.5l-8.4,0.8l-7.1,1.4l-5,1.5l-7,1.7l-5-0.9l-3.9-1.5l-3.5,2.3l-5.8,1.4l-14.9,1.3
		l-3.6,1.6l-10.5,0.2l-4.1,1.5l-23.4,1.1l-8.9-4.1l-9.4-6.3l-12-12.6L184.4,598l-5.4-14.6l-3.6-16.2l-3.6-3.8l-6.8-6.6l-6-14.4
		l-6.7-10.4l-21.5-20.7l-11.2-7.2l-19.1-4.3L75.8,497L53,498.8l-8.8,1.1L20.2,500l-15.8,0.6L2.9,500.8z"/>
</g>
</svg>
