<?xml version="1.0" encoding="utf-8"?>
<!-- Generator: Adobe Illustrator 22.0.0, SVG Export Plug-In . SVG Version: 6.00 Build 0)  -->
<svg version="1.1" id="Layer_1" xmlns="http://www.w3.org/2000/svg" xmlns:xlink="http://www.w3.org/1999/xlink" x="0px" y="0px"
	 viewBox="0 0 800 1152" style="enable-background:new 0 0 800 1152;" xml:space="preserve">
<style type="text/css">
	.st0{fill:#2E7D32;}
</style>
<g id="peru">
	<path class="st0" d="M742.3,1076.4l-0.3,0.1l-0.9,1.5l-1.4,1.5l-1.2,2.8l-1.9,1.8l4.3,0.4l6.7,5.2l-0.1,7.9l-5.3,4.9l-7,5.2
		l-8.1-0.9l-1.8,3.7l0.2,2.7l1.5,0.9l-0.3,3.4l0.3,3l1.1,3.1l1.8,2l-0.3,2.6l-3.8,7.9l-2.7,3.5l-3.1,2l-3.5,3.8l-1.2,0.6l-4.4-0.1
		l-6.1,3l-2.9,0.3l-3.8-0.6l-4.3-0.1l-3.1,1.8l-0.8,0.7l-18.1-10.9l-4.6-3.6l-7.9-5.6l-1.7-1.9l-3.4-3.9l-4.2-2.9l-5.2-1.2l-3.9-3
		l-7.8-5.3l-3.2-1.9l-2.6,0.3l-1-1.2l2.1-4.1l-1-5.1l-0.6-5.8l-1.5-3.9l-3.6-3.2l-2.9-3.4l-7.6-2.4l-11.3-3.3l-4.2-2.5l-6.8-6.4
		l-8.4-2.2l-2.4-3.1l-7.1-4.7l-3-2.9l-2.1-4l-7.5-5l-10.6-2.2l-6.9-1.3l-8.3-5.7l-8.4-2.7l-4.9-2.1l-7-4.4l-4.5-0.5l-1,0.5l-2.5-4.3
		l-5.3-2.4l-7-1.8l-7.2-3l-3.5,0.8l-2.6-2.1l-6.8-3.8l-5.4-2.7l-4.4-3.8l-2.3-2.2l-0.6-2.4l-6.9-2.7l-5.5-2.9l-3.1-1.8l-5.3-0.5
		l-4.1-3.3l-2.4-4.1l-6.1-3.2l-7.3-1.9l-10.6-5.9l-10.9-5.9l-5.2-2.8l-4.1-2.4l-1.4-2.8l1.9-0.9l-5.6-2.8l-0.4-3.3l2.1,0.3l-4.5-3.4
		l-4.8-0.9l-4-9.5l-3.6-3l-0.6-2.9l-7.4-3.7l-11.3-6.4l-5.8-5.1l-2-4.4l-1-3.7l-2.7-2.8l1-2.3l-7.3-4.9l-2.7-2.7l-3.1-2.9l-2-2.8
		l1.6-0.3l4.6,3.5l-1.1-3.1l-5.5-4.7l-1.6,1.7l-1.5-1.6l-1.2-5.5l1.1-3.5l-1.1-4.1l-1.5-2.3l-4.1-0.8l-0.9-2.5l1.4-4.7l4.1-1.8
		l2.7-0.5l0.4,2.2l3.5-11.1l0.9-10.3l-1.5-5.5l-9.5-12.3l-5.7-6.5l-2.4-4.6l-1.1-6.5l-4.1-5.8l-2-0.6l-1.3-2.8l-4.4-10.1l-5-4.2
		l-1.1-1.9l1.5-5.4l-2.3-3.6l-3.2-2.2l-2.3-0.6l-2.5-3.5l-5.7-1.9l-1-3l-0.3-3.1l-4.1-2.3l-2.2,0.5v1.8l-2.6,0.2l-2.1-1.2l-1.6-3.5
		l1.6-0.8l2.5,1.4l2.1-1.6l0.4-5.1l-1.3-5.8l-2.2-3.9l-3.8-1.5l0.5-1.4l3.1,0.7l0.9-2.1l-1.8-4.5l-3.8-4.2l-2.7-5.5l-7-5.5l-8.6-4.6
		l-4.9-3.2l0.3-5.7l3.1-1.3l-2.1-6.4l-3.2-4.4l0.3-4.4l-5.3-8.5L214,659.7l-6.4-11.2l-9.3-16.8l-3.6-17.8L184.5,596l-3.1-8.5
		l-7.4-11.7l-5.9-9.7v-8.2l-5.9-9.7l0.9-6.3l-8.4-7l-4.3-8l2.9-2.4l-10.7-13.8l-15-12.8l-9.5-13.2l0.9-5l-8.4-14.4l-2.6-10.3
		l-7.2-10.6l-11-12.3l-4.7-9.4L59,407.3l-17.8-9.1L26,388.5l-12.6-10.6l-2.1-8.6l4.7-9.8l5.5,1l3.8,2.4l6.2-5l-1.9-8.4l-3.8-8.9
		L17,334l-6-5.8l-3.5-3.8l4.3-7.6l4.7-1.7l-4-8.4l-8.6-11L1,290.9l0.9-6.2v-7.9l3.8-6.2l0.5-5.7l8.6-7.4l7.6-10.7l7.6-4.8l6.7-11.4
		l14.3-8.3l4.3-6.6l6-0.5l5-3.8l0.6-0.3l0.8,0.8l1.3,0.3l1.3,0.1l1.5,0.9l0.5,0.9l-0.4,0.8l-0.8,0.7l0,0.9l-0.2,0.5l0.7,0.1l0.4,0.9
		l0.8-0.2l0.3,3.2l-0.4,1.6l0.6,1.1l1,0.3l-0.1,1.5l0.4,1.9l-0.8,2.7l1,1.9l-0.6,2.8l1.7,2.5l0.4,3.8l1.9,1.6l-2.2,1.4l-3.4,2.1
		l-1.8,0.1l-2.3,3.7l-2.2,0.1l-1.8-1.4l-2.6-0.5l-2.5,0.7l-1.7,1.1l-1.4,2.9l-0.2,2.8l0.8,1.5l1.3-0.2l-0.4,5.1l1.6-0.3l1,0.9l2.4-1
		l0.9,1.1l2.9-0.9l-7.9,9.2l-1.4,3.1l0.8,2.9l2.8,1.9l1.6,0.7l4-2.2l1-1.3l1-1.3l1.3-0.2l2.6-2.2l0.8-1.2l0.3-0.9l1.3-0.5l0.7-2.2
		l0.4,0.5l1.5-1l1.5,0.7l2.6,0.5l1.2,0.9l4.3,4l2.6,0.9l1.9-0.3l3.6,2.1l1.3,2.8l2.5,1.6l5.3-1.4l4-2.4l2.4,1l2.4,2.8l1.6,1.8
		l2.2-0.3l1.7,1.6l-0.2,2.1l-0.2,2.9l1.5,1.8l0.4,3.5l1.9,2.2l0.1,2.3l2.3,3.4l1.5,0.3l1.2,3.1l2.6,0.9l2.6,4l4.1,0.3l2.8-0.2
		l3.4,0.8l1.3-0.5l0.9,1.3l2,1.1l1.3,0.1l2.3-7.3l3.9,0.3l1.4-0.1v-1.6l-1.7-1.3l1.6-2.8l-1.6-1.6l1.4-0.8l0.3-3.8l1.6-1.4l1.1-2.1
		l3.4-0.9l2.1-0.3l3.5-0.9l2.2-1.6l0.6-1l-0.3-2.4l0.9-2l0.9-2.9l1.2-1.9l0.7-0.4l-2.1-0.7l-0.4-2.5l-0.6-2.2l2-2.8l1.2-2.3
		l-0.4-2.5l1.8-1.3l-0.1-4.7l1.6-2.3l1.1-1.5l-2.7-1l0.6-3.2l2.4-2.9l2.2-0.8l1.1-1.7l-0.4-1.1l0.8-2.9l0.6-0.9l2.8-1.6l0.7-1.9
		l-1.3-0.5l1.4-1.6l-0.9-1.2l0.2-1.8l1-0.1l0.6-2.3l-0.6-2.2l0.9-3.4l1.6-2.8l0.4-3.2l0.7-2.3l-0.5-1.5l0.2-2.4l1.6,1.6l4.8,0.7
		l1,6.9l3-1.1l1.9-0.8l-0.6-4l-1.5-0.5l-0.7-2.8l3.2-2.5l2.5-3.4l0.9-3.3l1.9,0.7l1.8-2.2l2.1-0.3l-0.2-1.8l2-3.4l1.7-2.6l6.3-3.7
		l3.3-1.5l20-6.6l29.6-10.3l23.2-7.3l20.7-17l16.4-12.8l28.5-35.8l0.6,0.1l0.9,0.9l0.3-1l11-38.8l4.1,3.4l4.4,0.1l3.3-1l-2.3-2
		l0.8-4.4l-1.8-1.9l0.7-2.3l-2.4-1.1l1.5-1.3l-1.6-2.5l2.2-1.6l-2-1.9l2.5-1.7l0.9-1.1l-1.1-2.1l1.3-1.6l-1.4-1.4l-0.4-1.5l-1.1,0.7
		l-0.2-1.6l-1.6-0.3l-0.9-0.7l-1.2-2.2l-1.2,0.9l-0.8-1.5l-1.7-0.7l-0.5-1.5l-4-5.7l-1.7-4.7l-3.5-3.9l-3.5,0.5l-0.9-4.8l3.6,1
		l2.4-0.9l4.3,2.1l3.9,1.3l1-0.6l0.5-0.9l0.5,1l2.9-0.8l1.7-0.8l1.6-1.1l1.9-2.6l1.6-2.2l5.8,2l3.3,1.8l3.5,2.8l2.2,0.6l2.3,4.2
		l1-1.5l1.1,2.4l2.6-0.6l2.6-3.1l3.2,2.6l1.8,4.7l0.2,3l2.8-0.7l1.1,2.3l3.6-1l-0.4,1.8l4.2,1.7l1,3.5l2.2-0.3l0.1,1.4l1.6-0.9
		l3.6,2l-0.4,3.6l2-1l0.7,4l0.8,2l-0.2,0.9l2.2,1.5l-1.2,1.8l-1.1,0.5l0.1,1.5l2.1,1.1h1.6l-0.6,1.7l2.5-0.5l-1,3l3.3-0.3l-2.3,2.2
		l0.6,1.9l-2.5-1.2l-1,2l2.9,0.2l0.7,2.9l-0.6,1.7l5.1,2.4l2.1-0.3l6.3,2.9l2-3.3l0.8,1.3l-0.7,3l2.4,2.7l1.9-1.8l-0.1,2.5l3.4-0.2
		l1.4,3.8l1.8,3.4l4.7,0.5l0.5,1l1.5-4.2l1.2,3.5l3.6-0.7l1.5,2h1.7l1.1,3.8l2.6-0.3l-0.9,2.2l1.8,3.4l-1.6,0.4l2.9,0.9l0.4,2.8
		l2.2,0.4l-0.2,2.3l0.3,2.7l1.6,0.1l-1.6,2.5l-2.2,1.7l-0.4,2.4l-0.6,1.2l2.4,2.5l2.9,0.6l1.4,3.4l2.8-1.4l2.8,1.8l2.2,1.7l0.1-3.4
		l3.3,0.6v1.5l1.5-0.4l0.1-3.7l2.8,3.1l2.4,0.8l-0.4,4l2.7,1.1v3.9l-0.9,3.4l1.5,2l-0.5,3l2.6,0.7l-3.1,2.8l-0.8,2.9l-2.6,0.5l0.5,4
		l3.2,2.8l-0.6,1.8l4.4,2.2l0.9-2.9l3,2.7l2.2-1.2v4.5l1.6,3.1l3.4-2l2.7,0.3l3-2.4h1.4l1.2,2.2l1.6-2.4l1.5,1.1l0.4,2.8l1.5-0.7
		l0.4-2.5l1.2-0.9l0.1-1.3l2.2,0.3l3.4,2.8l7.2,1.3l2-0.9l1.9,4.6l6-1.8l1.2-1.6l3.1,0.5l3.1-0.8v2.9l1.6-2.1l0.4-2.2l5.3-4.7
		l1.9,2.2l4.5-0.8l1,1.6l0.4-0.9l-1.3-3.7h2.6l1.6-0.7l2.5-7.3l2.2,1.5l0.8-1.6l2-0.3l0.3-1.6l1.7-0.5l-0.5,5.7l3.1-0.9l2-1.3
		l3.3,2.8l5.2,0.9l0.1,3.3l1.2,2.9l1.4-1l-2-4l2.6,0.2l2.1,2.9l2.2,1.8l-0.9,3.1l2.1-0.3l3.5-1.4l1.1-2.3l1.2,0.3v2.6l2.9-2.9
		l2.6,2.6l1.7,0.3l0.5-3.1l1.9,0.3l-0.6-3l6.1-1.4l2.8,2.3l0.5-1.2l-2.1-3.4l1.2-1.1l2.1,0.6l2.2,2.1l3.4-2.1l1.6,1.8l1.3,2.6
		l3.6,0.3l1.9,2.1l4.6,1.5l-0.1,3.5l2.9-1.1l-0.9,4.3l3.4,1.7l2.9-1.5l-3.3-2.3l3.2-0.5l1.4,3.2l2.8-0.9l2.1,3.5l2.4,0.7l2.6-2.3
		l4.1,1.4l-1.9,1.9l-1.7,0.9l2.2,1.6l3.9-2.1l2.3,3.4l0.5,3.2l1.6,0.7l1-1.8l1,3.4l2.7,1.5l1-3.5l1.5,1.6l0.5,2.9l0.1,3.1
		l-40.4,63.6l5.3,2.8l2.8-0.5l3.6,3.8l5-1.6l4.3-2.5l3.2-0.9l3.8,3l1.8,4.1l3.4,0.7l2,4.6l3.4,4l2.7,2.2l2.8,3.8l2.8,2.9l1.3,2.3
		l0.1,2.9l-3.5,5.2l-2.7-0.7l-2.3-3.2l2.1-1l-3.3-0.7l-1.4-1.7l-0.3,1.6l-2.2-0.3l-0.9,2.1l1.2,1.1l-2.8,2.1l-1.2-4l-0.9,1.1
		l-2.1-0.6l1.2-1.8l-2.6,0.6l-1.4-2.8l1.8-0.9l-0.7-4l-2.2-1.5l-0.5,2.4l-3.1-3l-4,0.2l0.9,1.9l-1.6,0.2l-1.5-0.6l-1.1,2.7l-0.3-3
		l-2-1.1l-0.8,1.5l-0.4,3l-1,0.3l0.3-2.1l-3,0.8l-1.2-1.5l1.1-2.1l-2.2-0.3v2.1l-0.9-1.4l-1,4.1l-1-1.1l-2.2-0.5l-1.8-1.5l-5.9,4
		l2.1,0.3l-0.8,2.1l-2.1-0.3l0.9,1.7l-1.9,0.9l0.3,1.7l-2,0.5l-0.5,1.5l-1.2-0.1l-0.2,1.6l-1.6-0.2l-2-2l0.2,2.5l-2.9,1.1l-1.2-2.4
		l-0.5,1.6l-0.8-1.1l-2.2,0.4l0.2,1.7l-2.1-1.6l-0.3,1.4l-2.2-0.4l-0.6,1.4l-0.8-2.6l-1,1.8l-1-1.4l-2.2,0.3l1,2.1l-1.5,1.1l-2-1.6
		l0.7,2.5l-2-0.8l-1.1-1l-2.2,0.4l-2.5,2.4l0.4-2.1l-1-0.7l-0.3,1.4l-1-1l-1.5,1.4l-1.6-0.9l0.7,2.9l-2.3-1.5l-1.9,1.7l-2.4,2.5
		l-2.2-1l1.5-2.8l-2.3,1.9l-0.1-2l-0.9,2.5l-1.9-0.6l-1.6,0.3l-1.7-2.2l-1,2.2l-0.7-1.4l-0.7,0.9l-0.6-0.6l-0.9,1l-0.9-0.2l-0.4,0.9
		l-0.9-0.3l-1.4,0.6l-2.3-0.3l1.7,1.6l-2.3-0.5l-0.7,1.5l-0.6,1l-1,0.9l0.3,1.2h-2.8l0.3,1.3l-1.3,0.9l-2.2-1l-0.3,1.8l-1,0.1
		l0.1,0.9h-1.5l-0.3,0.9l-1.9,1.8l-0.4,1.4l-0.7-1.3l-3.2,2l-0.3,0.8l-1.4-0.5l-0.5,1.4l-1.3,0.3l-0.7-0.3l-0.2,1.1l-1,0.3l-0.3-1.4
		l-2,0.8l-0.3-0.7l-0.9,0.5l0.2,1.6l-1.3-0.4l-1.2,0.3l0.1,1.2l-1.3,0.3l-0.1,2.3l-0.9,1l-1.4-0.6l0.1,1l-0.3,0.8l-0.5,0.4l-1.9-1
		l0.5,1.5l-1.1,0.9l-0.7,1.1l-0.6-0.7l-0.3,0.6l-1-0.8l-0.3,1l-1.8,0.4l-1.5,1.5l-0.8,0.5l-0.7-0.7l-0.4,1v1.1l-0.9,2.1l-0.5-0.4
		l-1,1.4l-0.3-0.7l-0.9,0.6l-1.2-0.8l-0.9,0.7l-1-0.7l-2,1l0.2,1l-1.3-0.2l-0.6,0.9l-1.5,0.1l0.4,0.9l-1.7-0.1l-0.6,2.2h-1l-0.9-0.2
		l-2.3,1.4l0.4,0.9l0.1,0.6l0.6-0.4l-0.1,0.6l-0.1,0.3l0.4,0.3l-0.5,0.3l0.7,0.3l-0.2,0.7l0.2,0.9l-0.6,1l0.8-0.2l-0.4,0.8l0.6,0.6
		l-0.6,0.4l0.2,0.9l-0.7-0.1l0.3,0.4l-0.1,0.4l-0.9,0.3l0.5,0.3l-0.3,0.4l-0.3-0.1l0.2,0.5l-1,0.2l-0.1,0.6l0.7-0.3l0.1,1.1
		l-0.8,0.5l-0.2,0.4l0.4,0.1l-0.3,0.4l-0.9,0.3l0.2,0.4l-0.3,0.7l-0.3,0.3l0.2,0.5l-0.7,0.4l-0.3,0.3l0.5,0.5l-0.4,0v0.6l-0.9,0.5
		l0.3,0.3l-0.8,1.1l0.1,0.6l0.5,0.3l-0.7,1l-0.1,0.9l0.2,0.9l0.3,0.3l0.1,1.1l0.9-0.3l-1.2,1.1l0.4,0.3l-0.6,0.6l0.5,0.2l-0.4,0.3
		l0.6,0.2l-0.8,0.6l-0.7,1.5l-0.1,0.5l0.5-0.2l0.1,1.5l0.4,0.8l-0.3,0.4l-0.5-0.3l-0.4,0.3h-0.5l-0.3,0.7l0.7,0.3l-0.4,0.3l0.3,0.5
		l-0.6,0.2l0.2,0.6l-0.4-0.3l-0.5,0.5l0.4,0.4l0.1,0.4h-0.4l0.1,0.4l-0.4-0.1l0.1,0.4l-1.3,0.2l0.4,0.4l-0.5,0.5l-0.9,0.4l-0.3,0.5
		l0.2,0.8l-0.9,0l0.5,0.4l-0.4,0.5l0.2,0.5l-0.5-0.2l-0.4,0.5l-0.4-0.3l-0.1,0.5l-0.3-0.3l-0.2,0.7h0.4v0.4l-0.7-0.1l-0.5,0.4
		l0.5-0.1l-0.1,0.6l-0.5-0.2l-0.8,0.3l-0.2,0.4l0,0.7l0.1,0.7l-0.4,0.3l-0.1-0.3l-0.6,0.3l-0.1,0.5l-0.5-0.4v0.5l-0.5-0.2l-0.1,0.3
		l-0.4-0.3l-0.7,1.1l0.4-0.2l0.2,0.5l-0.8,0.5v0.4l0.3,0.3l-0.3,0l-0.3,0.8l-0.1,0.6l-0.2-0.3l-0.3,0.2l-0.1,0.8l-0.2-0.1l-0.1,0.5
		l0.4,0.3l-0.2,0.4l0.3,0.2l-0.1,0.3l0.2,0l-0.4,0.7l-0.2,0.6l-0.2-0.3l-0.3,0.6h0.4l0.1,0.7l-0.3,0l-0.1,0.4l-0.4-0.2l-0.3,0.3
		l-0.4-0.1l-0.3,0.7l0.4,0.1l-0.4,0.3l-0.4-0.2l0.2,0.4l-0.6,0.2l0.1,0.3l-0.5,0l-0.1,0.6l0.6-0.1l-0.3,0.4l0.3,0.3l-0.3,0.6
		l0.4,0.9l-0.9,0.1l0.6,0.9l-0.4-0.1l0.1,0.6l-0.3,0.1l-0.2,0.4l-0.2,0.2l0,0.4l-0.1,0.4l-0.1,0.7l0.2,0.3l0,0.8l0.9,1l0.5,0.8
		l0.6,0.5l-0.5,0.4l0.2,0.3l0.5,0.1l-0.4,0.8l0,0.4l0.3,0.5l0.3-0.4l0.2,0.7l0.7,0.9l0.1,0.7l0.4,0l0.1,0.4l0.3-0.3l0.3,0.4l0.2,0.5
		l0.6,0.3l-0.1,0.5l0.2,0.1l0.1,0.4l-0.3-0.2l0.4,0.6l-0.1,0.5l0.1,1.2l0.3,0.2l0.2-0.4l0,1l0.4-0.3l0,0.4l-0.1,0.2l0.2,1l0.2-0.2
		l0.4,0.5l-0.2,0.3l0.2,0.1l-0.2,0.6l0.3-0.4l0.1,0.8l0.1,0.3l0.4-0.2l0.4,0.5l0.7,0.8l-0.3,0.7l-0.5,0.1l-0.4,0.5l0.4,0.8l0.1,0.4
		l0.1,0.3l-0.4,0.1l0,0.7l-0.3,0.2l0.1-0.4l-0.3,0.2l-0.5-0.1v0.7l0.2,0.2l-0.8,0.5l-0.1,0.3l0.3-0.1l0,0.3l0.3,0.1l-0.1,0.2l0,0.4
		l-0.3,0.5v-0.6l-0.6,0.6l-0.1,0.7l-0.5-0.1l-0.2,0.4l-0.2-0.5l-0.4-0.3l-0.1,0.5l-0.9-0.1l0.7,0.6l-0.7,0.4l0.3,0.4l-0.5,0.1
		l-0.4-0.3l0,0.7l-0.6,0l0.6,0.8l-0.9,0.8l-0.8-0.9l-0.5,1l0.3,0.5H510l-3.3,0.7l-2.3,0.1l-2.9,1.7l-1.8,1.4l-7.4,2.4l-1.8,2.1
		l-4.1,1.9l-3.6,4.8l-2.2,1.9l-1.9,4.6l0.7,2.4l-1,1.7l-0.2,4.4l-2.2,2.7l0.8,1.5v0.9l2.3,2.4l0.3,2.1l1.6,0.7l0.5,3.1l0.8,1.8
		l-2,2.2l-1.7,0.7l-0.5-1l-3.5,0.3l-2.5,1.3l-0.3,1.4l-3.3-0.3l-0.8-1l-0.5,0.5l-0.6-0.9l-0.4,0.9l2.5,4.5l0.2,1.9l-1,1.8l-1.1,1.7
		l-2.3,0.8v1.8l6.3,2.1l-1,2.3l2.6,2.2l1-0.1l1.8,2.7l5.9,1.7l2,2.1l0.4,2.6l-0.2,2.8l-1.8,0.7h-2.4l-0.9-0.3l-0.5,2.6l2.2,1.5
		l-0.3,1.4l2.2,0.8l1.6,1.5l1.3,1.3l1.2-0.3l1.5,1.7l-0.6,1.2l2.1,3.8l0.6,1.5l-1,1.9l1.7,3.5l-0.7,1.2l3.5,1.9l-0.6,2.5l-0.1,2.2
		l3.8,2.9l3.4,2.6l1.2,0.2l1.1,2.1l3.2,0.5l0.4,2.6l-0.7,6.1l1.4-0.3l4.1,4.8h5l2.6,3.8l1,3.8l1.9,2.2l1.7,3.8l2.3,0.8l1.5,0.8
		l1.9,3.1l1.4,0.4l-0.9,1.6l1,4.3l-0.3,2.9l-2.5,2l-2,1l0.9,1.8l-1.6,1.6l-2.2,0.1l-2.7,3.1l0.3,1.5l-1.9,1.2l-1.2,1.7l-1.8,0.9
		l-1.2,2.6l30.1,0.3l2.9,1.8l5.2,0.9l4.9,2.1l5.4-0.6l4.7,1l2.7,3.2l1.6-0.4l0.2,4.3l1.8,0.8l-0.2,1.7l0.5,1.7l-0.8,4.8l6.3,2.3
		l0.6,1.5l-0.6,1.4l1,2.4l-0.4,2.5l-1.3,1.2l1.2,2l-1.7,2.3l42.9-0.1l9.1-0.8l1.8-1.8l2.2,1.2l3.4-0.9l0.4-1l2.5,0.5l1.4-2.7
		l2.8-3.5l1.6-0.9l3-1.2l3.4-0.3l0.8-2.8l2-2l1.4-0.3l3.5-3.3l2.2-2l2.5-1.1l1.1-1.5l1.2-0.6l0.8-2.5h1.3l2.7-1.7l2.6-2.4l1.8-2.1
		l2.3-1.4l2.4-0.7l2.2-0.3l0.6,0.2l0,0.6l-1,0.4l0.2,1.1l-1.1-0.4l0.4,1.4l0.9,1l-0.3,0.7l-0.5-0.8l-0.3,0.8l-0.7-0.4l0.1,1.1
		l-0.9-0.1l0.3,1l-0.5,0.6l-1.4-0.6l0,1.5l1.1,1l-0.8,0.3L678,599l-0.5,0.2l-0.2-1.3l-0.8,0.7l0.8,2.1l-0.6,1l1.8,3.8l0.8,0.1
		l1.3,2.5l0.4,0.7l-0.5,1.4l-0.2,0.9l-0.1,1l-1.3,1l-1.1-0.6l-0.5,0.6l-0.4,0.8l-0.9,0l-1,1.3v2l0.7,0.8l-0.5,7l-0.4,19.3l0,11.5
		l0.2,33.4l5.9-3.9l5.2,4.2l0.5,2.1l4,1.3l4.3,0.8l4.6-1.3h2.5l4.7-2l2.1-2h2.5l4.4-2.5l2.7-1.4l2.7,0.2l5.7,0.4l2.1,0.3l2.2,1.8
		l3.2-0.1l3-0.8l1.4,0.3l0.3-0.8l0.8-0.2l0.6,0.1l0.6-0.1l0.5,0.6l13.1,21.6l24.1,38.5l20.4,36.9l-0.5,2.4l-1.5-0.9l0.7,1.9
		l-1.2,0.2l-0.5,1l0.3,0.8h-0.4l-1.1,1.3l-0.8,0.6l-0.4,1.2l0.3,1.9l1.4,1.3l-1.8,1.5l0.7,0.1l-2.3,1.7l-0.9-0.1l-1.4,1.8l-0.5,1.7
		v1.1l-1.1,0.3l-0.6,2.5l-1.3,0.8l-0.7,3.5l-0.2,3.3l0.5,2.7l0.9,1.6l-1.1,6.1l0.3,2.9l0.8,3.9l-2.8,12.6l-1.3,4.4l-0.9,0.9
		l-1.6,4.6l-2.8,0.8l0.3,2l-2.2,0.2l-1-0.6l-1.2,2l0.9,2l1.7,2.2l2.5,1.2L778,864l2.4,1.3l1.5,0.8l-1.7,3.4l-1.7,1.2l0.1,3.5
		l0.4,2.3l3.5,3l1.7,1.9l0.9,3.1l2.6,1.9l-1.4,1.5l1.4,2.8l0.4,0.8l-9-0.2l-1,1.7l0.4,1.2l-2.1,2.8l1.5,4l-2.2,2.7l-3.5,1.9
		l-1.7,2.5l-1.2,1.8l-1,0.2l-0.3,3.6l-1.2,0.8l-2.8-0.3l-0.7,0.9l-0.2,3.3l-1.5,1.4l-0.6,1.6l2.2,2.5l-3,2l-2.8,0.1l-2.2,1.6
		l-0.3,3.9l1,1.8l-1.6,3l1,2.3l2,2.8l2.4,5.7l2.4,0.9l2.9,2l2.8,3.2l1.4,2.4l0.7,1.2l-3.7,0.2l-1.3,3.5l-1.3,0.4l-2.2,3.2l0.1,2.6
		l1.2,2l-1.5,1.3l-2-1.7l-1,1.8l-0.3,2l-1.4,2.2l-4.4,4l12.9,35.4l6.3,3.7l2.9-1.7l2.6,1.3l1.7-1.7l2.9,1.2l8.6,7.4l-0.1,0.7
		l-11.8,5.1l-3.4,9.1l0.7,2.6l2.1,3.1l-5.6,2.9l-5.1,1.3l-2.4,6l-3.7,3.9l-3.8,4l-0.8,2l-3.4,1.7l1.2,3.6l-3.5,3l-1.2-0.3
		L742.3,1076.4z"/>
	<path class="st0" d="M35,398.6l-0.7,3.1l0.7,4h-4.1l-0.9-4.1l1.2-2.7l2.4-0.9L35,398.6z"/>
	<path class="st0" d="M42.4,432.8l0.5,2.7l-1.9,0.2l-1.7-1.7l1.2-1.2H42.4z"/>
	<path class="st0" d="M151.1,533.6l0.7,0.5l0.1,0.8l-0.2,0.8l-0.4,0.8l-0.4-0.1l0-0.4l0.6-0.2l0.1-0.7l-0.5-0.9l-0.4-0.4l0.1-0.3
		L151.1,533.6z"/>
	<path class="st0" d="M313.1,853.6l0.6,0.3l-1,2.3l-1.1-0.8l0.7-1.6L313.1,853.6z"/>
	<path class="st0" d="M309.5,865.8l0.7,1.2l0.2,1.8l-2.3,0.3l-0.3-1.7l1-1.4L309.5,865.8z"/>
</g>
</svg>
