<?xml version="1.0" encoding="utf-8"?>
<!-- Generator: Adobe Illustrator 22.0.0, SVG Export Plug-In . SVG Version: 6.00 Build 0)  -->
<svg version="1.1" id="Layer_1" xmlns="http://www.w3.org/2000/svg" xmlns:xlink="http://www.w3.org/1999/xlink" x="0px" y="0px"
	 viewBox="0 0 800 701" style="enable-background:new 0 0 800 701;" xml:space="preserve">
<style type="text/css">
	.st0{fill:#2E7D32;}
</style>
<g id="rwanda">
	<path class="st0" d="M632.6,4.5l-10,10.5l4.8,13.2l4.8,1.3l-2.1,8.9l1.3,5.9l9.1,1.3l7.5,9.1l9.4,17.7l7.8,18l-1.3,11.6l6.7,11.8
		l16.9,6.2l6.5,13.2l19.4,3.5l22.6,23.4l2.4,27.1l37.4,49.7l-7.5,18.8l3.5,47.6l-8.9,46.8l22.3,37.1l4.6,1.6l0.8,4.8l8.3,10.5
		l-3.2,7.3l-1.6-0.3l-4.8,9.9l0.5,5.9l-3.8,3.5l-3.2,14.8l-6.5,10.5l1.9,6.4l-1.9,4.6l4.3,17.2l-0.8,10.2l1.9,2.7l-3.5,4.3l-4,2.9
		l-0.3,4.6l-8.3,8.3l-5.1,0.5l-7.8,6.2l-1.3,3.5l-4.6-0.3l-0.5-2.7l-8.1-1.6l-5.6-6.7l-5.7-2.1l-8.6,3.8l-2.7,6.2l-6.7,8.3l-5.6,4
		l-8.3-4l-10-0.5l-6.5,1.1l-7.3,5.1l-8.1-2.1h-5.1l-5.6-3.5l-6.7-1.6v-4.8l-4-2.7l-4.8-3l-0.8-2.7h-4l-1.6-5.6l-3.5-2.9l0.8-9.7
		l-4-0.5l-5.7,3.5l-6.2-0.8l-4.8-5.9l-7,1.6l-5.6,7.8l-1.6,6.4l-15.1,5.1l-20.4,4H546l-8.9-9.9l-4.3,1.9l-2.2,10.8l-6.7,4l-1.1,8.9
		l-5.6,6.2l-6.2-1.3l-11.6,5.1l-10.2-4l-9.9-6.2l-7-6.7l-6.2-13.4l-11.3-6.7l-9.1-0.3l-15.9-5.9l-4.3,14.5l8.6,44l-8.1,6.5
		l-9.7,25.8l2.7,28.5l2.1,5.9l-16.7,38.7l-28.5,11.8l-10.2-7l-11.3,4.8l-4.8,12.3l-18.8,4.8l-17.7-10.7l-17.8,8.6l-12.9-2.1
		l-17.2,8.6l-16.7-7l-22.6-3.2l-24.7,12.4l-11.8-27.9l-3.2-6.5l5.9-4.8l-1.1-12.9l-6.4-6.5l1.6-5.9L176,626l-17.7-9.7l-18.3,3.8
		l-16.7-5.9l-10.8-7l-5.9,4.8l-11.8-5.4l-13.4,2.1l-6.4,11.3l1.1,14l-0.5,17.7l-4.8,10.7l-21-15.6l-10.8-1.1l-18.8-8.6l-4.8-5.9
		l1.6-4.3l-3.2-33.3L1,581.5l3.8-8.1l7-2.2l1.4-11.8L2.6,548.7l2.2-15l9.4-11.3l9.1-3.8l14.5,2.2l3.5-3.5l-1.1-4.6l7.5-4.6l6.7-15.6
		l1.9-3.2l15.1-4.3l20.2-3.8l6.7-3.8l23.4-50.2l0.5-12.4l-2.7-23.6l-13.2-37.4l-1.9-15l6.5-25.3l9.9-17.7l29.8-40.8l0.3-10.5
		l5.1-4.8l5.4-12.1l10-6.4l7.3-8.3l4.3-6.7l3.8-9.9l7.3-4l3.2-11.3l34.4-0.5l18.8-24.5l3.8-4.8h2.2l5.1-7.5l8.1-5.1l9.1-4.3l4.8,1.1
		l2.4,1.1l2.4-3.5l29.3-1.9l7.8-6.2l9.7-9.4l14,0.3l6.7,4.6l2.7,5.7l8.3,1.3l0.5-9.1l5.9-7.3l3.5-1.3l0.3-6.7l8.1,4.8l0.3,3.8
		l8.1,11.6l5.9-2.1l2.4,25.5l3,11.8l9.4,11.6l15.1-6.7l16.1-7.3l6.2-10.2l3.8-2.2l9.1,7.3h3.2l-0.3-12.1l6.5-4.8l2.1-5.4l7.8,0.3
		h4.6l5.4,3.8l3.5-8.9l6.2-3.8l8.9-3.2l-2.4-3.8l-0.3-8.6l4.6-3.5l-1.1-12.1l6.7-0.5l2.7,3.5l3-3.2l3.8,0.8l18-20.2l8.9-5.6l0.8-4.3
		l4.8-2.1l3-16.9l17.5-6.5l-2.1-12.9l2.7-4.6l1.1-8.3l8.9,2.2l1.9-2.2l6.2,0.5l6.7-1.9l6.5,1.1l6.4-6.2L632.6,4.5z"/>
</g>
</svg>
