<?xml version="1.0" encoding="utf-8"?>
<!-- Generator: Adobe Illustrator 22.0.0, SVG Export Plug-In . SVG Version: 6.00 Build 0)  -->
<svg version="1.1" id="Layer_1" xmlns="http://www.w3.org/2000/svg" xmlns:xlink="http://www.w3.org/1999/xlink" x="0px" y="0px"
	 viewBox="0 0 800 670" style="enable-background:new 0 0 800 670;" xml:space="preserve">
<style type="text/css">
	.st0{fill:#2E7D32;}
</style>
<g id="zambia">
	<path class="st0" d="M575,502.1L575,502.1l-3,1.7l-1.6,0.6l-2.7-0.7l-2,0.1l-1.4-1.4l-3.2,2.8l-1.9-1.3l-0.9-2l-2.4-0.1l-4.4,0.6
		l-5.7,0.9l-1.8,0.1l-2.3-1.3l-2.2-0.1l-5.2-0.9l-4,1.2l-4.4,0.7l-4.1,1.9l-3.5-0.5l-1.8,1l-3.1,1l-1.1-0.2l-0.6,0.4l-2.6-0.5
		l-2.5,0.3l-3,1.8l-2.1,0.5l-5.4,2.7l-3.1,0.7l-6,4.5l-0.7,0.4l-0.7,1.2l-0.8,0.8l-1.8,0.4l-1.6,1.7l-1,1.7l-0.6,1.2l-2-0.4
		l-2.1,0.1l-2.5-0.1L472,525l-1.6,1l0,2.4l-0.8,1.2l-1.7,1l-0.1,1l0.8,1l0.6,0.6l0.5,2.1l-0.8,1.4l-0.8,1.3l-0.6,1.4l0.3,1.7
		l-0.4,1.4l0.4,1.4l1.1,0.4l-0.7,1.5l-1.5,1.9l-0.4,1.1l0.3,1.1l1.3,0.4l-0.2,1.4l0.9,1.6l-0.7,0.8l-0.1,0.9l-0.1,1l-1.1,1l-0.5,1.3
		l0.5,1.1l-0.5,1.3l-1.1,1.2l-1.8,0.9l-1.1,0.9l-1.5,1.9l-3.2,0.6l-2.2,0.7l-0.8-0.3l-25.7,9.8l-9.4,7.4l-20.4,9.5l-14,19.1
		l-0.1,4.6l0.8,0.2l-1.1,0.6l-0.2,1.2l-2.3,2.5l-3.2,3.5l-15.5,11.4l-11,14l-0.3,0.9l-14.4,10.9l-2.8,1.2l-1.1-0.5l-0.4,0.6
		l-2.6-0.1l-0.4,0.7l0.2,0.6l-1.5,0.2l-0.5,0.6l-2.1-0.3l-2,0.6l-2.8,2.5l-0.2,1l-3.4-1.6l-1.5,0.3l-1.7-0.5l0.2-0.7l-1.8-1.5
		l-0.6-1.8l-1.5-0.4l-2.2,0.4l-2-0.5l-1.5-1.4h-0.8l-0.4-0.7l-1.3,0.1l-1.4-1.3l-1.8,0l-2.3-0.4l-2.6,0.4l-1.6-1.2l-2.9-0.1l-1-1.3
		l0-0.7l-0.7-0.2l-4.7,2.4l-2.3,0.1l-1.8,1l0.2,0.7l0.9,0.1l-0.5,1l-0.5,1.1l-2.7,0l-0.4-0.6l-0.8,0.5l-2.1-0.3l-1.2,0.6l0.1,0.8
		l-1.3,0.3l-1.6-0.4l-1.8-0.1l-0.7-0.7l-1.6-0.2l-1.8-0.4l0.3-0.4l-0.3-0.4l0.1-0.8l-0.9-0.8l0.8-0.6l-0.6-0.2l0.6-0.2l-0.4-0.3
		l0.5-0.7l-0.8-0.3l-0.5-0.7l-1.4-0.1l-1.8-1.4l-1.1-1.2l-2.6-0.9l-1-0.3l-1.5-0.2l-0.1-1.4l-1-0.6l-1.4,0.5l-1,1.3l-2.2,0.4
		l-4.6,0.1l-1.4,1.5l-1.3,0.1l-2.1-0.8l-2.1-0.4L235,654l-1.2-0.2l-2.1,0.2l-1.3-0.9l-1.6,0l-2.1-1l-1.2-1.4l-1.9-0.7l-2.7-1.7
		l-2.1,0l-1.8-1.7l-0.9-0.2l0.4-1.1l-0.7-1.5l-0.7,0.5l-0.6-1.3l-1,0.4l-1.6,0.8l0.8-1.5v-0.9l-0.3-0.7l-0.8-0.1l-0.7-1.5l-0.9-0.6
		l-0.1-1.2l-0.7-0.1l-0.1,0.9l-0.8,0V638l0.5-1.3l-1-0.7l-1.8,0.6l-1-0.8l-0.9-2.1l-2.5,1.1l0.1-1.4l-2.6,0.6l-1.9-2.2l-1.7,0.4
		l-1.8-0.6l-2,1.1l-1-0.5l-0.4-1.3l-1.3,0.4l-2.4-1.2l-2.3,0l-1.9,0.6l-1,0.3l-0.2,0.5l-1.4-0.5l-0.8,1.4l-2.1,0.1l-2,0.4l-0.5-2
		l-1.6,0.2l-2.2-1l-2.3-1.2l-4.9-1l-4.2,1.7l-3-0.5l-0.6,0.5l-1.5-0.8l-0.1-0.3l-52.7,10.5l-18.6-10.2l-9.4-10.3L51,599l-16.6-18.5
		l-13.3-10.8l-1.5-0.4l-0.9-1.1l-0.2-1.5l-1.7-0.4l-0.9-0.1l-0.6-1.3l-1.1-0.1l-2.1-2.7l-1.9-1.3l-0.3-1.9l0.5-4.1l-0.7-3.2
		l-1.4-2.7l-1.6-1.5l-0.4-2.9l-0.8-1.6l-2.3-1.5l-1.9-1.8L1,323.8l139.3-1.5l-8.6-9.7l0.7-12.2l2.6-4.6l0.2-5.3l7.7-8.6l-1.3-5.1
		l0.8-3.7l-5.8-8v-17.2l2.4-5.3l-3-10.8l3.9-9.4l-0.4-5.9l3.9-2.9l-3.4-8.6l-0.4-8.8l-1.9-1.8l0.9-2.2l0.2-8.6l-2.1-4.2l8.1,1.1
		l0.9,2.4l1.7,6.3l2.6-0.6l8.6,2l4.5,3.1l0.2,4.8l1.7,5.1l-2.4,6.1l-4.9,3.1l1.3,2.6l4.1-0.2l5.1,3.7l9-0.9l1.1-2.4l7.7-5.9l7.1-2.6
		l9.2-2l9.6-0.9l10.8-1.9l3.6-1.9l2.8,0.3l-0.6,1.8l-1.2,2.1l1.7,1.5l-3.4,1.7l1.4,2.4l-1.3,0.9H225l0.5,3.6l0.8,1.5l0.2,4l1.6,0.6
		l-0.8,1.4l-1.5,0.2l1.4,1.4l-0.5,1.5l1.6,1.6l0.4,3l7.1,3.8l1.7-0.2l2.1,2.8l-0.6,3.4l1.8,1.2l2.3-1l3-1.2l-0.1-1.1l4.1-0.4
		l0.9,2.6l3.6,3.1l4.4,0.2l3.6,0.6l2-1.7l1.2,0.2l0.9,3.1l2.6,2.7l2.1-0.9l2.1,1.8l-0.9,3l13.8-1l2-0.8l2.8,1.1l3.3,0.4l1,1.2l4.8-2
		l2.3-1.1l3.8,0.2l1.9,2.2l2.8,0.6l1.7,2l1.4-1.6l3.4,1.1l3.4,1.2l1.7,0.6l3.1-3l0.9-0.8l2.9,2.4l5-0.6l1.7-2.7l2-0.4l1.7-2.4
		l-0.1-1.6l2.4-2.4l-0.7-1.4l0.8-0.5l-0.1-4.8l2.3-1l0.6-2.3l-1.1-1.9l-0.4-2.3l-0.3-1.5l2.1-1.2l2.3,0.7l2.7-1.1l2.1,0.8l2.3-1.5
		l1.1-1.1l2,8.4l-0.4,1.3l-0.3,2.4l0.2,2.5l1.8,1.7l1.6-0.1l7.1,4.7l3.4,2l3.1,3.1l-0.6,3.8l0.2,3.3l1.6,0.3l1.3,2.9l0.6,3.8
		l2.1,2.4l3,1.8l1.7,0.8v2.7l2.3,1.6l5.1-0.5l2.3,0.8l0.3-1.4l2.7-1v-2.5l3.6,1l4.9,0.1l0.1,2.4l1.8,2.3l-0.8,2.5l1,1.1l2-1.4
		l3.8,0.7l2.2,0.1l3.1,5.7l1.5-0.7l-0.1-1.4l2-1.5l1.4,0.9l2.4,0.6l0.1,0.7l2.4-0.4l1,0.8l1.4-0.4l2.6,0.6l0.9,1.5l1.6,0.8l1.7,2.9
		l3.1,0.9l-0.8,2.6l6,4l0.7,1.6l-1.2,3.3l-2.6,0.1l-1.4,1.6l0.2,1.5l3.2,3.3l2.3,3.6v1.7l2.6,2.8l2.4-4.4l2.5-1.5l3.2,3l2.1,1.7
		l2.2,3.8l1.6-0.1l1.3,2.5l1.3,1.2l0.7,4.6l0.6,0.8l-1.1,0.6l1.6,2l-0.5,2.1l2.4,1.6l0.8-0.4l2.1,2.6l0.1,2l2.4,7.9l0.6,2.2l2.1-0.5
		l-0.6,2l1.4,1.5l8-3.5l2.2,1.7l1.5,3.6l3.1-3l4.8-1.9l1.2-2.7l2.8,0.8l0.8-1.4l3.1-0.6l2.8-0.9l4.6-4.2l1.9-1l2.4-1.5l1.2,1.4
		l2.7,0.9l2.9-0.6l-0.6,1.2l0.8,0.5l-2.5,3.2l0.5,3.3l-3,0.8l0.2,2.4l2.2,2.5l1.8-0.6l3.4,2.5l3.7-1.6l3,0.9l-0.4-88.4l-2.6-0.2
		l-2.5,2.2l-0.6,1.6l-2.3,1.4l-3.6,0.3l-1.9-1.2l-2.4-1.7l-1.4,0.7l-1.9,2.4l-2.4,0.1l-1.5,3.2l-1,2.6l1.9,4.9l2.4,0.5v2.1l-3.2,2.1
		l-3.9-1.7l-3.1-1.5l-3.7,0.6l-1.5-1.1l0.6-0.8l-2.4-2l-2.5,1.2l-5-0.3l-2.4,1.2l-2-1.1l-2.4,0.9l-1.7-0.8l-0.1-1.7l-1.5-2l-2-4.4
		l-3.5-5.3l-4.5-2.6l-2.9-3.7l-3.2-3.7l-1.1-3.6l-1.1-0.4l-1.9,0.8l-5.2-3.4L452,249h-2.3l-4.5-2l-2.1,0.1l0.3-2.8l-2.5-0.4
		l-0.8-2.4l1.3-1.8l-2.3-3.5l1.6-1.8l-1.6-1l0.9-2l-3.4-4.3l0.2-5.2l0.8-2.7l1.3-1.7l0.7-3.9l1.9-1.5l-0.4-4.3l1.4-1.9l1.1-2.8
		l-0.6-2.6l1.5-1.3l-0.2-2.9l-1.5-2.9l1.2-1.4l1.3-5l-0.1-2.6l1.8-1l0.5-5.7l0.6-2.7l1.9-0.8l0.2-1.8l1.4-1.1v-3.2l2.1-0.4l2.4,0.3
		l-0.5-2.7l2.1-0.4l-0.7-2.5l-1.9-1.2l1.2-4l-1-1.8l-1.6-0.8l-0.2-4l0.8-1.6l-1.7-4.2l0.7-3.6l0.3-2.5l-1.4-0.7l-2.7-3.6l2.2-3.3
		l0.2-1.2l1.1,0.2l-0.2-2.3l0.6-5l0.7-0.7l0.2-2.1l-1.6-1.5l0.4-1.1l0-1.3l0.8-3.1l1.5-2.1l-0.2-1.4l1-1.8l0.1-1.9l0.9,0.5l0.6-1
		l-1.7-1.7l0.5-0.8l-0.8-0.9l-1,0.1l-1.1-0.4l-1.3-2.2l0.7-0.8l0.1-0.8l-0.8-3.2l-0.9-1.7l0.5-1.8l-0.9-0.8l-1-0.3l0.9-0.8L452,89
		l0.2-1.4l-1.4,1l-1.3,0.3l-0.5-1.4l0.1-3.2l-0.6-1.2l-1-0.1l-0.9,0.4l-0.2-0.7l0.2-1.1l-1.6-0.4l0-1.1l0.8-3.6l-0.6-2l-3.9-1.4
		l-5.1-1.8l-1.1-2.5l1.2-2.2l11.7-6.3l10.5-9.1L470,37.9l5.9-10.1l-0.2-2.5l-2.3-7.2l-2-2.9l48.3-4.9l1.6-0.7L600.7,1l2.1,4.6
		l12,15.5l6.5,4.5l5.1-0.6l1-2.3l2.1-0.5l2.4,1.4l1.7,1.9l2.5-1.5l2.5,0.2l1.3-1.6l2.2,2.9l3.8,0.5l2.3,3.1l3.7-0.2l2.3,3.6
		l-0.5,5.5l1.3,2.3l4.6,2.2l1.9,2.2l3.1,0.4l2.9-1.9l6.3,0.4l5.4,3.1l-1.1,3l0.4,2.7l4,3.6l2.9-1.4l6,0.4h2.8l6.1,5l7.5-0.4l3.9-0.5
		l4.5,2.1l0.1,1.3l3.5,5.4l3.7-0.6l3.7,1.8l7.3,1.3l1.1,2h1.8l1.5,1.9l2.8,1.6l2.6-0.5l-0.1,1.4l1.5-0.3l0.8,1.2l1.3,0.3l-0.1,1.3
		l2.5,5.1l1.7,0.7l-1.4,4.1v4.1l1.9,0.6l2.1-1.4l2.9,3.6l0.8-0.2l0.8-5.4l1.9,0.9l4.2,0.3l1.7,2.4l0.8,4.4l3.1,4.9l1.7,2.3l3,0.5
		l2.5,6.9l-2.2,0.7l-3.6,7.7l1.7,1.8l5.1,2.1l2.9,3.2l5.5,2.9l1.8,1.9l-0.3,3.7l-0.8,4.7l2,3.4l3.9,4.2l0.6,2.4l2.7,1.8l0.9,2.4
		l1,1.1l-2,2.9l-3.2,1.2l-0.4,1.9l-1.5-0.3l-3.8,4.1l-0.3,2.7l-2.3,1.8l-2.3,0.4l-1.2,1.8l-2.3-0.3l-1.3-0.6l-0.9,1l-3,0.1l-1.5,2
		l-0.8,1.3l-2.3-0.8l-1.4,2.9l2.5,2.2l0.9,4.1l1.2,6.1l3.3,2.9l0.7,2.1l1,0.8l-0.8,4.4l-1.8,2.1l-1.4,3.1l-1.5,2.8l-0.4,1.8
		l-1.2,0.7l-0.3,4.6l-1.3-1.2l-1.8-1.3l-1.2,1.1l0.6,2.3l1.1,1.6l0.5,4L767,225l1,2.6l3.6,0.1l1.9,1.7l-0.1,4.4l0.5,4.7l-0.5,2.1
		l0.8,2.8l-0.9,4.3l1.3,2.1l-1.2,4.8l-3.5,4.9l-1.6,4.9l1.4,2.5l2.4,1.2v4.1l2,2.8l2.4,3.9l3.1-0.4l3.7-0.9l4,1.2l0.9,1.2l-2,2.1
		l-1.4,1.6l-1.4,0.2l-0.8,3.1l-4.3,3.5l-1.6,2.7l-3.5-1.6l-4.1,1.3l-3.1,3.2l-1.6,1.3l-1.2,1.3l-0.2-1.8l-2.3-0.7l-2.5,0.9l-2.2-0.9
		l-1.7,0.1l-7.2,11.4l0.4,4.9l1.6,2.7l2.9,1l-1.8,10l-0.7,5l0.9,4l1,1.8l-2.5,4.6l-2.6,3.9l-0.1,3l-2.9,6.7l-2,0.3l-0.8,4l-7,3
		l-2.6-0.5l-1.8-0.3l-0.7,1.2l0.9,3.7l4,1.6l2.9-0.6l2.3,2.4l1.8,2.5l-3.9,2.8l-1.1,1.2l2.3,2.4l5.3,0.6l2.4,1.5v2.3l2.4,1.6
		l0.6,2.3l2.4,0.5l0.2,3.1l-0.8,2.2l2.5,2.4l2.3-2.1l0.3-3l2.5-1l2.3-0.3l1-2.5h0.8l2.6,4.8l2.7,0.4l-3,1.6l-56.8,19.5l-16.2,3.5
		l-5.5,2.8l-8.7,1.8l-5,3l-10.1,2.1l-11.2,5.7l-2.7,1.9l-27.6,6.5l-5.5,0.9l-6.5,2l-3.8,0.4l-24.4,8.9l-11,5.6l-8,1.5l0.8,2.1v2.7
		l-0.9,0.4l1.7,4.5l1.7,3.9l-0.3,2.4l1.1,0.4l0.2,1.4l3.2,3.4l2.3,1.5l1.3,2.3l0.5,2.3l-0.8,2.3l0.6,1.8l0.8,1.2l0.3,1l-2.6,4.9
		l2.6,2.2l1,1.9L575,502.1z"/>
</g>
</svg>
